<?xml version="1.0" encoding="UTF-8" standalone="no"?>
<!DOCTYPE svg PUBLIC "-//W3C//DTD SVG 1.1//EN"
"http://www.w3.org/Graphics/SVG/1.1/DTD/svg11.dtd">
<svg viewBox="0 0 909 1286" version="1.1" xmlns="http://www.w3.org/2000/svg" xmlns:xlink="http://www.w3.org/1999/xlink">
<defs>
<clipPath id="c0_1"><path d="M702.6,907.9V862.7H849.4v45.2Z"/></clipPath>
<style type="text/css"><![CDATA[
.g0_1{
fill: none;
stroke: #E6E7E8;
stroke-width: 0.763;
stroke-miterlimit: 22;
}
.g1_1{
fill: none;
stroke: #F2B738;
stroke-width: 0.866;
stroke-miterlimit: 22;
}
.g2_1{
fill: #10828D;
}
.g3_1{
fill: none;
stroke: #10828D;
stroke-width: 3.055;
stroke-miterlimit: 22;
}
.g4_1{
fill: none;
stroke: #10828D;
stroke-width: 1.145;
stroke-miterlimit: 22;
}
.g5_1{
fill: #373435;
}
.g6_1{
fill: #ED3237;
}
]]></style>
</defs>
<path d="M0,1283.5V0" class="g0_1"/>
<path d="M862.7,27.2H46.3C31.9,27.2,20.1,39,20.1,53.4V1231.5c0,14.4,11.8,26.2,26.2,26.2H862.7c14.4,0,26.2,-11.8,26.2,-26.2V53.4C888.9,39,877.1,27.2,862.7,27.2Z" class="g1_1"/>
<path fill-rule="evenodd" d="M28.3,1205.9c.3,-1.3,.8,-3.8,1.4,-5.6c1.5,-4.2,5.9,-13.9,1.1,-16.5c-.6,-.3,-1,-.2,-1.4,-.6c.5,-.7,1.6,-1.1,2.6,-.4c1.1,.6,.7,1.3,2,1.7c2.4,.7,2,2.6,2.2,5.3c.4,.5,.3,.2,.8,.6c.4,.4,.1,.3,.7,.7c1.2,-.7,4.6,-7.2,16.8,-5.8c11.2,1.2,13.3,9.5,10.7,10.7c-.3,-.5,0,-.4,-.3,-.9c-.2,-.5,-.3,-.2,-.6,-.7c-.5,-.9,.1,-1.3,-.7,-2c0,0,-.1,.1,-.1,.1l-1.1,1.7c-1.5,-.8,-1.1,-3.1,-2,-4.6c-.7,-1.1,-2.2,-2.5,-4.1,-2.5c.3,.7,1.5,1.4,2.1,2.2c.5,.8,1,2.6,0,3.2l-.3,-1.4c-1.4,-.3,-2,.1,-3.2,-.6c-1.9,-.9,-2.7,-3.6,-8.3,-3c.6,.7,2,.5,3,1.2c.6,.4,1.9,1.3,1.7,2.2c-2.6,1,-2.9,-.4,-4,-.3c.1,.7,.2,.6,-.1,1.2c-1.1,.1,-2.3,-.9,-3.6,-1.1c-1.5,-.2,-3.4,.1,-4.2,.9c.7,.4,1.5,-.1,1.7,1.4c-1.7,-.2,-2.1,-.3,-3.6,.5c-2.5,1.3,-5,5,-5.8,7.8l.9,.5c-.3,1.7,-1.7,1.2,-2.3,3.3c-.4,1.6,-.1,3.7,.4,5.1c.2,-.2,1,-3.4,1.3,-4.2c.4,-.9,1.7,-3.1,1.7,-3.8c.2,-1.6,-.3,-1.8,1.6,-3.8c1.9,-2.1,7.7,-6.7,10.6,-5.3c3.1,1.4,1.5,-1.6,9.3,.4c9.4,2.5,14,10.1,23.5,9.3c1.6,-.1,3.2,-.6,4.2,-1.3c.9,-.8,2.2,-2.4,1.2,-3.9c-.4,.1,-.4,.5,-.6,.9c-2.5,.3,-3,-3.1,-.9,-3.6c2.3,-.6,3.5,1.4,3.5,3.4c.1,3.8,-4.2,6.1,-8,6.1c-4.3,0,-8,-1.3,-11.1,-3c-2.3,-1.3,-7.1,-4,-9.3,-4.8c-7.9,-2.6,-15.1,-2.7,-20.7,3.9c-1.8,2.2,-4.2,6.1,-3.8,10.1c.6,4.7,4,7.6,7.3,6.2c-.6,-.5,-3.9,.3,-4.7,-3.2c-.5,-2.5,1.3,-4.3,3.2,-4.7c5,-1.2,8,4.2,5.9,8.4c-1.6,3.1,-6.8,5.5,-11,2.7c-1.4,-.9,-3.1,-2.5,-3.9,-3.9c-1.3,-2.3,-1.3,-4.4,-1.7,-5.7c-.4,-2.8,.1,-4.3,0,-4.5Z" class="g2_1"/>
<path fill-rule="evenodd" d="M56.1,1232.1c-2.3,1.3,.9,9,9.4,7.1c2,-.4,4.7,-2,6,-3c1.8,-1.4,3.1,-2.8,4.3,-4.9c3,-5.1,2.1,-9.3,.6,-15.1c-.7,-2.5,-1.7,-4.3,-2.8,-6.3c-.8,-1.4,-2.8,-4.6,-3.2,-6.1c2.6,.3,2.4,1.1,4.2,4.1c.9,1.7,2,3.4,2.9,5.3c1,2.1,2.8,7.2,2.3,9.8c-.2,1.1,-1,1.9,-.4,3.4c.6,1.5,.7,1.7,.1,3.3c-1,3,-5.2,8.6,-7.4,9.2c-1.8,.4,-1.2,-.4,-3.4,.7c-.9,.5,-1.8,1,-2.8,1.4c-.9,.3,-2.8,.6,-3.3,.8c.9,.8,3.3,.8,4.7,.6c2.4,-.5,1.8,-2,3.4,-2.3c.6,.5,.2,.3,.6,.9c2.2,-.5,4.3,-2.1,5.8,-3.3c.7,-.6,1.5,-1.4,2,-2.4c.9,-1.7,.7,-1.9,.6,-3.7c1.2,0,.9,.6,1.3,1.6c.9,-.4,1.1,-2.5,1,-3.9c-.1,-1.5,-1.4,-2.8,-1.1,-3.9l1.3,-.1c-.2,-1.4,-1.3,-.4,-.5,-4c2.5,.1,2.8,4.1,3.3,4.7c.9,-1.7,-.1,-4.9,-1.6,-6.6c-2.8,-3.3,-1.2,-2.7,-1.8,-4.5c-.2,-.6,-.2,-.2,-1.2,-.6l-.3,-.1c2.2,-2,4.5,1.7,5.5,2.1c-.1,-4.6,-5.6,-4.9,-6.1,-5.1l-1,-.8c.6,-1.1,1.5,-.8,1.8,-1.5c-.8,-.5,-1.3,-.1,-2,-.5c-.5,-.3,-.2,-.4,-.6,-.6l-1,-.4c.7,-1.2,3,-1.1,4.3,-.4c1.3,.7,2.4,1.7,3.1,2.7c3.8,4.3,4.3,13.4,2.4,18.4c-.6,1.4,-1.3,2.7,-2.1,3.8c-.4,.6,-.8,1.1,-1.3,1.6c-.5,.5,-1,.7,-1.5,1.4l1.2,1.5c2.5,.2,4.7,-.2,5.3,2.2c.4,1.5,1.1,.9,1.8,2c.5,.8,.4,2.3,-.5,2.6c-.3,-.5,-.6,-2.6,-2.8,-3.3c-3.9,-1.2,-11,1.9,-14.8,3.2c-3.1,1.1,-6.9,1.8,-10.5,1.1c-15.6,-3,-10.2,-20.7,-.3,-16.4c1.4,.6,2.3,1.6,2.7,3.3c.5,2,-.1,3.8,-1.2,4.8c-2.1,1.9,-6.5,1.5,-6.4,-3.8Z" class="g2_1"/>
<path fill-rule="evenodd" d="M46.2,1206.2c.6,-1.2,2.5,-1.1,3.8,-.5c2,1,1.5,2.4,2.3,2.9c.9,-.8,.4,-4,4,-3.5c-.1,1,-.8,1.1,-1,2.1c-.4,2.1,2.2,4.7,-2.2,6.8c-2.7,1.3,-.7,3.7,.7,2.4c.6,-.5,.5,-1.7,1.1,-2.3c.6,-.7,1.7,-.5,2.8,-.5c-.2,-1.4,-1,-2.1,-.2,-4c.4,-1,1.5,-2.2,3,-2.1c.4,1.9,-.7,3.5,-.4,4.1c1.4,-.2,.1,-2.3,2.2,-4.1c.7,-.6,3.6,-2.5,4.4,-1.5c.8,1.1,-1,3.8,-1.6,4.3c-1.8,2,-3.6,1,-4.1,2.1c.7,.6,4.1,-1.4,4.1,.2c.1,1,-1,2,-1.8,2.4c-1.8,.9,-2.7,.2,-4.3,0c.2,4.3,-1.1,2.4,-2.6,3.7c-1.6,1.4,1,3.6,2.3,.8c2,-4.3,4.7,-1.9,6.7,-2.1c1.2,-.2,1.1,-1.1,2.1,-1c.4,1.4,-.5,2.9,-2.1,3.4c-.8,.2,-1,0,-1.3,.6c.9,1,1.9,.2,2.9,2.4c.6,1.3,.6,3.2,-.6,3.7c-2.2,-1.8,-.6,-3.7,-6.5,-3.3c-1.3,0,-3.1,-.2,-4.3,-.6c-2.3,-.9,-1.5,-1.7,-2.4,-2.9c-.8,-.9,-3.8,-.2,-3.7,-6.6c0,-2.7,.7,-4.3,-2.6,-6.3c-.5,-.3,-.5,-.1,-.7,-.6Z" class="g2_1"/>
<path fill-rule="evenodd" d="M140,1240.9v3l-27.8,.1c-3.3,0,-4.7,-1.4,-5.4,-4.1h-4.2c-.6,1.7,-1.9,2.9,-3.7,3.3c-5.3,1.2,-7.3,-5.2,-3.7,-6.4c1.1,-.4,2.2,-.1,2.9,.4c.9,.6,.8,1.3,.9,2.5c1.5,-.7,1.2,-3.3,.1,-4.5c-1.9,-2.3,-6.4,-3.4,-9.7,-2.4c-2.9,.8,-3,1.8,-4.2,2.2c.4,-2.4,7.9,-7.6,15,-2.4c2.3,1.6,2,2.9,2.9,4.3l5.5,.1c.8,3.8,.5,3.9,4.8,3.9Z" class="g2_1"/>
<path fill-rule="evenodd" d="M28.7,1132.8h3V1159c0,4,-.1,4.5,3.9,5l.1,5.5c.6,.5,1.8,.8,2.5,1.2c3.3,1.8,5.5,8.4,2.9,13.2c-.5,1.1,-2.4,3.6,-3.5,3.6c.2,-.9,4,-4.1,2.2,-9.9c-2,-6.5,-6.4,-5.3,-6.9,-3.9c1.4,.2,1.9,-.1,2.6,.9c.5,.7,.7,1.9,.3,2.9c-1.4,3.8,-7.8,1.2,-6.3,-3.9c.6,-2.1,1.6,-2.7,3.3,-3.6l-.1,-4c-.7,-.5,-1.8,-.5,-2.9,-1.7c-.9,-1,-1.1,-1.8,-1.1,-3.5Z" class="g2_1"/>
<path fill-rule="evenodd" d="M92.3,1215.7c-.3,.6,-3,1.8,-2.1,3.5c1.2,0,.8,-1.1,2.6,-.8c.3,2.4,-.9,2.8,-1.7,3.2l.5,.2c.4,.2,.1,-.1,.6,.2c-.3,1.6,-1.2,1.6,-2.3,2.3c-.7,.5,-1.6,2.1,-.9,3.5c.8,-.4,1.6,-3.9,3.5,-1.1c1.9,-.9,1.3,-1.8,4.7,-1.6c5.2,.3,4.4,-.7,5.2,-1.2c.7,1.3,-.1,1.6,-.8,2.1c.9,1.2,5.3,2.3,7.4,1.7c3.3,-.8,1.7,-3.7,-.1,-3.2c-.7,.3,-.6,.9,-1.3,1.1c-1,-1.7,1.3,-3.8,3.5,-2.5c3,1.8,1.4,7.4,-5.4,5.9c-1.4,-.3,-4.6,-1.8,-5.4,-1.7c-.1,1.5,.7,1.4,-.1,3.5c-1,-.4,-.2,-.6,-1.7,-1.8c-2.4,-2,-5.2,-1.4,-7.7,0c-3.3,2,-6.6,5.7,-7.9,5.9c.4,-.8,2.1,-2.3,3.3,-4c3.3,-5,.6,-12.2,3.5,-14.8c.6,-.6,1.8,-1.1,2.6,-.4Z" class="g2_1"/>
<path fill-rule="evenodd" d="M41.9,1172.6c1,-1,2.2,-.3,3.5,-.2c-.1,-1.2,-1.4,-3.8,-1.7,-5.4c-1.6,-6.6,3.9,-8.5,5.8,-5.5c1.3,2,-.5,4.5,-2.5,3.5c.2,-.7,2.4,-1.5,.6,-2.9c-2.7,-2.2,-4.3,4.9,-1,9l.2,-.3c.4,-.5,.6,-1,1.9,-.7c-.2,.6,-.4,.3,-.8,.9c-.4,.8,-.4,3.5,-.3,4.4c.2,3.2,-.6,2.8,-1.6,4.7c0,0,2.4,1.5,-.2,2.9c-.6,.3,-.7,.1,-1,.7c1.4,.4,2.8,0,3.5,-.9c.7,-1,.7,-2.1,2.4,-2.3l.1,1c.6,-.4,.8,-2,3.4,-1.6c.5,1.4,-.8,1.5,-.8,2.6c2.5,.7,2.5,-1.8,3.6,-2c1.2,2,-1.4,3.3,-3,3.7c-5.9,1.3,-8.3,-1.3,-14.3,4c-.5,.4,-1.5,1.3,-2,1.6c.1,-2,10.8,-9.7,6,-15.6c-.5,-.6,-1.5,-1.1,-1.8,-1.6Z" class="g2_1"/>
<path fill-rule="evenodd" d="M39.3,1237.9c-.7,.3,-2.8,2.2,-4.8,.2c-2,-2,.1,-4.1,.2,-4.8c-1.2,-.5,-2.6,-.2,-2.7,-2.3c-.1,-1.8,1.1,-2.3,1.5,-3.4c-1.2,-1,-1.4,-1.4,0,-3.3c4.2,-5.7,2.2,.5,2.2,.7c-1,7,4.6,12.9,11.6,12c1.2,-.1,2.3,-.7,3.5,-.6c-.1,1.1,-1.7,2.2,-2.4,2.7c-.5,.4,-1.1,.9,-1.7,1c-1,.1,-1.2,-.4,-1.6,-.8c0,0,-.1,-.1,-.1,-.1c-1,.5,-1.8,1.6,-3.5,1.4c-2.2,-.2,-1.7,-1.9,-2.2,-2.7Z" class="g2_1"/>
<path fill-rule="evenodd" d="M87.6,1179.9c.8,.5,.5,.9,1.1,1.4c.9,-.4,.3,-1.3,1.5,-1.9c.7,-.4,2.2,-.5,2.9,-.1c.6,.5,.6,2,.3,2.9c-.4,1.3,-1.3,.9,-2,1.7c.5,.9,.9,.3,1.4,1.2c-.6,1.1,-1.9,1,-3.5,1.3c-1.6,.3,-2.4,.9,-3.3,1.6c-1.5,1.2,-4.6,4.8,-5.4,4.1c-1.3,-1.3,4.8,-4.3,5.6,-8.7c.2,-1.2,.1,-3.1,1.4,-3.5Z" class="g2_1"/>
<path fill-rule="evenodd" d="M140,1237.3v1.1c-4.5,.1,-9,0,-13.6,0c-3.9,0,-9.6,.7,-12.1,-1.4c-2.9,-2.4,-2.2,-7.7,2.9,-7.1c1.9,.3,3.3,2.1,2.1,4c-.8,1.4,-4,1.3,-3.5,-1.8c.7,-.6,.9,-.1,1.2,-.9c-2.1,-1.3,-4.8,1.9,-2.5,4.5c1.8,1.9,4.3,1.6,7.4,1.6c6,0,12.1,0,18.1,0Z" class="g2_1"/>
<path fill-rule="evenodd" d="M34.2,1132.8h1.1c.1,6,0,12,0,18c0,3.3,-.3,5.7,1.8,7.4c2.1,1.8,5.3,.5,4.5,-2.5c-1.3,.2,-.1,.5,-1.2,1.1c-2.1,1.1,-3.3,-2.3,-1.7,-3.4c1.9,-1.3,3.8,.1,4,2.2c.6,5.1,-4.7,5.7,-7.1,2.7c-2,-2.4,-1.4,-8.4,-1.4,-12.1c0,-4.5,0,-9,0,-13.4Z" class="g2_1"/>
<path fill-rule="evenodd" d="M45,1230.4c-5,-1.4,-3,-8.8,2,-7.6c5,1.2,3.1,9,-2,7.6Zm0,-1.2c-3.5,-1.5,-1.2,-6.5,2.1,-5.1c3.3,1.3,1.2,6.6,-2.1,5.1Z" class="g2_1"/>
<path fill-rule="evenodd" d="M62.5,1237.3c1.4,-.7,4.4,0,6,-3c1,-1.9,.8,-5.6,2.2,-6.6c1.4,.6,.9,1.3,1.7,2.2c1.2,-1.1,.5,-2.2,-.2,-3.2c-.3,-.6,-1.3,-3.5,-.5,-3.9c.5,-.2,3.6,2.6,2.4,6.8c-1.4,5.1,-5.4,7.8,-10.3,8c-.2,0,-.5,0,-.7,-.1c-.5,-.1,.1,.3,-.6,-.2Z" class="g2_1"/>
<path fill-rule="evenodd" d="M49.9,1201.1c-4.4,.6,-5.3,-2.9,-7.2,-.8c.8,.8,1.9,.3,2.2,1.7c-1.6,1.5,-4.5,1.1,-6.6,2.2c-3.3,1.7,-2.2,4.9,-3.1,6c-1.1,-2.6,1.2,-8.1,4.5,-10.2c6.2,-3.8,10.1,-.3,10.2,1.1Z" class="g2_1"/>
<path fill-rule="evenodd" d="M74.1,1189.3c.4,-.3,.8,-.3,1,-.7c-2.4,-1.6,-5.9,1.7,-5.3,7.9c.1,1.2,.8,3.2,.7,4c-1.7,-.7,-1.5,-.2,-1.9,-2.4c-2,-11.6,7.2,-13.7,9,-9.8c1.7,3.5,-3.7,4.1,-3.5,1Z" class="g2_1"/>
<path fill-rule="evenodd" d="M76.2,1198.3l-.7,.7c-1.4,1.7,-3.7,1,-2.4,-1.3c.4,-.7,1,-.6,1.3,-1.2c-4,-.1,-3.1,-3.2,-2.3,-3.8c.4,.2,.2,0,.4,.4c.2,.1,.2,.3,.4,.5c1.1,1.2,3,.2,4.3,.4c.2,.4,.3,.7,.6,1c.4,.4,.4,0,.9,.6c.1,1.1,-.4,1.7,-.2,2.9c.2,1.5,1,1.2,1.5,1.9c-.4,.9,-3.8,1.9,-3.8,-2.1Z" class="g2_1"/>
<path fill-rule="evenodd" d="M91.3,1191.4c-.7,.9,-.1,1.4,-1.3,1.7c-.6,-.9,-.7,-1.5,-2,-1.9c-1.2,-.4,-2.8,.2,-3.7,-.3c.4,-1.1,2.8,-1.6,3.9,-2c4.4,-1.6,3.6,0,3.8,.9c1.6,.5,3.4,1.5,2.8,3.5c-.9,-.3,-2,-1.6,-3.5,-1.9Z" class="g2_1"/>
<path fill-rule="evenodd" d="M79.6,1182.5c.3,-1,.7,-.6,1.6,-1c0,-1.6,-1.7,-2.7,-1.8,-3.7c1.2,-.3,2.5,.6,3,1.4c.4,.8,.1,1.3,.8,1.5c.6,.3,2.4,-.8,.2,4.7c-.4,1.2,-.9,2.8,-1.7,3c-.6,-1.7,.9,-3.8,-1.5,-5.4c-.6,-.4,-.2,0,-.6,-.5Z" class="g2_1"/>
<path fill-rule="evenodd" d="M79.8,1190.3c-.6,-.8,.1,-2.7,-1.9,-4.3c-.9,-.6,-1.3,-.5,-2.3,-.9c-1,-.3,-1.2,-1.3,-.4,-1.7c1.9,-1.1,4,.5,4.5,1.5c.6,1.3,.7,4.1,.1,5.4Z" class="g2_1"/>
<path fill-rule="evenodd" d="M82.4,1193c.3,-.3,.1,-.2,.6,-.4c.2,0,.5,-.1,.7,-.1c1.5,-.1,3.5,-.1,4.6,.8c1.2,1,2.3,4.9,-.4,4.5c-.7,-1.1,-.6,-2.4,-1.7,-3.4c-1.4,-1.4,-1.9,-.9,-3.8,-1.4Z" class="g2_1"/>
<path d="M131.9,1242.5H791.1" class="g3_1"/>
<path fill-rule="evenodd" d="M880.7,1205.9c-.2,-1.3,-.8,-3.8,-1.4,-5.6c-1.5,-4.2,-5.9,-13.9,-1.1,-16.5c.6,-.3,1,-.2,1.4,-.6c-.5,-.7,-1.6,-1.1,-2.6,-.4c-1,.6,-.6,1.3,-1.9,1.7c-2.5,.7,-2.1,2.6,-2.3,5.3c-.4,.5,-.3,.2,-.7,.6c-.5,.4,-.2,.3,-.8,.7c-1.1,-.7,-4.6,-7.2,-16.8,-5.8c-11.2,1.2,-13.3,9.5,-10.7,10.7c.3,-.5,.1,-.4,.3,-.9c.2,-.5,.3,-.2,.6,-.7c.5,-.9,-.1,-1.3,.7,-2c0,0,.1,.1,.1,.1l1.1,1.7c1.5,-.8,1.1,-3.1,2.1,-4.6c.7,-1.1,2.1,-2.5,4,-2.5c-.3,.7,-1.5,1.4,-2,2.2c-.6,.8,-1,2.6,-.1,3.2l.4,-1.4c1.3,-.3,2,.1,3.1,-.6c1.9,-.9,2.7,-3.6,8.3,-3c-.6,.7,-1.9,.5,-3,1.2c-.6,.4,-1.8,1.3,-1.7,2.2c2.7,1,3,-.4,4,-.3c-.1,.7,-.2,.6,.1,1.2c1.2,.1,2.3,-.9,3.6,-1.1c1.5,-.2,3.4,.1,4.2,.9c-.6,.4,-1.5,-.1,-1.7,1.4c1.8,-.2,2.1,-.3,3.6,.5c2.6,1.3,5,5,5.8,7.8l-.9,.5c.3,1.7,1.7,1.2,2.3,3.3c.4,1.6,.1,3.7,-.4,5.1c-.1,-.2,-.9,-3.4,-1.3,-4.2c-.4,-.9,-1.6,-3.1,-1.7,-3.8c-.1,-1.6,.4,-1.8,-1.5,-3.8c-1.9,-2.1,-7.7,-6.7,-10.7,-5.3c-3.1,1.4,-1.5,-1.6,-9.3,.4c-9.3,2.5,-13.9,10.1,-23.5,9.3c-1.6,-.1,-3.2,-.6,-4.2,-1.3c-.9,-.8,-2.1,-2.4,-1.1,-3.9c.3,.1,.3,.5,.6,.9c2.4,.3,2.9,-3.1,.8,-3.6c-2.2,-.6,-3.5,1.4,-3.5,3.4c0,3.8,4.2,6.1,8.1,6.1c4.2,0,7.9,-1.3,11,-3c2.4,-1.3,7.2,-4,9.3,-4.8c8,-2.6,15.2,-2.7,20.7,3.9c1.8,2.2,4.2,6.1,3.8,10.1c-.5,4.7,-4,7.6,-7.3,6.2c.7,-.5,3.9,.3,4.7,-3.2c.5,-2.5,-1.3,-4.3,-3.2,-4.7c-5,-1.2,-8,4.2,-5.8,8.4c1.5,3.1,6.7,5.5,10.9,2.7c1.4,-.9,3.1,-2.5,3.9,-3.9c1.3,-2.3,1.3,-4.4,1.7,-5.7c.4,-2.8,-.1,-4.3,0,-4.5Z" class="g2_1"/>
<path fill-rule="evenodd" d="M852.9,1232.1c2.3,1.3,-.9,9,-9.4,7.1c-1.9,-.4,-4.7,-2,-6,-3c-1.8,-1.4,-3.1,-2.8,-4.3,-4.9c-2.9,-5.1,-2.1,-9.3,-.6,-15.1c.7,-2.5,1.7,-4.3,2.8,-6.3c.8,-1.4,2.8,-4.6,3.2,-6.1c-2.6,.3,-2.3,1.1,-4.1,4.1c-1,1.7,-2.1,3.4,-3,5.3c-1,2.1,-2.8,7.2,-2.3,9.8c.2,1.1,1,1.9,.4,3.4c-.6,1.5,-.7,1.7,-.1,3.3c1,3,5.2,8.6,7.4,9.2c1.8,.4,1.3,-.4,3.4,.7c1,.5,1.8,1,2.9,1.4c.8,.3,2.7,.6,3.2,.8c-.9,.8,-3.3,.8,-4.6,.6c-2.5,-.5,-1.8,-2,-3.5,-2.3c-.6,.5,-.2,.3,-.5,.9c-2.3,-.5,-4.4,-2.1,-5.8,-3.3c-.7,-.6,-1.6,-1.4,-2.1,-2.4c-.9,-1.7,-.7,-1.9,-.5,-3.7c-1.3,0,-1,.6,-1.4,1.6c-.9,-.4,-1.1,-2.5,-1,-3.9c.2,-1.5,1.4,-2.8,1.1,-3.9l-1.2,-.1c.2,-1.4,1.2,-.4,.5,-4c-2.6,.1,-2.9,4.1,-3.4,4.7c-.9,-1.7,.1,-4.9,1.6,-6.6c2.9,-3.3,1.2,-2.7,1.8,-4.5c.2,-.6,.2,-.2,1.2,-.6l.3,-.1c-2.2,-2,-4.5,1.7,-5.5,2.1c.2,-4.6,5.7,-4.9,6.1,-5.1l1,-.8c-.6,-1.1,-1.4,-.8,-1.8,-1.5c.9,-.5,1.3,-.1,2,-.5c.5,-.3,.3,-.4,.6,-.6l1.1,-.4c-.8,-1.2,-3,-1.1,-4.4,-.4c-1.3,.7,-2.3,1.7,-3.1,2.7c-3.8,4.3,-4.3,13.4,-2.3,18.4c.5,1.4,1.3,2.7,2,3.8c.4,.6,.9,1.1,1.3,1.6c.6,.5,1,.7,1.5,1.4l-1.1,1.5c-2.6,.2,-4.8,-.2,-5.4,2.2c-.4,1.5,-1.1,.9,-1.8,2c-.5,.8,-.4,2.3,.6,2.6c.3,-.5,.5,-2.6,2.7,-3.3c3.9,-1.2,11.1,1.9,14.8,3.2c3.1,1.1,6.9,1.8,10.6,1.1c15.5,-3,10.1,-20.7,.2,-16.4c-1.4,.6,-2.3,1.6,-2.7,3.3c-.5,2,.2,3.8,1.2,4.8c2.1,1.9,6.5,1.5,6.4,-3.8Z" class="g2_1"/>
<path fill-rule="evenodd" d="M862.9,1206.2c-.7,-1.2,-2.5,-1.1,-3.8,-.5c-2.1,1,-1.5,2.4,-2.4,2.9c-.9,-.8,-.4,-4,-4,-3.5c.1,1,.9,1.1,1,2.1c.4,2.1,-2.2,4.7,2.2,6.8c2.7,1.3,.8,3.7,-.7,2.4c-.6,-.5,-.5,-1.7,-1,-2.3c-.7,-.7,-1.7,-.5,-2.8,-.5c.1,-1.4,.9,-2.1,.1,-4c-.4,-1,-1.5,-2.2,-3,-2.1c-.4,1.9,.7,3.5,.4,4.1c-1.4,-.2,-.1,-2.3,-2.2,-4.1c-.7,-.6,-3.5,-2.5,-4.4,-1.5c-.8,1.1,1.1,3.8,1.6,4.3c1.8,2,3.6,1,4.1,2.1c-.7,.6,-4,-1.4,-4.1,.2c0,1,1.1,2,1.9,2.4c1.7,.9,2.6,.2,4.2,0c-.2,4.3,1.1,2.4,2.7,3.7c1.5,1.4,-1.1,3.6,-2.4,.8c-2,-4.3,-4.7,-1.9,-6.6,-2.1c-1.2,-.2,-1.2,-1.1,-2.2,-1c-.4,1.4,.6,2.9,2.1,3.4c.8,.2,1,0,1.4,.6c-1,1,-2,.2,-3,2.4c-.5,1.3,-.5,3.2,.6,3.7c2.3,-1.8,.6,-3.7,6.5,-3.3c1.4,0,3.1,-.2,4.4,-.6c2.2,-.9,1.4,-1.7,2.3,-2.9c.8,-.9,3.9,-.2,3.8,-6.6c-.1,-2.7,-.8,-4.3,2.5,-6.3c.6,-.3,.5,-.1,.8,-.6Z" class="g2_1"/>
<path fill-rule="evenodd" d="M769,1240.9v3l27.9,.1c3.2,0,4.6,-1.4,5.4,-4.1h4.1c.6,1.7,1.9,2.9,3.7,3.3c5.4,1.2,7.4,-5.2,3.7,-6.4c-1,-.4,-2.2,-.1,-2.8,.4c-1,.6,-.8,1.3,-.9,2.5c-1.6,-.7,-1.2,-3.3,-.2,-4.5c1.9,-2.3,6.4,-3.4,9.8,-2.4c2.9,.8,2.9,1.8,4.2,2.2c-.4,-2.4,-8,-7.6,-15.1,-2.4c-2.2,1.6,-2,2.9,-2.9,4.3l-5.5,.1c-.8,3.8,-.4,3.9,-4.8,3.9Z" class="g2_1"/>
<path fill-rule="evenodd" d="M880.3,1132.8h-3V1159c0,4,.2,4.5,-3.9,5l-.1,5.5c-.6,.5,-1.8,.8,-2.5,1.2c-3.2,1.8,-5.4,8.4,-2.9,13.2c.6,1.1,2.4,3.6,3.5,3.6c-.2,-.9,-4,-4.1,-2.2,-9.9c2,-6.5,6.4,-5.3,6.9,-3.9c-1.4,.2,-1.9,-.1,-2.6,.9c-.4,.7,-.7,1.9,-.3,2.9c1.4,3.8,7.8,1.2,6.4,-3.9c-.6,-2.1,-1.7,-2.7,-3.3,-3.6v-4c.7,-.5,1.8,-.5,2.9,-1.7c.9,-1,1.1,-1.8,1.1,-3.5Z" class="g2_1"/>
<path fill-rule="evenodd" d="M816.8,1215.7c.2,.6,3,1.8,2,3.5c-1.1,0,-.8,-1.1,-2.6,-.8c-.3,2.4,.9,2.8,1.7,3.2l-.5,.2c-.4,.2,-.1,-.1,-.5,.2c.2,1.6,1.2,1.6,2.2,2.3c.7,.5,1.6,2.1,.9,3.5c-.8,-.4,-1.5,-3.9,-3.5,-1.1c-1.9,-.9,-1.3,-1.8,-4.7,-1.6c-5.1,.3,-4.4,-.7,-5.2,-1.2c-.7,1.3,.1,1.6,.9,2.1c-1,1.2,-5.3,2.3,-7.5,1.7c-3.3,-.8,-1.7,-3.7,.1,-3.2c.8,.3,.6,.9,1.3,1.1c1,-1.7,-1.3,-3.8,-3.5,-2.5c-3,1.8,-1.4,7.4,5.4,5.9c1.4,-.3,4.6,-1.8,5.5,-1.7c0,1.5,-.7,1.4,0,3.5c1,-.4,.2,-.6,1.7,-1.8c2.4,-2,5.2,-1.4,7.7,0c3.3,2,6.6,5.7,7.9,5.9c-.4,-.8,-2.1,-2.3,-3.3,-4c-3.3,-5,-.6,-12.2,-3.5,-14.8c-.6,-.6,-1.8,-1.1,-2.5,-.4Z" class="g2_1"/>
<path fill-rule="evenodd" d="M867.1,1172.6c-1,-1,-2.2,-.3,-3.4,-.2c0,-1.2,1.3,-3.8,1.7,-5.4c1.5,-6.6,-4,-8.5,-5.9,-5.5c-1.2,2,.5,4.5,2.5,3.5c-.1,-.7,-2.3,-1.5,-.6,-2.9c2.7,-2.2,4.3,4.9,1.1,9l-.3,-.3c-.4,-.5,-.6,-1,-1.8,-.7c.1,.6,.3,.3,.7,.9c.5,.8,.4,3.5,.4,4.4c-.3,3.2,.5,2.8,1.6,4.7c-.1,0,-2.5,1.5,.1,2.9c.7,.3,.8,.1,1,.7c-1.4,.4,-2.8,0,-3.4,-.9c-.8,-1,-.8,-2.1,-2.5,-2.3l-.1,1c-.5,-.4,-.8,-2,-3.4,-1.6c-.5,1.4,.8,1.5,.8,2.6c-2.5,.7,-2.5,-1.8,-3.6,-2c-1.1,2,1.4,3.3,3,3.7c5.9,1.3,8.4,-1.3,14.3,4c.5,.4,1.5,1.3,2,1.6c-.1,-2,-10.8,-9.7,-6,-15.6c.6,-.6,1.5,-1.1,1.8,-1.6Z" class="g2_1"/>
<path fill-rule="evenodd" d="M869.8,1237.9c.6,.3,2.7,2.2,4.7,.2c2,-2,0,-4.1,-.2,-4.8c1.2,-.5,2.6,-.2,2.7,-2.3c.2,-1.8,-1,-2.3,-1.4,-3.4c1.1,-1,1.4,-1.4,-.1,-3.3c-4.2,-5.7,-2.2,.5,-2.1,.7c1,7,-4.7,12.9,-11.7,12c-1.2,-.1,-2.3,-.7,-3.4,-.6c0,1.1,1.6,2.2,2.3,2.7c.5,.4,1.1,.9,1.7,1c1,.1,1.2,-.4,1.6,-.8c.1,0,.1,-.1,.1,-.1c1,.5,1.8,1.6,3.5,1.4c2.2,-.2,1.7,-1.9,2.3,-2.7Z" class="g2_1"/>
<path fill-rule="evenodd" d="M821.4,1179.9c-.8,.5,-.4,.9,-1,1.4c-.9,-.4,-.4,-1.3,-1.6,-1.9c-.7,-.4,-2.2,-.5,-2.8,-.1c-.7,.5,-.7,2,-.4,2.9c.5,1.3,1.4,.9,2,1.7c-.5,.9,-.9,.3,-1.4,1.2c.6,1.1,1.9,1,3.5,1.3c1.6,.3,2.4,.9,3.3,1.6c1.5,1.2,4.6,4.8,5.4,4.1c1.3,-1.3,-4.8,-4.3,-5.6,-8.7c-.2,-1.2,0,-3.1,-1.4,-3.5Z" class="g2_1"/>
<path fill-rule="evenodd" d="M769,1237.3v1.1c4.5,.1,9.1,0,13.6,0c3.9,0,9.6,.7,12.2,-1.4c2.8,-2.4,2.1,-7.7,-2.9,-7.1c-2,.3,-3.3,2.1,-2.2,4c.9,1.4,4,1.3,3.5,-1.8c-.7,-.6,-.9,-.1,-1.2,-.9c2.1,-1.3,4.8,1.9,2.5,4.5c-1.8,1.9,-4.2,1.6,-7.4,1.6c-6,0,-12.1,0,-18.1,0Z" class="g2_1"/>
<path fill-rule="evenodd" d="M874.8,1132.8h-1.1c0,6,0,12,0,18c0,3.3,.3,5.7,-1.7,7.4c-2.1,1.8,-5.3,.5,-4.6,-2.5c1.3,.2,.1,.5,1.2,1.1c2.2,1.1,3.3,-2.3,1.7,-3.4c-1.8,-1.3,-3.8,.1,-4,2.2c-.5,5.1,4.7,5.7,7.1,2.7c2.1,-2.4,1.4,-8.4,1.4,-12.1c0,-4.5,0,-9,0,-13.4Z" class="g2_1"/>
<path fill-rule="evenodd" d="M864,1230.4c5.1,-1.4,3.1,-8.8,-2,-7.6c-5,1.2,-3.1,9,2,7.6Zm.1,-1.2c3.5,-1.5,1.2,-6.5,-2.2,-5.1c-3.3,1.3,-1.2,6.6,2.2,5.1Z" class="g2_1"/>
<path fill-rule="evenodd" d="M846.5,1237.3c-1.3,-.7,-4.4,0,-5.9,-3c-1,-1.9,-.9,-5.6,-2.3,-6.6c-1.4,.6,-.9,1.3,-1.6,2.2c-1.2,-1.1,-.6,-2.2,.1,-3.2c.4,-.6,1.3,-3.5,.5,-3.9c-.5,-.2,-3.6,2.6,-2.4,6.8c1.4,5.1,5.4,7.8,10.3,8c.2,0,.6,0,.7,-.1c.5,-.1,-.1,.3,.6,-.2Z" class="g2_1"/>
<path fill-rule="evenodd" d="M859.2,1201.1c4.3,.6,5.2,-2.9,7.1,-.8c-.8,.8,-1.8,.3,-2.2,1.7c1.6,1.5,4.6,1.1,6.6,2.2c3.3,1.7,2.2,4.9,3.1,6c1.1,-2.6,-1.2,-8.1,-4.5,-10.2c-6.2,-3.8,-10,-.3,-10.1,1.1Z" class="g2_1"/>
<path fill-rule="evenodd" d="M834.9,1189.3c-.4,-.3,-.7,-.3,-1,-.7c2.4,-1.6,5.9,1.7,5.3,7.9c-.1,1.2,-.8,3.2,-.7,4c1.7,-.7,1.6,-.2,1.9,-2.4c2.1,-11.6,-7.2,-13.7,-9,-9.8c-1.7,3.5,3.7,4.1,3.5,1Z" class="g2_1"/>
<path fill-rule="evenodd" d="M832.8,1198.3l.7,.7c1.4,1.7,3.8,1,2.4,-1.3c-.4,-.7,-.9,-.6,-1.3,-1.2c4.1,-.1,3.1,-3.2,2.3,-3.8c-.4,.2,-.1,0,-.4,.4c-.2,.1,-.2,.3,-.4,.5c-1,1.2,-2.9,.2,-4.3,.4c-.2,.4,-.2,.7,-.6,1c-.4,.4,-.4,0,-.8,.6c-.2,1.1,.3,1.7,.1,2.9c-.2,1.5,-.9,1.2,-1.4,1.9c.4,.9,3.7,1.9,3.7,-2.1Z" class="g2_1"/>
<path fill-rule="evenodd" d="M817.7,1191.4c.7,.9,.1,1.4,1.3,1.7c.6,-.9,.7,-1.5,2,-1.9c1.2,-.4,2.8,.2,3.7,-.3c-.4,-1.1,-2.7,-1.6,-3.9,-2c-4.3,-1.6,-3.5,0,-3.7,.9c-1.7,.5,-3.5,1.5,-2.9,3.5c.9,-.3,2,-1.6,3.5,-1.9Z" class="g2_1"/>
<path fill-rule="evenodd" d="M829.5,1182.5c-.4,-1,-.7,-.6,-1.7,-1c.1,-1.6,1.7,-2.7,1.8,-3.7c-1.2,-.3,-2.5,.6,-2.9,1.4c-.5,.8,-.1,1.3,-.8,1.5c-.7,.3,-2.5,-.8,-.3,4.7c.5,1.2,.9,2.8,1.7,3c.6,-1.7,-.9,-3.8,1.5,-5.4c.6,-.4,.3,0,.7,-.5Z" class="g2_1"/>
<path fill-rule="evenodd" d="M829.2,1190.3c.7,-.8,0,-2.7,2,-4.3c.8,-.6,1.2,-.5,2.2,-.9c1.1,-.3,1.2,-1.3,.4,-1.7c-1.9,-1.1,-3.9,.5,-4.4,1.5c-.7,1.3,-.8,4.1,-.2,5.4Z" class="g2_1"/>
<path fill-rule="evenodd" d="M826.6,1193c-.3,-.3,0,-.2,-.5,-.4c-.2,0,-.6,-.1,-.8,-.1c-1.5,-.1,-3.4,-.1,-4.6,.8c-1.2,1,-2.3,4.9,.4,4.5c.7,-1.1,.6,-2.4,1.7,-3.4c1.4,-1.4,2,-.9,3.8,-1.4Z" class="g2_1"/>
<path d="M137.6,1237.9H769.2" class="g4_1"/>
<path fill-rule="evenodd" d="M28.3,78.9c.3,1.3,.8,3.9,1.4,5.7c1.5,4.1,5.9,13.9,1.1,16.4c-.6,.4,-1,.2,-1.4,.7c.5,.6,1.6,1,2.6,.4c1.1,-.7,.7,-1.4,2,-1.7c2.4,-.7,2,-2.6,2.2,-5.3c.4,-.5,.3,-.2,.8,-.6c.4,-.4,.1,-.4,.7,-.7c1.2,.7,4.6,7.1,16.8,5.8C65.7,98.3,67.8,90,65.2,88.9c-.3,.5,0,.3,-.3,.8c-.2,.6,-.3,.3,-.6,.8c-.5,.9,.1,1.3,-.7,2c0,-.1,-.1,-.2,-.1,-.1L62.4,90.7c-1.5,.8,-1.1,3.1,-2,4.6c-.7,1.1,-2.2,2.5,-4.1,2.5c.3,-.7,1.5,-1.4,2.1,-2.3c.5,-.8,1,-2.5,0,-3.2l-.3,1.5c-1.4,.2,-2,-.1,-3.2,.5c-1.9,1,-2.7,3.7,-8.3,3c.6,-.6,2,-.4,3,-1.1c.6,-.4,1.9,-1.4,1.7,-2.3c-2.6,-.9,-2.9,.4,-4,.4c.1,-.7,.2,-.6,-.1,-1.3c-1.1,-.1,-2.3,1,-3.6,1.2c-1.5,.2,-3.4,-.1,-4.2,-.9c.7,-.4,1.5,0,1.7,-1.4c-1.7,.2,-2.1,.3,-3.6,-.5c-2.5,-1.3,-5,-5,-5.8,-7.8l.9,-.6c-.3,-1.7,-1.7,-1.1,-2.3,-3.2c-.4,-1.6,-.1,-3.7,.4,-5.1c.2,.2,1,3.4,1.3,4.1c.4,1,1.7,3.1,1.7,3.9c.2,1.5,-.3,1.8,1.6,3.8c1.9,2,7.7,6.6,10.6,5.3c3.1,-1.5,1.5,1.6,9.3,-.5c9.4,-2.5,14,-10,23.5,-9.3c1.6,.2,3.2,.6,4.2,1.4c.9,.7,2.2,2.3,1.2,3.9c-.4,-.1,-.4,-.6,-.6,-.9C81,86,80.5,89.5,82.6,90c2.3,.5,3.5,-1.4,3.5,-3.5c.1,-3.7,-4.2,-6.1,-8,-6.1c-4.3,0,-8,1.4,-11.1,3.1c-2.3,1.2,-7.1,4,-9.3,4.7C49.8,90.9,42.6,91,37,84.4C35.2,82.2,32.8,78.3,33.2,74.3c.6,-4.7,4,-7.7,7.3,-6.3c-.6,.6,-3.9,-.3,-4.7,3.3c-.5,2.4,1.3,4.2,3.2,4.7c5,1.1,8,-4.2,5.9,-8.5c-1.6,-3.1,-6.8,-5.4,-11,-2.7c-1.4,.9,-3.1,2.5,-3.9,4c-1.3,2.3,-1.3,4.4,-1.7,5.7c-.4,2.8,.1,4.3,0,4.4Z" class="g2_1"/>
<path fill-rule="evenodd" d="M56.1,52.7c-2.3,-1.2,.9,-9,9.4,-7c2,.4,4.7,2,6,3c1.8,1.4,3.1,2.8,4.3,4.9c3,5.1,2.1,9.2,.6,15.1c-.7,2.5,-1.7,4.2,-2.8,6.2c-.8,1.5,-2.8,4.7,-3.2,6.1c2.6,-.3,2.4,-1,4.2,-4.1c.9,-1.7,2,-3.3,2.9,-5.2c1,-2.1,2.8,-7.2,2.3,-9.8c-.2,-1.1,-1,-2,-.4,-3.4c.6,-1.6,.7,-1.7,.1,-3.4C78.5,52.2,74.3,46.5,72.1,46c-1.8,-.5,-1.2,.4,-3.4,-.8c-.9,-.5,-1.8,-.9,-2.8,-1.3C65,43.6,63.1,43.3,62.6,43c.9,-.7,3.3,-.8,4.7,-.5c2.4,.5,1.8,2,3.4,2.3c.6,-.5,.2,-.3,.6,-.9c2.2,.5,4.3,2.1,5.8,3.2c.7,.6,1.5,1.5,2,2.5c.9,1.7,.7,1.9,.6,3.7c1.2,-.1,.9,-.6,1.3,-1.7c.9,.5,1.1,2.6,1,3.9c-.1,1.5,-1.4,2.9,-1.1,4l1.3,.1c-.2,1.4,-1.3,.4,-.5,4c2.5,-.1,2.8,-4.1,3.3,-4.7c.9,1.7,-.1,4.9,-1.6,6.6c-2.8,3.3,-1.2,2.7,-1.8,4.4c-.2,.7,-.2,.3,-1.2,.7l-.3,.1c2.2,2,4.5,-1.7,5.5,-2.2c-.1,4.7,-5.6,5,-6.1,5.2l-1,.8c.6,1.1,1.5,.8,1.8,1.4c-.8,.6,-1.3,.2,-2,.6c-.5,.3,-.2,.3,-.6,.6l-1,.4c.7,1.1,3,1,4.3,.3c1.3,-.6,2.4,-1.7,3.1,-2.6c3.8,-4.3,4.3,-13.4,2.4,-18.5C85.9,55.4,85.2,54.1,84.4,53c-.4,-.6,-.8,-1.1,-1.3,-1.6c-.5,-.6,-1,-.8,-1.5,-1.4l1.2,-1.6c2.5,-.1,4.7,.2,5.3,-2.1c.4,-1.5,1.1,-.9,1.8,-2.1c.5,-.8,.4,-2.2,-.5,-2.6c-.3,.6,-.6,2.6,-2.8,3.3C82.7,46.2,75.6,43,71.8,41.7c-3.1,-1,-6.9,-1.7,-10.5,-1C45.7,43.7,51.1,61.4,61,57.1c1.4,-.6,2.3,-1.6,2.7,-3.3C64.2,51.7,63.6,50,62.5,49C60.4,47.1,56,47.4,56.1,52.7Z" class="g2_1"/>
<path fill-rule="evenodd" d="M46.2,78.7c.6,1.1,2.5,1.1,3.8,.4c2,-1,1.5,-2.4,2.3,-2.8c.9,.7,.4,3.9,4,3.5c-.1,-1.1,-.8,-1.2,-1,-2.2c-.4,-2,2.2,-4.6,-2.2,-6.7c-2.7,-1.3,-.7,-3.7,.7,-2.4c.6,.5,.5,1.6,1.1,2.2c.6,.8,1.7,.5,2.8,.5c-.2,1.5,-1,2.2,-.2,4c.4,1.1,1.5,2.3,3,2.1c.4,-1.8,-.7,-3.4,-.4,-4c1.4,.2,.1,2.2,2.2,4.1c.7,.5,3.6,2.4,4.4,1.4c.8,-1,-1,-3.7,-1.6,-4.3C63.3,72.6,61.5,73.6,61,72.4c.7,-.5,4.1,1.5,4.1,-.2c.1,-.9,-1,-2,-1.8,-2.4c-1.8,-.9,-2.7,-.1,-4.3,.1c.2,-4.3,-1.1,-2.4,-2.6,-3.8c-1.6,-1.3,1,-3.6,2.3,-.8c2,4.4,4.7,1.9,6.7,2.2c1.2,.2,1.1,1,2.1,1c.4,-1.5,-.5,-3,-2.1,-3.4c-.8,-.3,-1,0,-1.3,-.7c.9,-1,1.9,-.2,2.9,-2.3c.6,-1.4,.6,-3.2,-.6,-3.7c-2.2,1.8,-.6,3.6,-6.5,3.3c-1.3,-.1,-3.1,.1,-4.3,.6c-2.3,.8,-1.5,1.6,-2.4,2.8c-.8,1,-3.8,.3,-3.7,6.6c0,2.8,.7,4.4,-2.6,6.3c-.5,.4,-.5,.2,-.7,.7Z" class="g2_1"/>
<path fill-rule="evenodd" d="M140,44V40.9H112.2c-3.3,0,-4.7,1.4,-5.4,4l-4.2,.1c-.6,-1.7,-1.9,-2.9,-3.7,-3.3c-5.3,-1.2,-7.3,5.2,-3.7,6.4c1.1,.3,2.2,.1,2.9,-.4c.9,-.7,.8,-1.4,.9,-2.6c1.5,.7,1.2,3.4,.1,4.6c-1.9,2.2,-6.4,3.4,-9.7,2.4c-2.9,-.9,-3,-1.9,-4.2,-2.3c.4,2.5,7.9,7.6,15,2.5c2.3,-1.6,2,-3,2.9,-4.4l5.5,-.1c.8,-3.8,.5,-3.9,4.8,-3.9Z" class="g2_1"/>
<path fill-rule="evenodd" d="M28.7,152.1h3V125.8c0,-3.9,-.1,-4.4,3.9,-4.9l.1,-5.6c.6,-.4,1.8,-.8,2.5,-1.1c3.3,-1.8,5.5,-8.4,2.9,-13.2c-.5,-1.1,-2.4,-3.6,-3.5,-3.6c.2,.9,4,4,2.2,9.8c-2,6.6,-6.4,5.3,-6.9,4c1.4,-.2,1.9,0,2.6,-.9c.5,-.8,.7,-2,.3,-3c-1.4,-3.7,-7.8,-1.2,-6.3,3.9c.6,2.2,1.6,2.8,3.3,3.7l-.1,4c-.7,.4,-1.8,.5,-2.9,1.7c-.9,1,-1.1,1.8,-1.1,3.5Z" class="g2_1"/>
<path fill-rule="evenodd" d="M92.3,69.1c-.3,-.5,-3,-1.7,-2.1,-3.5c1.2,.1,.8,1.2,2.6,.9c.3,-2.5,-.9,-2.8,-1.7,-3.3l.5,-.2c.4,-.1,.1,.1,.6,-.1C91.9,61.3,91,61.2,89.9,60.5C89.2,60,88.3,58.4,89,57.1c.8,.4,1.6,3.8,3.5,1.1c1.9,.8,1.3,1.8,4.7,1.6c5.2,-.3,4.4,.7,5.2,1.1c.7,-1.2,-.1,-1.5,-.8,-2c.9,-1.2,5.3,-2.3,7.4,-1.8c3.3,.9,1.7,3.8,-.1,3.2c-.7,-.2,-.6,-.8,-1.3,-1.1c-1,1.7,1.3,3.8,3.5,2.6c3,-1.8,1.4,-7.4,-5.4,-5.9c-1.4,.3,-4.6,1.7,-5.4,1.6c-.1,-1.5,.7,-1.4,-.1,-3.4c-1,.4,-.2,.5,-1.7,1.7c-2.4,2.1,-5.2,1.5,-7.7,0C87.5,53.9,84.2,50.1,82.9,50c.4,.8,2.1,2.2,3.3,4c3.3,5,.6,12.2,3.5,14.8c.6,.5,1.8,1,2.6,.3Z" class="g2_1"/>
<path fill-rule="evenodd" d="M41.9,112.3c1,1,2.2,.2,3.5,.2c-.1,1.2,-1.4,3.8,-1.7,5.4c-1.6,6.5,3.9,8.4,5.8,5.5c1.3,-2,-.5,-4.6,-2.5,-3.6c.2,.7,2.4,1.5,.6,2.9c-2.7,2.3,-4.3,-4.8,-1,-8.9l.2,.3c.4,.5,.6,1,1.9,.6c-.2,-.6,-.4,-.3,-.8,-.9c-.4,-.8,-.4,-3.4,-.3,-4.3c.2,-3.3,-.6,-2.8,-1.6,-4.7c0,0,2.4,-1.5,-.2,-2.9c-.6,-.3,-.7,-.2,-1,-.7c1.4,-.5,2.8,0,3.5,.8c.7,1.1,.7,2.2,2.4,2.4l.1,-1.1c.6,.5,.8,2.1,3.4,1.7c.5,-1.5,-.8,-1.6,-.8,-2.6c2.5,-.8,2.5,1.8,3.6,2c1.2,-2.1,-1.4,-3.4,-3,-3.7c-5.9,-1.3,-8.3,1.3,-14.3,-4c-.5,-.4,-1.5,-1.4,-2,-1.6c.1,2,10.8,9.7,6,15.5c-.5,.7,-1.5,1.2,-1.8,1.7Z" class="g2_1"/>
<path fill-rule="evenodd" d="M39.3,47c-.7,-.3,-2.8,-2.3,-4.8,-.2c-2,2,.1,4.1,.2,4.7c-1.2,.6,-2.6,.2,-2.7,2.3c-.1,1.8,1.1,2.3,1.5,3.5c-1.2,1,-1.4,1.4,0,3.3c4.2,5.6,2.2,-.6,2.2,-.8c-1,-6.9,4.6,-12.8,11.6,-12c1.2,.2,2.3,.8,3.5,.6c-.1,-1.1,-1.7,-2.1,-2.4,-2.7c-.5,-.3,-1.1,-.8,-1.7,-.9c-1,-.1,-1.2,.3,-1.6,.8c0,0,-.1,.1,-.1,.1C44,45.1,43.2,44,41.5,44.2c-2.2,.2,-1.7,1.9,-2.2,2.8Z" class="g2_1"/>
<path fill-rule="evenodd" d="M87.6,105c.8,-.5,.5,-.9,1.1,-1.4c.9,.4,.3,1.3,1.5,1.9c.7,.4,2.2,.5,2.9,0c.6,-.4,.6,-2,.3,-2.8c-.4,-1.3,-1.3,-.9,-2,-1.7c.5,-.9,.9,-.3,1.4,-1.3c-.6,-1.1,-1.9,-1,-3.5,-1.3C87.7,98.2,86.9,97.6,86,96.9C84.5,95.7,81.4,92.1,80.6,92.8c-1.3,1.2,4.8,4.2,5.6,8.7c.2,1.1,.1,3,1.4,3.5Z" class="g2_1"/>
<path fill-rule="evenodd" d="M140,47.6V46.4c-4.5,0,-9,0,-13.6,0c-3.9,0,-9.6,-.6,-12.1,1.5c-2.9,2.4,-2.2,7.7,2.9,7c1.9,-.2,3.3,-2,2.1,-3.9c-.8,-1.4,-4,-1.4,-3.5,1.8c.7,.6,.9,.1,1.2,.9c-2.1,1.2,-4.8,-2,-2.5,-4.5c1.8,-2,4.3,-1.6,7.4,-1.6c6,0,12.1,0,18.1,0Z" class="g2_1"/>
<path fill-rule="evenodd" d="M34.2,152.1h1.1c.1,-6,0,-12.1,0,-18.1c0,-3.2,-.3,-5.6,1.8,-7.4c2.1,-1.7,5.3,-.4,4.5,2.6c-1.3,-.3,-.1,-.6,-1.2,-1.1c-2.1,-1.1,-3.3,2.3,-1.7,3.4c1.9,1.2,3.8,-.2,4,-2.2c.6,-5.1,-4.7,-5.7,-7.1,-2.8c-2,2.5,-1.4,8.5,-1.4,12.2c0,4.5,0,8.9,0,13.4Z" class="g2_1"/>
<path fill-rule="evenodd" d="M45,54.4c-5,1.4,-3,8.9,2,7.7C52,60.9,50.1,53,45,54.4Zm0,1.3c-3.5,1.5,-1.2,6.5,2.1,5.1C50.4,59.4,48.3,54.2,45,55.7Z" class="g2_1"/>
<path fill-rule="evenodd" d="M62.5,47.5c1.4,.7,4.4,0,6,3c1,2,.8,5.6,2.2,6.7c1.4,-.6,.9,-1.3,1.7,-2.3c1.2,1.1,.5,2.2,-.2,3.3c-.3,.5,-1.3,3.5,-.5,3.8c.5,.3,3.6,-2.6,2.4,-6.7c-1.4,-5.1,-5.4,-7.9,-10.3,-8c-.2,0,-.5,0,-.7,0c-.5,.1,.1,-.2,-.6,.2Z" class="g2_1"/>
<path fill-rule="evenodd" d="M49.9,83.8c-4.4,-.6,-5.3,2.9,-7.2,.8c.8,-.8,1.9,-.3,2.2,-1.7C43.3,81.4,40.4,81.7,38.3,80.7c-3.3,-1.8,-2.2,-5,-3.1,-6c-1.1,2.6,1.2,8,4.5,10.1c6.2,3.9,10.1,.4,10.2,-1Z" class="g2_1"/>
<path fill-rule="evenodd" d="M74.1,95.5c.4,.4,.8,.3,1,.8c-2.4,1.6,-5.9,-1.8,-5.3,-7.9c.1,-1.2,.8,-3.3,.7,-4.1c-1.7,.8,-1.5,.3,-1.9,2.5c-2,11.6,7.2,13.7,9,9.7c1.7,-3.5,-3.7,-4.1,-3.5,-1Z" class="g2_1"/>
<path fill-rule="evenodd" d="M76.2,86.6l-.7,-.7c-1.4,-1.8,-3.7,-1,-2.4,1.2c.4,.7,1,.7,1.3,1.3c-4,.1,-3.1,3.2,-2.3,3.7c.4,-.1,.2,0,.4,-.3c.2,-.2,.2,-.3,.4,-.5c1.1,-1.2,3,-.2,4.3,-.5c.2,-.3,.3,-.6,.6,-.9c.4,-.4,.4,-.1,.9,-.7c.1,-1.1,-.4,-1.7,-.2,-2.9c.2,-1.4,1,-1.1,1.5,-1.9c-.4,-.8,-3.8,-1.9,-3.8,2.2Z" class="g2_1"/>
<path fill-rule="evenodd" d="M91.3,93.4C90.6,92.6,91.2,92,90,91.8c-.6,.9,-.7,1.5,-2,1.9c-1.2,.4,-2.8,-.3,-3.7,.3c.4,1.1,2.8,1.6,3.9,2c4.4,1.5,3.6,0,3.8,-1c1.6,-.4,3.4,-1.4,2.8,-3.5c-.9,.4,-2,1.7,-3.5,1.9Z" class="g2_1"/>
<path fill-rule="evenodd" d="M79.6,102.3c.3,1,.7,.6,1.6,1.1c0,1.5,-1.7,2.7,-1.8,3.6c1.2,.3,2.5,-.5,3,-1.4c.4,-.8,.1,-1.2,.8,-1.5c.6,-.2,2.4,.8,.2,-4.7C83,98.3,82.5,96.6,81.7,96.5c-.6,1.6,.9,3.8,-1.5,5.4c-.6,.3,-.2,-.1,-.6,.4Z" class="g2_1"/>
<path fill-rule="evenodd" d="M79.8,94.6c-.6,.8,.1,2.7,-1.9,4.3c-.9,.6,-1.3,.5,-2.3,.8c-1,.4,-1.2,1.3,-.4,1.8c1.9,1,4,-.5,4.5,-1.5c.6,-1.3,.7,-4.1,.1,-5.4Z" class="g2_1"/>
<path fill-rule="evenodd" d="M82.4,91.9c.3,.3,.1,.2,.6,.3c.2,.1,.5,.1,.7,.1c1.5,.2,3.5,.1,4.6,-.8c1.2,-.9,2.3,-4.8,-.4,-4.5c-.7,1.1,-.6,2.5,-1.7,3.5c-1.4,1.4,-1.9,.9,-3.8,1.4Z" class="g2_1"/>
<path d="M131.1,42.4h660" class="g3_1"/>
<path fill-rule="evenodd" d="M880.7,78.9c-.2,1.3,-.8,3.9,-1.4,5.7c-1.5,4.1,-5.9,13.9,-1.1,16.4c.6,.4,1,.2,1.4,.7c-.5,.6,-1.6,1,-2.6,.4c-1,-.7,-.6,-1.4,-1.9,-1.7c-2.5,-.7,-2.1,-2.6,-2.3,-5.3c-.4,-.5,-.3,-.2,-.7,-.6c-.5,-.4,-.2,-.4,-.8,-.7c-1.1,.7,-4.6,7.1,-16.8,5.8C843.3,98.3,841.2,90,843.8,88.9c.3,.5,.1,.3,.3,.8c.2,.6,.3,.3,.6,.8c.5,.9,-.1,1.3,.7,2c0,-.1,.1,-.2,.1,-.1l1.1,-1.7c1.5,.8,1.1,3.1,2.1,4.6c.7,1.1,2.1,2.5,4,2.5c-.3,-.7,-1.5,-1.4,-2,-2.3c-.6,-.8,-1,-2.5,-.1,-3.2l.4,1.5c1.3,.2,2,-.1,3.1,.5c1.9,1,2.7,3.7,8.3,3c-.6,-.6,-1.9,-.4,-3,-1.1c-.6,-.4,-1.8,-1.4,-1.7,-2.3c2.7,-.9,3,.4,4,.4c-.1,-.7,-.2,-.6,.1,-1.3c1.2,-.1,2.3,1,3.6,1.2c1.5,.2,3.4,-.1,4.2,-.9c-.6,-.4,-1.5,0,-1.7,-1.4c1.8,.2,2.1,.3,3.6,-.5c2.6,-1.3,5,-5,5.8,-7.8l-.9,-.6c.3,-1.7,1.7,-1.1,2.3,-3.2c.4,-1.6,.1,-3.7,-.4,-5.1c-.1,.2,-.9,3.4,-1.3,4.1c-.4,1,-1.6,3.1,-1.7,3.9c-.1,1.5,.4,1.8,-1.5,3.8c-1.9,2,-7.7,6.6,-10.7,5.3c-3.1,-1.5,-1.5,1.6,-9.3,-.5C844.5,88.8,839.9,81.3,830.3,82c-1.6,.2,-3.2,.6,-4.2,1.4c-.9,.7,-2.1,2.3,-1.1,3.9c.3,-.1,.3,-.6,.6,-.9c2.4,-.4,2.9,3.1,.8,3.6c-2.2,.5,-3.5,-1.4,-3.5,-3.5c0,-3.7,4.2,-6.1,8.1,-6.1c4.2,0,7.9,1.4,11,3.1c2.4,1.2,7.2,4,9.3,4.7c8,2.7,15.2,2.8,20.7,-3.8c1.8,-2.2,4.2,-6.1,3.8,-10.1c-.5,-4.7,-4,-7.7,-7.3,-6.3c.7,.6,3.9,-.3,4.7,3.3c.5,2.4,-1.3,4.2,-3.2,4.7c-5,1.1,-8,-4.2,-5.8,-8.5c1.5,-3.1,6.7,-5.4,10.9,-2.7c1.4,.9,3.1,2.5,3.9,4c1.3,2.3,1.3,4.4,1.7,5.7c.4,2.8,-.1,4.3,0,4.4Z" class="g2_1"/>
<path fill-rule="evenodd" d="M852.9,52.7c2.3,-1.2,-.9,-9,-9.4,-7c-1.9,.4,-4.7,2,-6,3c-1.8,1.4,-3.1,2.8,-4.3,4.9c-2.9,5.1,-2.1,9.2,-.6,15.1c.7,2.5,1.7,4.2,2.8,6.2c.8,1.5,2.8,4.7,3.2,6.1c-2.6,-.3,-2.3,-1,-4.1,-4.1c-1,-1.7,-2.1,-3.3,-3,-5.2c-1,-2.1,-2.8,-7.2,-2.3,-9.8c.2,-1.1,1,-2,.4,-3.4c-.6,-1.6,-.7,-1.7,-.1,-3.4c1,-2.9,5.2,-8.6,7.4,-9.1c1.8,-.5,1.3,.4,3.4,-.8c1,-.5,1.8,-.9,2.9,-1.3c.8,-.3,2.7,-.6,3.2,-.9c-.9,-.7,-3.3,-.8,-4.6,-.5c-2.5,.5,-1.8,2,-3.5,2.3c-.6,-.5,-.2,-.3,-.5,-.9c-2.3,.5,-4.4,2.1,-5.8,3.2c-.7,.6,-1.6,1.5,-2.1,2.5c-.9,1.7,-.7,1.9,-.5,3.7c-1.3,-.1,-1,-.6,-1.4,-1.7c-.9,.5,-1.1,2.6,-1,3.9c.2,1.5,1.4,2.9,1.1,4l-1.2,.1c.2,1.4,1.2,.4,.5,4c-2.6,-.1,-2.9,-4.1,-3.4,-4.7c-.9,1.7,.1,4.9,1.6,6.6c2.9,3.3,1.2,2.7,1.8,4.4c.2,.7,.2,.3,1.2,.7l.3,.1c-2.2,2,-4.5,-1.7,-5.5,-2.2c.2,4.7,5.7,5,6.1,5.2l1,.8c-.6,1.1,-1.4,.8,-1.8,1.4c.9,.6,1.3,.2,2,.6c.5,.3,.3,.3,.6,.6l1.1,.4c-.8,1.1,-3,1,-4.4,.3c-1.3,-.6,-2.3,-1.7,-3.1,-2.6c-3.8,-4.3,-4.3,-13.4,-2.3,-18.5c.5,-1.3,1.3,-2.6,2,-3.7c.4,-.6,.9,-1.1,1.3,-1.6c.6,-.6,1,-.8,1.5,-1.4l-1.1,-1.6c-2.6,-.1,-4.8,.2,-5.4,-2.1c-.4,-1.5,-1.1,-.9,-1.8,-2.1c-.5,-.8,-.4,-2.2,.6,-2.6c.3,.6,.5,2.6,2.7,3.3c3.9,1.3,11.1,-1.9,14.8,-3.2c3.1,-1,6.9,-1.7,10.6,-1c15.5,3,10.1,20.7,.2,16.4c-1.4,-.6,-2.3,-1.6,-2.7,-3.3c-.5,-2.1,.2,-3.8,1.2,-4.8c2.1,-1.9,6.5,-1.6,6.4,3.7Z" class="g2_1"/>
<path fill-rule="evenodd" d="M862.9,78.7c-.7,1.1,-2.5,1.1,-3.8,.4c-2.1,-1,-1.5,-2.4,-2.4,-2.8c-.9,.7,-.4,3.9,-4,3.5c.1,-1.1,.9,-1.2,1,-2.2c.4,-2,-2.2,-4.6,2.2,-6.7c2.7,-1.3,.8,-3.7,-.7,-2.4c-.6,.5,-.5,1.6,-1,2.2c-.7,.8,-1.7,.5,-2.8,.5c.1,1.5,.9,2.2,.1,4c-.4,1.1,-1.5,2.3,-3,2.1c-.4,-1.8,.7,-3.4,.4,-4c-1.4,.2,-.1,2.2,-2.2,4.1c-.7,.5,-3.5,2.4,-4.4,1.4c-.8,-1,1.1,-3.7,1.6,-4.3c1.8,-1.9,3.6,-.9,4.1,-2.1c-.7,-.5,-4,1.5,-4.1,-.2c0,-.9,1.1,-2,1.9,-2.4c1.7,-.9,2.6,-.1,4.2,.1c-.2,-4.3,1.1,-2.4,2.7,-3.8c1.5,-1.3,-1.1,-3.6,-2.4,-.8c-2,4.4,-4.7,1.9,-6.6,2.2c-1.2,.2,-1.2,1,-2.2,1c-.4,-1.5,.6,-3,2.1,-3.4c.8,-.3,1,0,1.4,-.7c-1,-1,-2,-.2,-3,-2.3c-.5,-1.4,-.5,-3.2,.6,-3.7c2.3,1.8,.6,3.6,6.5,3.3c1.4,-.1,3.1,.1,4.4,.6c2.2,.8,1.4,1.6,2.3,2.8c.8,1,3.9,.3,3.8,6.6c-.1,2.8,-.8,4.4,2.5,6.3c.6,.4,.5,.2,.8,.7Z" class="g2_1"/>
<path fill-rule="evenodd" d="M769,44V40.9h27.9c3.2,0,4.6,1.4,5.4,4l4.1,.1c.6,-1.7,1.9,-2.9,3.7,-3.3c5.4,-1.2,7.4,5.2,3.7,6.4c-1,.3,-2.2,.1,-2.8,-.4c-1,-.7,-.8,-1.4,-.9,-2.6c-1.6,.7,-1.2,3.4,-.2,4.6c1.9,2.2,6.4,3.4,9.8,2.4c2.9,-.9,2.9,-1.9,4.2,-2.3c-.4,2.5,-8,7.6,-15.1,2.5c-2.2,-1.6,-2,-3,-2.9,-4.4l-5.5,-.1c-.8,-3.8,-.4,-3.9,-4.8,-3.9Z" class="g2_1"/>
<path fill-rule="evenodd" d="M880.3,152.1h-3V125.8c0,-3.9,.2,-4.4,-3.9,-4.9l-.1,-5.6c-.6,-.4,-1.8,-.8,-2.5,-1.1c-3.2,-1.8,-5.4,-8.4,-2.9,-13.2c.6,-1.1,2.4,-3.6,3.5,-3.6c-.2,.9,-4,4,-2.2,9.8c2,6.6,6.4,5.3,6.9,4c-1.4,-.2,-1.9,0,-2.6,-.9c-.4,-.8,-.7,-2,-.3,-3c1.4,-3.7,7.8,-1.2,6.4,3.9c-.6,2.2,-1.7,2.8,-3.3,3.7v4c.7,.4,1.8,.5,2.9,1.7c.9,1,1.1,1.8,1.1,3.5Z" class="g2_1"/>
<path fill-rule="evenodd" d="M816.8,69.1c.2,-.5,3,-1.7,2,-3.5c-1.1,.1,-.8,1.2,-2.6,.9c-.3,-2.5,.9,-2.8,1.7,-3.3l-.5,-.2c-.4,-.1,-.1,.1,-.5,-.1c.2,-1.6,1.2,-1.7,2.2,-2.4c.7,-.5,1.6,-2.1,.9,-3.4c-.8,.4,-1.5,3.8,-3.5,1.1c-1.9,.8,-1.3,1.8,-4.7,1.6c-5.1,-.3,-4.4,.7,-5.2,1.1c-.7,-1.2,.1,-1.5,.9,-2c-1,-1.2,-5.3,-2.3,-7.5,-1.8c-3.3,.9,-1.7,3.8,.1,3.2c.8,-.2,.6,-.8,1.3,-1.1c1,1.7,-1.3,3.8,-3.5,2.6c-3,-1.8,-1.4,-7.4,5.4,-5.9c1.4,.3,4.6,1.7,5.5,1.6c0,-1.5,-.7,-1.4,0,-3.4c1,.4,.2,.5,1.7,1.7c2.4,2.1,5.2,1.5,7.7,0c3.3,-1.9,6.6,-5.7,7.9,-5.8c-.4,.8,-2.1,2.2,-3.3,4c-3.3,5,-.6,12.2,-3.5,14.8c-.6,.5,-1.8,1,-2.5,.3Z" class="g2_1"/>
<path fill-rule="evenodd" d="M867.1,112.3c-1,1,-2.2,.2,-3.4,.2c0,1.2,1.3,3.8,1.7,5.4c1.5,6.5,-4,8.4,-5.9,5.5c-1.2,-2,.5,-4.6,2.5,-3.6c-.1,.7,-2.3,1.5,-.6,2.9c2.7,2.3,4.3,-4.8,1.1,-8.9l-.3,.3c-.4,.5,-.6,1,-1.8,.6c.1,-.6,.3,-.3,.7,-.9c.5,-.8,.4,-3.4,.4,-4.3c-.3,-3.3,.5,-2.8,1.6,-4.7c-.1,0,-2.5,-1.5,.1,-2.9c.7,-.3,.8,-.2,1,-.7c-1.4,-.5,-2.8,0,-3.4,.8c-.8,1.1,-.8,2.2,-2.5,2.4l-.1,-1.1c-.5,.5,-.8,2.1,-3.4,1.7c-.5,-1.5,.8,-1.6,.8,-2.6c-2.5,-.8,-2.5,1.8,-3.6,2c-1.1,-2.1,1.4,-3.4,3,-3.7c5.9,-1.3,8.4,1.3,14.3,-4c.5,-.4,1.5,-1.4,2,-1.6c-.1,2,-10.8,9.7,-6,15.5c.6,.7,1.5,1.2,1.8,1.7Z" class="g2_1"/>
<path fill-rule="evenodd" d="M869.8,47c.6,-.3,2.7,-2.3,4.7,-.2c2,2,0,4.1,-.2,4.7c1.2,.6,2.6,.2,2.7,2.3c.2,1.8,-1,2.3,-1.4,3.5c1.1,1,1.4,1.4,-.1,3.3c-4.2,5.6,-2.2,-.6,-2.1,-.8c1,-6.9,-4.7,-12.8,-11.7,-12c-1.2,.2,-2.3,.8,-3.4,.6c0,-1.1,1.6,-2.1,2.3,-2.7c.5,-.3,1.1,-.8,1.7,-.9c1,-.1,1.2,.3,1.6,.8c.1,0,.1,.1,.1,.1c1,-.6,1.8,-1.7,3.5,-1.5c2.2,.2,1.7,1.9,2.3,2.8Z" class="g2_1"/>
<path fill-rule="evenodd" d="M821.4,105c-.8,-.5,-.4,-.9,-1,-1.4c-.9,.4,-.4,1.3,-1.6,1.9c-.7,.4,-2.2,.5,-2.8,0c-.7,-.4,-.7,-2,-.4,-2.8c.5,-1.3,1.4,-.9,2,-1.7c-.5,-.9,-.9,-.3,-1.4,-1.3c.6,-1.1,1.9,-1,3.5,-1.3c1.6,-.2,2.4,-.8,3.3,-1.5c1.5,-1.2,4.6,-4.8,5.4,-4.1c1.3,1.2,-4.8,4.2,-5.6,8.7c-.2,1.1,0,3,-1.4,3.5Z" class="g2_1"/>
<path fill-rule="evenodd" d="M769,47.6V46.4c4.5,0,9.1,0,13.6,0c3.9,0,9.6,-.6,12.2,1.5c2.8,2.4,2.1,7.7,-2.9,7c-2,-.2,-3.3,-2,-2.2,-3.9c.9,-1.4,4,-1.4,3.5,1.8c-.7,.6,-.9,.1,-1.2,.9c2.1,1.2,4.8,-2,2.5,-4.5c-1.8,-2,-4.2,-1.6,-7.4,-1.6c-6,0,-12.1,0,-18.1,0Z" class="g2_1"/>
<path fill-rule="evenodd" d="M874.8,152.1h-1.1c0,-6,0,-12.1,0,-18.1c0,-3.2,.3,-5.6,-1.7,-7.4c-2.1,-1.7,-5.3,-.4,-4.6,2.6c1.3,-.3,.1,-.6,1.2,-1.1c2.2,-1.1,3.3,2.3,1.7,3.4c-1.8,1.2,-3.8,-.2,-4,-2.2c-.5,-5.1,4.7,-5.7,7.1,-2.8c2.1,2.5,1.4,8.5,1.4,12.2c0,4.5,0,8.9,0,13.4Z" class="g2_1"/>
<path fill-rule="evenodd" d="M864,54.4c5.1,1.4,3.1,8.9,-2,7.7c-5,-1.2,-3.1,-9.1,2,-7.7Zm.1,1.3c3.5,1.5,1.2,6.5,-2.2,5.1c-3.3,-1.4,-1.2,-6.6,2.2,-5.1Z" class="g2_1"/>
<path fill-rule="evenodd" d="M846.5,47.5c-1.3,.7,-4.4,0,-5.9,3c-1,2,-.9,5.6,-2.3,6.7c-1.4,-.6,-.9,-1.3,-1.6,-2.3c-1.2,1.1,-.6,2.2,.1,3.3c.4,.5,1.3,3.5,.5,3.8c-.5,.3,-3.6,-2.6,-2.4,-6.7c1.4,-5.1,5.4,-7.9,10.3,-8c.2,0,.6,0,.7,0c.5,.1,-.1,-.2,.6,.2Z" class="g2_1"/>
<path fill-rule="evenodd" d="M859.2,83.8c4.3,-.6,5.2,2.9,7.1,.8c-.8,-.8,-1.8,-.3,-2.2,-1.7c1.6,-1.5,4.6,-1.2,6.6,-2.2c3.3,-1.8,2.2,-5,3.1,-6c1.1,2.6,-1.2,8,-4.5,10.1c-6.2,3.9,-10,.4,-10.1,-1Z" class="g2_1"/>
<path fill-rule="evenodd" d="M834.9,95.5c-.4,.4,-.7,.3,-1,.8c2.4,1.6,5.9,-1.8,5.3,-7.9c-.1,-1.2,-.8,-3.3,-.7,-4.1c1.7,.8,1.6,.3,1.9,2.5c2.1,11.6,-7.2,13.7,-9,9.7c-1.7,-3.5,3.7,-4.1,3.5,-1Z" class="g2_1"/>
<path fill-rule="evenodd" d="M832.8,86.6l.7,-.7c1.4,-1.8,3.8,-1,2.4,1.2c-.4,.7,-.9,.7,-1.3,1.3c4.1,.1,3.1,3.2,2.3,3.7c-.4,-.1,-.1,0,-.4,-.3c-.2,-.2,-.2,-.3,-.4,-.5c-1,-1.2,-2.9,-.2,-4.3,-.5c-.2,-.3,-.2,-.6,-.6,-.9c-.4,-.4,-.4,-.1,-.8,-.7c-.2,-1.1,.3,-1.7,.1,-2.9c-.2,-1.4,-.9,-1.1,-1.4,-1.9c.4,-.8,3.7,-1.9,3.7,2.2Z" class="g2_1"/>
<path fill-rule="evenodd" d="M817.7,93.4c.7,-.8,.1,-1.4,1.3,-1.6c.6,.9,.7,1.5,2,1.9c1.2,.4,2.8,-.3,3.7,.3c-.4,1.1,-2.7,1.6,-3.9,2c-4.3,1.5,-3.5,0,-3.7,-1c-1.7,-.4,-3.5,-1.4,-2.9,-3.5c.9,.4,2,1.7,3.5,1.9Z" class="g2_1"/>
<path fill-rule="evenodd" d="M829.5,102.3c-.4,1,-.7,.6,-1.7,1.1c.1,1.5,1.7,2.7,1.8,3.6c-1.2,.3,-2.5,-.5,-2.9,-1.4c-.5,-.8,-.1,-1.2,-.8,-1.5c-.7,-.2,-2.5,.8,-.3,-4.7c.5,-1.1,.9,-2.8,1.7,-2.9c.6,1.6,-.9,3.8,1.5,5.4c.6,.3,.3,-.1,.7,.4Z" class="g2_1"/>
<path fill-rule="evenodd" d="M829.2,94.6c.7,.8,0,2.7,2,4.3c.8,.6,1.2,.5,2.2,.8c1.1,.4,1.2,1.3,.4,1.8c-1.9,1,-3.9,-.5,-4.4,-1.5c-.7,-1.3,-.8,-4.1,-.2,-5.4Z" class="g2_1"/>
<path fill-rule="evenodd" d="M826.6,91.9c-.3,.3,0,.2,-.5,.3c-.2,.1,-.6,.1,-.8,.1c-1.5,.2,-3.4,.1,-4.6,-.8c-1.2,-.9,-2.3,-4.8,.4,-4.5c.7,1.1,.6,2.5,1.7,3.5c1.4,1.4,2,.9,3.8,1.4Z" class="g2_1"/>
<path d="M137.6,47H769.2" class="g4_1"/>
<path d="M30.2,150.8v1006" class="g3_1"/>
<path d="M34.8,150.2V1153.4" class="g4_1"/>
<path d="M878.8,150.9v1006" class="g3_1"/>
<path d="M874.2,150.3V1153.5" class="g4_1"/>
<path fill-rule="evenodd" d="M58.5,190.7h1.1c1,0,1.6,.5,1.6,1.5c0,.9,-.6,1.4,-1.6,1.4H58.5Zm0,8.6v-4.1h.9c2.6,0,3.8,-1.1,3.8,-3c0,-2,-1.2,-3.1,-3.8,-3.1H56.5v10.2Z" class="g5_1"/>
<path fill-rule="evenodd" d="M69.1,192c0,-1.1,.5,-1.5,1.3,-1.5c.9,0,1.3,.4,1.3,1.5v4.1c0,1.2,-.4,1.5,-1.3,1.5c-.8,0,-1.3,-.3,-1.3,-1.5Zm-2,3.9c0,2.5,1.4,3.4,3.3,3.4c2,0,3.4,-.9,3.4,-3.4v-3.7c0,-2.5,-1.4,-3.4,-3.4,-3.4c-1.9,0,-3.3,.9,-3.3,3.4Z" class="g5_1"/>
<path fill-rule="evenodd" d="M79.7,199.3h2l1.6,-7l1.5,7h2l2.4,-10.2H87.3l-1.5,6.7l-1.5,-6.7h-2l-1.4,6.7h-.1l-1.4,-6.7H77.5Z" class="g5_1"/>
<path fill-rule="evenodd" d="M98.8,199.3v-1.7H95.1v-2.7h2.7v-1.7H95.1v-2.3h3.5v-1.8H93.1v10.2Z" class="g5_1"/>
<path fill-rule="evenodd" d="M105.1,190.7h1.1c.9,0,1.4,.4,1.4,1.4c0,1,-.5,1.4,-1.4,1.4h-1.1Zm5,8.6L108,194.8c1.2,-.4,1.6,-1.4,1.6,-2.6c0,-2,-1.1,-3.1,-3.6,-3.1h-2.9v10.2h2v-4.1h1l1.8,4.1Z" class="g5_1"/>
<path fill-rule="evenodd" d="M122.6,192c0,-1.1,.5,-1.5,1.3,-1.5c.8,0,1.4,.4,1.4,1.5v4.1c0,1.2,-.6,1.5,-1.4,1.5c-.8,0,-1.3,-.3,-1.3,-1.5Zm-2.1,3.9c0,2.5,1.4,3.4,3.4,3.4c2,0,3.4,-.9,3.4,-3.4v-3.7c0,-2.5,-1.4,-3.4,-3.4,-3.4c-2,0,-3.4,.9,-3.4,3.4Z" class="g5_1"/>
<path fill-rule="evenodd" d="M133.6,199.3v-4.4h2.6v-1.7h-2.6v-2.3h3.3v-1.8h-5.3v10.2Z" class="g5_1"/>
<path fill-rule="evenodd" d="M153.9,191.3c-.4,-1.5,-1.5,-2.5,-3.3,-2.5c-2.1,0,-3.2,1.1,-3.2,2.9c0,2.9,4.5,2.9,4.5,4.8c0,.8,-.5,1.2,-1.2,1.2c-.6,0,-1.4,-.4,-1.6,-1.7l-2,.4c.5,2.1,1.8,2.9,3.5,2.9c2.1,0,3.4,-1.1,3.4,-2.9c0,-3.2,-4.6,-3.3,-4.6,-4.8c0,-.7,.4,-1.2,1.2,-1.2c.6,0,1.1,.5,1.4,1.4Z" class="g5_1"/>
<path fill-rule="evenodd" d="M160.1,199.3V189.1h-2v10.2Z" class="g5_1"/>
<path fill-rule="evenodd" d="M166,199.3v-8l2.2,8h1.5l2.2,-8v8h1.8V189.1h-2.9l-1.8,6.7h-.1l-1.8,-6.7h-2.8v10.2Z" class="g5_1"/>
<path fill-rule="evenodd" d="M179.7,190.7h1.1c1,0,1.5,.5,1.5,1.5c0,.9,-.5,1.4,-1.5,1.4h-1.1Zm0,8.6v-4.1h.9c2.5,0,3.7,-1.1,3.7,-3c0,-2,-1.2,-3.1,-3.7,-3.1h-2.9v10.2Z" class="g5_1"/>
<path fill-rule="evenodd" d="M193,199.3v-1.7h-3.3v-8.5h-2v10.2Z" class="g5_1"/>
<path fill-rule="evenodd" d="M198.6,199.3V189.1h-2.1v10.2Z" class="g5_1"/>
<path fill-rule="evenodd" d="M204.4,192c0,-1.1,.6,-1.5,1.4,-1.5c.8,0,1.3,.4,1.3,1.5v.3h2v-.1c0,-2.5,-1.3,-3.4,-3.3,-3.4c-2,0,-3.4,.9,-3.4,3.4v3.7c0,2.5,1.4,3.4,3.4,3.4c2,0,3.3,-.9,3.3,-3.4v-.4h-2v.6c0,1.2,-.5,1.5,-1.3,1.5c-.8,0,-1.4,-.3,-1.4,-1.5Z" class="g5_1"/>
<path fill-rule="evenodd" d="M215.6,199.3V189.1h-2v10.2Z" class="g5_1"/>
<path fill-rule="evenodd" d="M219.3,189.1v1.8h2.4v8.4h2v-8.4h2.4v-1.8Z" class="g5_1"/>
<path fill-rule="evenodd" d="M231.2,189.1h-2.1l2.9,6.1v4.1h2v-4.1l2.9,-6.1h-2.1l-1.8,4.1Z" class="g5_1"/>
<path fill-rule="evenodd" d="M129.6,155.8c1.4,-.9,4.4,-4.5,4.6,-4.9c.2,-.3,.8,-.9,.1,-1.5c-.7,-.7,-1.3,-.3,-2,.1c-.8,.3,-4.2,2.9,-5.5,3.9c-1.2,1,-4.4,3.8,-4.4,3.8c0,0,-1.7,1.5,-1.1,2.2c.6,.8,1.2,.5,2.1,.3c.9,-.3,4.8,-2.9,6.2,-3.9Zm70.8,18c.4,.2,1.6,.6,1.5,1.7c0,0,-1.1,2.2,-1.4,2.4c-.5,.2,-1.2,.2,-2.9,-.5c-1.7,-.7,-9.4,-2.6,-11.5,-3c-2,-.5,-6.7,-1.2,-6.7,-1.2c0,0,-.6,-.4,-1.6,1.1c-.9,1.5,-4,5.9,-4,5.9c0,0,-.2,.6,-.8,.6c-.6,0,-3,-.1,-3.9,-.6c-1,-.5,-1.2,-.5,-.7,-1.5c.6,-.9,2.8,-5.2,3.7,-6c.8,-.9,-.6,-.7,-1.1,-.8c-.4,-.1,-9.7,-.6,-12.5,-.5c-2.6,.1,-12.3,.1,-15.8,.3c-3.4,.2,-15.9,1.4,-19.3,1.9c-3.3,.5,-16.7,2.5,-18.5,2.8c-1.8,.4,-5.5,1,-5.5,1c0,0,-1.7,.5,-3.5,-.3c-1.8,-.8,-4.7,-2,-2.3,-2.7c2.5,-.8,14.4,-3.2,18.1,-3.7c3.7,-.6,15.2,-2.2,20.1,-2.5c4.9,-.3,17.9,-1,22.9,-1c4.9,.1,11.7,.4,14.6,.6c2.9,.3,4.8,.4,5.4,.5c.5,.1,.6,-.4,1.1,-1c.6,-.7,2.4,-3.1,2.4,-3.1c0,0,.6,-.9,-.5,-.1c-1.2,.8,-3,.8,-4,-.1c-.9,-.9,-1.4,-1.7,-1.8,-1.4c-.4,.3,-2.2,1.1,-3.1,1.4c-1,.4,-5.1,1.3,-7.5,-.3c-2.4,-1.7,-2.5,-2.3,-2.8,-3.2c-.3,-.7,-.5,-.7,-1.3,-.2c-.8,.5,-3.5,1.9,-4.6,2.3c-1,.5,-1.7,.9,-3.3,.7c-1.6,-.1,-3.4,-.6,-4.1,-1.8c-.7,-1.3,-.8,-2.3,-1.7,-1.7c-.9,.6,-5.3,3.2,-7.7,3.9c-2.4,.7,-3,1,-4.3,.7c-1.4,-.2,-2.8,-.7,-3.4,-1.6c-.5,-.8,-.6,-1,-1.2,-.5c-.6,.5,-2.3,1.8,-3.6,1.7c-1.3,-.2,-4.6,-1,-6.5,-4.3c-1.8,-3.4,-.5,-4.8,1.2,-6.5c1.6,-1.7,4.5,-4.2,4.5,-4.2c0,0,3.6,-2.7,4.8,-3.2c1.2,-.6,3.2,-1.7,4.4,-1.8c1.3,-.1,3.1,0,4.8,1.4c1.8,1.4,2.8,3,3,3.5c.2,.6,1,2.6,-.2,4c-1.3,1.4,-4.9,4.7,-4.9,4.7c0,0,-1.4,.9,-.8,1.8c.7,1.1,3,-.6,3.8,-1.1c.8,-.6,4.9,-4.1,6.2,-5.2c1.2,-1.3,9.3,-9.1,10.1,-9.8c.7,-.8,7.3,-7.4,8.3,-8c.9,-.6,1.3,-1.1,3.1,-.7c1.8,.3,2.9,.9,2.9,.9c0,0,1.9,.8,.4,1.9c-1.5,1.2,-6.6,5.4,-7.8,6.7c-1.3,1.3,-5,5,-6.1,6.3c-1.2,1.4,-4.5,5.3,-5,6.1c-.6,.8,-.8,1.6,0,2.2c.8,.5,2.2,-.1,3.7,-1.3c1.5,-1.2,5.8,-5,7.4,-6.5c1.5,-1.5,9.9,-9.5,10.6,-10.2c.8,-.6,4.6,-3.7,4.6,-3.7c0,0,.5,-.6,1.6,-.6c1.2,0,2.3,.2,3,.4c.7,.3,1.9,1,1.9,1c0,0,.8,.4,-.5,1.4c-1.4,1,-8.2,6.4,-10.1,8.5c-1.9,2,-5.6,6.1,-7,8c-1.4,1.9,-2.4,2.7,-1.3,4c1.1,1.2,2.3,1,3,.8c.6,-.3,2.8,-1.8,4.3,-3.4c1.6,-1.6,6.5,-6.8,7,-7.4c.5,-.6,2.3,-2.4,2.3,-2.4c0,0,.3,-.7,1.3,-.7c1.1,0,1.7,.1,2.7,.3c1.1,.2,3.3,.7,2,1.9c-1.3,1.3,-4.3,4.4,-4.9,5.2c-.7,.8,-3.2,3.6,-3.7,4.4c-.5,.9,-1.1,1.8,-.5,2.2c.7,.4,2.3,-.1,4,-1c1.6,-.9,4,-2.5,6.1,-4.4c2.1,-1.8,5.5,-4.9,5.5,-4.9c0,0,.6,-1.3,3,-.7c2.4,.5,3,.8,3,.8c0,0,1.9,.5,.6,1.6c-1.2,1.2,-5.4,4.9,-7,6.4c-1.6,1.6,-6.5,6.6,-7.4,7.5c-.8,1,-3.1,3.2,-2.2,3.4c1,.1,8.2,1.4,10,1.9c1.7,.5,7.4,2.4,7.9,2.6ZM118,134.2c0,0,-2,-.3,-4.3,0c-2.3,.2,-9.4,1,-10.8,1.5c-1.3,.6,-2.3,-.7,-2.8,-1.3c-.6,-.5,-1.9,-1.9,-1.9,-1.9c0,0,-.7,-.8,.5,-1.1c1.3,-.2,8.4,-1.5,10.7,-1.7c2.2,-.2,13.1,-.8,16,-.8c2.9,0,13,.6,15.6,1.3c0,0,.5,-.2,1.1,1.1c.5,1.3,.4,2.5,.4,2.5c0,0,.5,1,-1.3,.9c-1.9,-.2,-4.9,-.4,-7,-.5c-2.1,-.1,-7.1,-.5,-7.8,-.4c-.7,0,-.9,0,-1.4,.5c-.4,.7,-2.4,3.2,-2.9,3.9c-.4,.6,-2.5,3.3,-4.3,5.7c-1.8,2.3,-4,5.3,-6,8.5c-1.9,3.1,-3.8,6,-4.5,7.4c-.8,1.2,-1.1,2.1,-1.2,2.4c-.2,.3,-.3,.8,-1.2,.9c-.9,0,-5.1,-.1,-5.1,-.1c0,0,-1.7,.1,-.7,-1.9c1.1,-2,3.5,-5.9,4.5,-7.5c1,-1.5,6.3,-8.7,7.3,-10c.9,-1.3,7.1,-9.4,7.1,-9.4Z" class="g6_1"/>
<path fill-rule="evenodd" d="M129,154.3c1.4,-1,4.4,-4.6,4.6,-4.9c.2,-.3,.8,-.9,.1,-1.6c-.7,-.6,-1.2,-.3,-2,.1c-.7,.4,-4.2,3,-5.5,4c-1.2,1,-4.3,3.7,-4.3,3.7c0,0,-1.8,1.5,-1.2,2.3c.6,.8,1.2,.5,2.1,.2c1,-.2,4.8,-2.8,6.2,-3.8Zm-4.1,-26.9H124c-3.8,0,-13.1,.6,-15.2,.7c-2.2,.3,-9.4,1.5,-10.7,1.8c-1.3,.3,-.5,1.1,-.5,1.1c0,0,1.3,1.4,1.9,2c.5,.5,1.5,1.8,2.9,1.2c1.4,-.6,8.4,-1.2,10.7,-1.6c2.3,-.2,4.3,.1,4.3,.1c0,0,-6.1,8,-7.1,9.4c-1,1.3,-6.2,8.5,-7.2,10c-1.1,1.5,-3.5,5.5,-4.6,7.5c-1.1,2,.7,1.9,.7,1.9c0,0,4.2,.1,5.1,.1c.9,-.1,1.1,-.7,1.2,-1c.1,-.3,.5,-1.1,1.2,-2.4c.8,-1.3,2.5,-4.2,4.5,-7.3c2,-3.1,4.2,-6.2,6,-8.6c1.8,-2.3,3.9,-5.1,4.4,-5.7c.5,-.6,2.5,-3.2,2.9,-3.7c.4,-.7,.6,-.6,1.3,-.7c.8,0,5.8,.3,7.8,.5c2.1,.2,5.1,.3,7,.4c1.9,.2,1.3,-.8,1.3,-.8c0,0,.1,-1.2,-.4,-2.5c-.6,-1.3,-1.1,-1.1,-1.1,-1.1c-2.7,-.8,-12.7,-1.3,-15.5,-1.3Zm74.9,44.9c.4,.3,1.6,.6,1.5,1.6c0,0,-1,2.3,-1.5,2.5c-.4,.1,-1.1,.1,-2.8,-.6c-1.7,-.6,-9.3,-2.6,-11.4,-2.9c-2.1,-.5,-6.8,-1.3,-6.8,-1.3c0,0,-.6,-.3,-1.6,1.2c-1,1.5,-4,5.9,-4,5.9c0,0,-.2,.6,-.7,.6c-.6,0,-3.1,-.2,-4,-.7c-1,-.4,-1.2,-.4,-.6,-1.4c.5,-1,2.7,-5.2,3.5,-6.1c1,-.8,-.5,-.6,-1,-.7c-.5,-.1,-9.7,-.6,-12.4,-.5c-2.8,0,-12.4,0,-15.8,.2c-3.5,.3,-16.1,1.4,-19.4,2c-3.3,.5,-16.7,2.5,-18.5,2.8c-1.8,.4,-5.4,1,-5.4,1c0,0,-1.9,.5,-3.6,-.4c-1.8,-.8,-4.6,-1.9,-2.2,-2.6c2.4,-.8,14.3,-3.2,18,-3.8c3.7,-.5,15.3,-2.2,20.1,-2.4c4.9,-.3,18,-1,22.9,-1c4.9,.1,11.7,.4,14.6,.6c2.9,.2,4.8,.4,5.4,.5c.6,.1,.6,-.3,1.2,-1c.5,-.7,2.4,-3.1,2.4,-3.1c0,0,.6,-.9,-.6,-.1c-1.2,.7,-3.1,.8,-4,-.1c-1,-.9,-1.3,-1.7,-1.8,-1.4c-.4,.3,-2.2,1.1,-3.1,1.4c-.9,.3,-5,1.3,-7.4,-.4c-2.5,-1.6,-2.6,-2.3,-2.9,-3.1c-.3,-.8,-.5,-.7,-1.3,-.2c-.8,.5,-3.5,1.8,-4.5,2.3c-1.1,.5,-1.8,.8,-3.4,.7c-1.6,-.1,-3.3,-.6,-4.1,-1.9c-.8,-1.3,-.8,-2.2,-1.7,-1.6c-.8,.6,-5.3,3.2,-7.6,3.9c-2.5,.6,-3,1,-4.4,.8c-1.4,-.3,-2.9,-.9,-3.4,-1.7c-.5,-.8,-.6,-1,-1.2,-.5c-.6,.5,-2.3,1.8,-3.6,1.6c-1.3,-.1,-4.7,-.9,-6.5,-4.3c-1.8,-3.3,-.5,-4.8,1.1,-6.4c1.7,-1.7,4.6,-4.2,4.6,-4.2c0,0,3.6,-2.6,4.8,-3.3c1.3,-.5,3.1,-1.7,4.4,-1.8c1.3,0,3.1,.1,4.9,1.5c1.7,1.4,2.7,2.9,3,3.5c.2,.5,.9,2.6,-.4,4c-1.2,1.4,-4.8,4.7,-4.8,4.7c0,0,-1.4,.9,-.7,1.9c.6,.9,3,-.7,3.7,-1.2c.8,-.5,5,-4.1,6.2,-5.3c1.3,-1.2,9.3,-9.1,10,-9.7c.7,-.8,7.4,-7.5,8.4,-8.1c1,-.6,1.4,-1.1,3.1,-.7c1.8,.4,2.9,1,2.9,1c0,0,1.8,.7,.4,1.9c-1.5,1.2,-6.6,5.4,-7.8,6.7c-1.3,1.3,-4.9,4.9,-6.1,6.3c-1.2,1.3,-4.5,5.3,-5,6.1c-.5,.7,-.8,1.6,0,2.1c.8,.6,2.2,0,3.7,-1.2c1.5,-1.2,5.8,-5,7.4,-6.5c1.5,-1.6,9.9,-9.5,10.6,-10.2c.8,-.6,4.7,-3.7,4.7,-3.7c0,0,.4,-.7,1.6,-.7c1.1,0,2.2,.2,2.9,.5c.7,.3,1.9,1.1,1.9,1.1c0,0,.9,.3,-.5,1.2c-1.3,1,-8.2,6.5,-10.1,8.5c-1.9,2,-5.6,6.2,-7.1,8c-1.3,1.9,-2.3,2.8,-1.2,4.1c1.1,1.2,2.4,.9,3,.7c.6,-.2,2.8,-1.7,4.4,-3.3c1.5,-1.6,6.4,-6.8,6.9,-7.5c.5,-.6,2.3,-2.4,2.3,-2.4c0,0,.4,-.7,1.4,-.7c1,0,1.6,.2,2.7,.4c1,.2,3.2,.6,2,1.9c-1.3,1.3,-4.3,4.4,-5,5.1c-.6,.8,-3.2,3.6,-3.7,4.5c-.5,.8,-1.1,1.8,-.5,2.2c.7,.4,2.3,-.2,4,-1.1c1.6,-.9,4,-2.4,6.1,-4.3c2.1,-1.9,5.5,-4.9,5.5,-4.9c0,0,.5,-1.3,3,-.8c2.4,.6,3,.9,3,.9c0,0,1.9,.5,.7,1.6c-1.3,1.2,-5.5,4.9,-7.1,6.4c-1.6,1.5,-6.5,6.5,-7.3,7.5c-.9,1,-3.2,3.2,-2.2,3.3c.9,.1,8.2,1.6,9.9,2c1.7,.4,7.4,2.4,7.9,2.6Z" class="g5_1"/>
<path d="M149.7,353.3c-9.3,0,-16.7,-3.1,-22.2,-9.4c-5.2,-6,-7.8,-13.6,-7.8,-22.9c0,-7,1.7,-13.7,5.1,-19.9c4,-7.5,9.8,-12.9,17.4,-16.2l.5,2.2c-4.5,2.5,-8,6.2,-10.6,11.1c-2.7,4.9,-4,10.3,-4,16.2c0,9.5,2.2,17.1,6.5,22.7c4.5,5.9,10.7,8.9,18.7,8.9c2.6,0,4.9,-.3,6.9,-.8V294.4c-3.2,-.1,-6.1,-1.3,-8.6,-3.6l-2.3,1.7v34.9c0,3.3,-.9,6.1,-2.6,8.4c-1.8,2.4,-4.2,3.9,-7.2,4.6l-.5,-2.1c.2,-.3,.3,-.4,.4,-.4c1,-1,1.5,-2.7,1.5,-5.2V300l-8.9,7.3V304l24.3,-21.3h1.4c2.4,2.3,4.8,3.4,7,3.4c2.3,0,4.9,-.9,7.6,-2.7l.8,1.7c-.6,1.8,-1.7,3.5,-3.3,5.1c-2.1,2.2,-4.6,3.5,-7.3,4.2v49.8c1.6,-.6,2.9,-1.3,4,-2c1.9,-1.3,4.2,-3.3,6.9,-6l1.6,1.7c-3.1,4.8,-6.3,8.3,-9.6,10.7c-4.5,3.1,-9.7,4.7,-15.7,4.7ZM189.3,337v4.4l7,4.1l7.2,-4.5l1.8,2.1l-14.4,9.2h-1.7l-4.5,-3.9c-1.4,-1.1,-2.5,-1.6,-3.2,-1.6c-.5,0,-1.6,.5,-3.3,1.6l-2,-1.7l5.4,-3.7V322.3c-1.4,-.8,-2.1,-2.1,-2.1,-3.8c2.8,0,6,-.7,9.6,-2.2c3,-1.3,5.2,-2.6,6.5,-3.8h1.3l8.4,12.2v1.9Zm2.4,-18.9l-2.4,1v14.6l9,-5.9Zm48.1,.3c.1,1,-.7,2.2,-2.5,3.6c-1.7,1.4,-3.4,2.1,-5,2.1c-2,0,-3.8,-1,-5.4,-3l-3.4,3.9v16.6l4.8,3.4l3.9,-2.7l2,1.8l-10.5,8.2h-2c-3.4,-3.9,-5.6,-5.8,-6.8,-5.8c-.9,0,-2,.7,-3.4,2.2l-.3,.4c-.1,.1,-.3,.3,-.6,.6l-2,-2l7.3,-6.1V323c-1.3,-1.6,-2.5,-2.5,-3.6,-2.5c-.5,0,-1,.3,-1.5,.9l-.1,.1c0,0,-.2,.1,-.4,.3l-2,-2.3l8.5,-7h1.5c2,1.9,3.1,3,3.5,3.5c1,1.4,1.6,3.1,1.7,5l7.5,-8.5h1.7c1.2,2.8,2.7,4.2,4.4,4.2c1.6,0,2.5,.6,2.7,1.7Zm16.1,33.9h-1.4c-3.3,-3.3,-5.7,-4.9,-7,-4.9c-.9,0,-2.1,.7,-3.4,2l-1.5,-2.2l6.9,-5.1V318.5c-1.8,0,-2.9,.1,-3.5,.3c-.6,.2,-1.1,.7,-1.6,1.6l-1.8,-.9l2.7,-7.3h4.2V298.4l7.6,-5.4v19.2h3.2c1.2,0,2.5,-.7,3.8,-2.2l1.3,1.2l-2.7,7.3h-5.6V342l3.4,2.6L264,342l1.7,1.9ZM279.2,304h-1.5l-4.1,-4.1l-2.4,2.3l-2,-1.9l8.5,-7.8h1.4l4.1,3.8l2.6,-2.1l1.5,2Zm1.7,48.3h-2.6l-3.9,-6.4V321.7l-2.3,-2.2l-2.6,1.9l-2.1,-1.9l9.7,-7.7h1.1l.8,.7c2.2,2.2,3.6,3.4,4.3,3.5c.5,.1,1.2,-.2,2.1,-.9l1.5,-1.2l1.7,2.3L282,322v18.3c0,2.3,1,3.5,2.8,3.5c1,0,2.2,-.3,3.6,-1l1.5,1.9Zm28.4,-57.7c.1,.6,.2,6.5,.2,17.6h4.6c1,0,1.8,-.7,2.4,-2l1.8,1.4l-2.6,6.8h-6.2v22.9l4.1,3.4l3.4,-2.4l1.4,1.9l-9.6,8.1H307c-1,-1,-2,-2,-3.1,-2.9c-1.5,-1.3,-2.6,-2,-3.4,-2c-.3,0,-.5,.1,-.7,.1c-.6,.2,-1.8,1,-3.7,2.3l-1.6,-1.9l7.4,-5.6V318.4h-2.7c-1.1,0,-2,.4,-2.8,1.2l-1.7,-.8l2.6,-6.6h4.6v-5.5c0,-2.1,-.2,-4.5,-.5,-7.4c-.4,-2.9,-.5,-4.5,-.5,-4.8c5.2,-2.1,8.9,-4.8,11.2,-8.1h1.7c1.2,2.4,2.5,3.6,3.8,3.6c.8,0,1.4,-.4,2,-1.2l1.5,.9c-.7,5.1,-2.7,7.7,-6.1,7.7c-2.4,0,-4.3,-1,-5.7,-2.8Zm24.8,9.4h-1.5l-4,-4.1l-2.5,2.3l-1.9,-1.9l8.4,-7.8h1.5l4,3.8l2.6,-2.1l1.5,2Zm1.7,48.3h-2.5l-3.9,-6.4V321.7l-2.3,-2.2l-2.7,1.9l-2,-1.9l9.6,-7.7h1.2l.8,.7c2.2,2.2,3.6,3.4,4.2,3.5c.5,.1,1.2,-.2,2.1,-.9l1.5,-1.2l1.7,2.3L337,322v18.3c0,2.3,.9,3.5,2.7,3.5c1,0,2.2,-.3,3.6,-1l1.6,1.9Zm31.7,-28.4c-2.8,0,-5,-1.7,-6.5,-5l-1.6,.7v21.5c1.8,.9,4.3,2.2,7.6,4.2l6.8,-4.7l1.7,2l-13.6,9.7h-2.1c-3.2,-3.6,-5.8,-5.4,-8,-5.4c-1.3,0,-2.4,.6,-3.5,1.7l-1.6,-2.1l5.1,-4.2V322.5l-1.9,-1v-2.7c2.3,0,5,-.6,8.1,-1.8c3.2,-1.2,5.7,-2.7,7.6,-4.5h1.5c.6,.8,1.6,1.9,3.1,3.3c1.2,1,3.1,1.4,5.5,1.4v2.2c-2,3,-4.7,4.5,-8.2,4.5Zm21.4,-4.1c2,-.3,4.2,-1.1,6.7,-2.6c2.6,-1.4,4.5,-3,5.8,-4.7h1.9c.8,3.2,2.3,4.7,4.6,4.7c1.5,0,3.2,-.7,5.2,-2l1.4,2.1l-6.9,5.4v18.9l3.3,3.3l2.2,-1.6l1.5,2l-8.5,7h-1.4c-1,-1,-2.3,-2.5,-3.9,-4.5c-.5,-.9,-.8,-2.4,-.8,-4.3l-12.7,8.8h-1.7c-1.7,-.6,-3.3,-1.5,-4.7,-2.8C379,347.6,378,345.4,378,342.7c0,-5.4,4,-10,12.1,-13.7l-6.9,-7.7c-1.3,-1.5,-2,-3,-2,-4.6c0,-2.8,1.5,-4.2,4.3,-4.2c2.9,0,4.4,1.4,4.4,4.3c0,1.2,-.3,2.2,-1,3Zm11.1,3.3L396.4,320c-3,1.8,-5.7,2.8,-8.2,3l8.7,9.8l-1.7,2.1L391.9,331c-2.3,1.3,-3.9,2.5,-4.7,3.4c-1,1.1,-1.5,2.6,-1.5,4.4c0,3.3,2.1,5.6,6.3,7l8,-5.7Zm30.7,29.2h-1.4c-3.3,-3.3,-5.7,-4.9,-7,-4.9c-.9,0,-2,.7,-3.4,2l-1.5,-2.2l6.9,-5.1V318.5c-1.8,0,-2.9,.1,-3.5,.3c-.6,.2,-1.1,.7,-1.6,1.6l-1.8,-.9l2.7,-7.3h4.2V298.4l7.6,-5.4v19.2h3.2c1.2,0,2.5,-.7,3.8,-2.2l1.3,1.2l-2.7,7.3h-5.6V342l3.4,2.6l3.5,-2.6l1.7,1.9ZM453.9,337v4.4l7,4.1l7.2,-4.5l1.8,2.1l-14.4,9.2h-1.7l-4.5,-3.9c-1.4,-1.1,-2.5,-1.6,-3.2,-1.6c-.5,0,-1.6,.5,-3.3,1.6l-2.1,-1.7l5.5,-3.7V322.3c-1.4,-.8,-2.1,-2.1,-2.1,-3.8c2.8,0,6,-.7,9.6,-2.2c3,-1.3,5.1,-2.6,6.5,-3.8h1.3l8.4,12.2v1.9Zm2.4,-18.9l-2.4,1v14.6l9,-5.9Zm71.1,3.9v19.9c1.3,.6,2,1.4,2.2,2.2c.1,.1,-2.8,1,-8.5,2.7c-6.3,1.9,-10.3,3.7,-11.8,5.5h-2.2c-4.3,-3.6,-6.9,-5.4,-7.8,-5.4c-.5,0,-1.4,.5,-2.6,1.5l-.4,.4c-.1,0,-.2,-.1,-.3,-.5c-.1,.3,-.8,-.1,-2,-1.2l5.6,-4.2V322.6c-1.7,-1,-2.5,-2,-2.3,-2.9c0,-.6,.3,-.9,.8,-.9c2.9,0,6,-.5,9.5,-1.4c4.4,-1.1,7.8,-2.8,10.2,-4.9h1.9c.8,.9,2,2,3.6,3.2c1.9,1.5,3.3,2.3,4.1,2.3c1.1,0,2.5,-.9,4.1,-2.7l1.7,2.2Zm-7.6,1.6l-7.9,-4.4l-4.6,1.5v20.5l7.7,4.5c1.3,-.7,2.9,-1.3,4.8,-1.7Zm31.6,-29c.1,.6,.2,6.5,.2,17.6h4.6c1,0,1.8,-.7,2.4,-2l1.8,1.4l-2.6,6.8h-6.2v22.9l4.1,3.4l3.4,-2.4l1.4,1.9l-9.6,8.1h-1.8c-1,-1,-2,-2,-3.1,-2.9c-1.5,-1.3,-2.6,-2,-3.3,-2c-.3,0,-.6,.1,-.8,.1c-.5,.2,-1.8,1,-3.7,2.3l-1.6,-1.9l7.4,-5.6V318.4h-2.7c-1,0,-2,.4,-2.8,1.2l-1.7,-.8l2.6,-6.6H544v-5.5c0,-2.1,-.2,-4.5,-.5,-7.4c-.3,-2.9,-.5,-4.5,-.5,-4.8c5.2,-2.1,8.9,-4.8,11.2,-8.1h1.7c1.3,2.4,2.5,3.6,3.8,3.6c.8,0,1.5,-.4,2.1,-1.2l1.5,.9c-.7,5.1,-2.8,7.7,-6.2,7.7c-2.4,0,-4.3,-1,-5.7,-2.8Zm112.4,58.8c-.5,0,-1.1,-.3,-1.6,-.9c-3,-3.9,-4.5,-7.2,-4.5,-9.9v-22h-9.6v23.7l3.2,-2.4l1.7,2l-12.2,9.6h-1.6c-4.9,-3.2,-7.9,-4.7,-9.2,-4.7c-1.1,0,-2.7,.9,-4.9,2.7l-1.8,-2l9.3,-7.7V320.6h-8.9v18.8c0,4.9,-1.4,8.6,-4.1,11c-2.3,2.1,-5.4,3.1,-9.3,3.1c-1.3,0,-4.2,-.5,-8.5,-1.5l-4.4,-1.1c-1.4,-.3,-2.3,-.4,-2.7,-.4c-4,0,-6,2.5,-6,7.4c0,4.1,1.8,7.3,5.3,9.6c3.2,2.1,7,3.2,11.5,3.2c3.5,0,6.5,-.7,9.2,-2l1.6,2.5c-1.4,.8,-3.1,1.4,-5.2,1.7c-2,.3,-4,.5,-5.9,.5c-5.6,0,-10.1,-1.3,-13.4,-3.7c-3.7,-2.8,-5.5,-6.8,-5.5,-12c0,-4.9,1.2,-8.7,3.8,-11.6c2.6,-2.8,5.8,-4.2,9.8,-4.2c1.3,0,4,.5,7.9,1.5l4.1,1.1c1.3,.3,2.2,.4,2.6,.4c4.5,0,6.7,-2.4,6.7,-7.2V293c-1,.5,-1.6,.8,-1.9,1.1c-.6,.4,-1.1,1,-1.6,1.7c-.6,.8,-.8,2,-.8,3.8v30.2c0,6,-3.1,9.8,-9.3,11.3l-1.2,-2.4c1.4,-.6,2.2,-1.2,2.2,-1.9V320.6h-2.8c-2.8,0,-4.2,2.2,-4.2,6.4h-3c-.5,-1.7,-.8,-3.6,-.8,-5.6c0,-6.1,2.3,-9.2,7,-9.2h3.8v-6.4c0,-6,2.6,-10.6,7.8,-13.6l16.8,-9.5h1.5c2.3,1.6,3.7,2.8,4.4,3.7c1.3,1.5,1.9,3.4,1.9,5.7V296l4.6,-3.2v-6.4c-.3,-.8,-.4,-1.5,-.4,-2c0,-1.1,.5,-1.7,1.7,-1.7c1.1,0,1.6,.6,1.6,1.7c0,.6,-.1,1.2,-.4,2v4.5l12.2,-8.2h1.2l7.1,6.2l3.8,-2.8l1.8,2.1l-8.1,6.2v46.1c0,.5,.1,.9,.4,1.4c.5,.9,1.8,2.2,3.7,3.9l2.9,-2.4l1.2,2.4c-1.7,1.4,-3.4,2.9,-5.1,4.3c-2.7,2.2,-4.5,3.3,-5.4,3.3Zm-6.1,-58.9l-4.4,-3.4l-5.2,3.4v17.7h9.6Zm-25.1,1.9c0,-1.1,-.3,-2,-.9,-2.7c-.6,-.7,-2.1,-1.9,-4.7,-3.5l-3.3,1.7v20.3h8.9Zm13,0l-4.6,3.2v42.7l4.6,2.6ZM688.4,337v4.4l6.9,4.1l7.2,-4.5l1.9,2.1l-14.5,9.2h-1.6l-4.5,-3.9c-1.5,-1.1,-2.6,-1.6,-3.3,-1.6c-.5,0,-1.6,.5,-3.3,1.6l-2,-1.7l5.5,-3.7V322.3c-1.5,-.8,-2.2,-2.1,-2.2,-3.8c2.8,0,6,-.7,9.6,-2.2c3,-1.3,5.2,-2.6,6.5,-3.8H696l8.4,12.2v1.9Zm2.3,-18.9l-2.3,1v14.6l8.9,-5.9Zm48.1,.3c.1,1,-.7,2.2,-2.5,3.6c-1.7,1.4,-3.4,2.1,-5,2.1c-2,0,-3.8,-1,-5.4,-3l-3.4,3.9v16.6l4.9,3.4l3.9,-2.7l1.9,1.8l-10.4,8.2h-2.1c-3.3,-3.9,-5.6,-5.8,-6.8,-5.8c-.9,0,-2,.7,-3.3,2.2l-.4,.4c-.1,.1,-.3,.3,-.6,.6l-2,-2l7.3,-6.1V323c-1.3,-1.6,-2.5,-2.5,-3.5,-2.5c-.6,0,-1.1,.3,-1.6,.9v.1c-.1,0,-.2,.1,-.5,.3l-2,-2.3l8.5,-7h1.5c2,1.9,3.2,3,3.5,3.5c1,1.4,1.6,3.1,1.7,5l7.5,-8.5h1.7c1.2,2.8,2.7,4.2,4.4,4.2c1.7,0,2.6,.6,2.7,1.7ZM753.2,304h-1.5l-4.1,-4.1l-2.5,2.3l-1.9,-1.9l8.5,-7.8h1.4l4.1,3.8l2.5,-2.1l1.5,2Zm1.7,48.3h-2.6l-3.9,-6.4V321.7l-2.3,-2.2l-2.6,1.9l-2.1,-1.9l9.7,-7.7h1.1l.8,.7c2.2,2.2,3.6,3.4,4.3,3.5c.4,.1,1.1,-.2,2.1,-.9l1.5,-1.2l1.7,2.3L756,322v18.3c0,2.3,.9,3.5,2.8,3.5c1,0,2.2,-.3,3.6,-1l1.5,1.9Zm25.1,0h-1.4c-3.4,-3.3,-5.7,-4.9,-7.1,-4.9c-.9,0,-2,.7,-3.4,2l-1.5,-2.2l6.9,-5.1V318.5c-1.7,0,-2.9,.1,-3.5,.3c-.5,.2,-1,.7,-1.5,1.6l-1.9,-.9l2.8,-7.3h4.1V298.4l7.6,-5.4v19.2h3.2c1.3,0,2.5,-.7,3.8,-2.2l1.4,1.2l-2.8,7.3h-5.6V342l3.5,2.6L788,342l1.7,1.9Z" class="g2_1"/>
<image clip-path="url(#c0_1)" preserveAspectRatio="none" x="703" y="863" width="147" height="45" xlink:href="img/1.jpg"/>
</svg>