<?xml version="1.0" encoding="UTF-8" standalone="no"?>
<!DOCTYPE svg PUBLIC "-//W3C//DTD SVG 1.1//EN"
"http://www.w3.org/Graphics/SVG/1.1/DTD/svg11.dtd">
<svg viewBox="0 0 909 1286" version="1.1" xmlns="http://www.w3.org/2000/svg" xmlns:xlink="http://www.w3.org/1999/xlink">
<defs>
<style type="text/css"><![CDATA[
.g0{
fill: #10828D;
}
.g1{
fill: none;
stroke: #10828D;
stroke-width: 3.055;
stroke-miterlimit: 22;
}
.g2{
fill: none;
stroke: #10828D;
stroke-width: 1.145;
stroke-miterlimit: 22;
}
.g3{
fill: none;
stroke: #F2B738;
stroke-width: 0.866;
stroke-miterlimit: 22;
}
.g4{
fill: #B6EDEA;
}
.g5{
fill: none;
stroke: #10828D;
stroke-width: 0.763;
stroke-miterlimit: 2;
}
.g6{
fill: none;
stroke: #10828D;
stroke-width: 0.763;
stroke-miterlimit: 22;
}
.g7{
fill: none;
stroke: #373435;
stroke-width: 0.763;
stroke-miterlimit: 22;
}
]]></style>
</defs>
<path d="M421.6,144.9c0,-.5,-.2,-1,-.5,-1.5c-.4,-.4,-.8,-.8,-1.4,-1.1c-.5,-.4,-1,-.8,-1.7,-1.2c-.6,-.3,-1.1,-.8,-1.7,-1.3c-.5,-.5,-.9,-1.1,-1.3,-1.8c-.3,-.7,-.5,-1.6,-.5,-2.6c0,-.9,.2,-1.7,.4,-2.4c.3,-.6,.7,-1.1,1.2,-1.5c.5,-.5,1.1,-.8,1.8,-1c.6,-.1,1.4,-.2,2.1,-.2c1,0,1.8,0,2.6,.2c.9,.2,1.5,.5,2.1,.8l-1.1,3c-.3,-.2,-.8,-.4,-1.4,-.6c-.6,-.2,-1.3,-.3,-2,-.3c-.7,0,-1.3,.2,-1.6,.5c-.4,.3,-.6,.7,-.6,1.3c0,.5,.1,.9,.5,1.3c.3,.4,.8,.8,1.3,1.2c.5,.3,1.1,.7,1.7,1.1c.6,.4,1.2,.9,1.7,1.4c.5,.5,1,1.1,1.3,1.8c.4,.7,.5,1.6,.5,2.6c0,.9,-.1,1.8,-.4,2.5c-.3,.7,-.7,1.3,-1.2,1.8c-.5,.4,-1.1,.8,-1.9,1c-.7,.3,-1.5,.4,-2.4,.4c-1.2,0,-2.2,-.1,-3,-.4c-.9,-.2,-1.5,-.4,-2,-.7l1.2,-3.1c.3,.2,.8,.4,1.5,.7c.6,.2,1.3,.3,2,.3c1.9,0,2.8,-.7,2.8,-2.2Z" class="g0"/>
<path d="M431.3,143.9l.3,2.1h.2l.2,-2.2l1.6,-7.7h3.3l-3.4,12.4c-.3,1.1,-.6,2.1,-.9,3c-.2,.8,-.5,1.6,-.8,2.2c-.4,.6,-.7,1,-1.1,1.3c-.4,.4,-.9,.5,-1.4,.5c-.4,0,-.8,0,-1.1,-.1c-.4,0,-.7,-.1,-1,-.3l.6,-2.8c.2,.1,.5,.2,.7,.2c.3,0,.5,-.1,.7,-.3c.2,-.2,.4,-.5,.6,-.8c.1,-.4,.3,-.9,.4,-1.5l-4.8,-13.8h3.9Z" class="g0"/>
<path d="M441.2,145.4c0,.7,0,1.1,.2,1.4c.1,.3,.3,.4,.6,.4c.2,0,.3,0,.5,0c.2,-.1,.4,-.1,.6,-.2l.3,2.6c-.2,.2,-.6,.3,-1.1,.4c-.5,.2,-1.1,.2,-1.6,.2c-1,0,-1.6,-.2,-2.1,-.7c-.5,-.4,-.7,-1.2,-.7,-2.3V130.6h3.3Z" class="g0"/>
<path d="M447.9,145.4c0,.7,0,1.1,.2,1.4c.1,.3,.3,.4,.6,.4c.2,0,.3,0,.5,0c.2,-.1,.4,-.1,.6,-.2l.3,2.6c-.2,.2,-.6,.3,-1.1,.4c-.6,.2,-1.1,.2,-1.7,.2c-.9,0,-1.6,-.2,-2,-.7c-.5,-.4,-.7,-1.2,-.7,-2.3V130.6h3.3Z" class="g0"/>
<path d="M451.2,137c.6,-.4,1.3,-.6,2.1,-.8c.8,-.2,1.8,-.3,2.8,-.3c1.6,0,2.7,.4,3.3,1.2c.6,.8,.9,1.9,.9,3.4c0,.9,0,1.7,-.1,2.6c0,.8,0,1.6,-.1,2.4c0,.8,0,1.6,.1,2.3c0,.8,.1,1.5,.3,2.1h-2.6l-.5,-1.7h-.2c-.2,.6,-.7,1,-1.2,1.4c-.5,.3,-1.2,.5,-2,.5c-1.1,0,-1.9,-.4,-2.6,-1.1c-.6,-.7,-.9,-1.7,-.9,-2.9c0,-1.7,.6,-2.8,1.8,-3.5c1.1,-.7,2.7,-1,4.7,-.9c.1,-1.1,0,-1.8,-.2,-2.3c-.2,-.5,-.7,-.7,-1.5,-.7c-.5,0,-1.1,0,-1.7,.2c-.5,.1,-1.1,.3,-1.5,.5Zm4,10.3c.5,0,.9,-.1,1.2,-.4c.3,-.2,.5,-.5,.7,-.8v-2.3c-.4,0,-.8,-.1,-1.2,0c-.4,0,-.8,.1,-1,.2c-.3,.2,-.6,.3,-.7,.6c-.2,.2,-.3,.6,-.3,.9c0,.6,.1,1,.3,1.3c.3,.3,.6,.5,1,.5Z" class="g0"/>
<path d="M462.6,130.6h3.3V137c.7,-.8,1.6,-1.2,2.9,-1.2c1.3,0,2.3,.6,3,1.6c.7,1.1,1.1,2.9,1.1,5.3c0,2.6,-.5,4.5,-1.5,5.7c-1.1,1.2,-2.5,1.8,-4.3,1.8c-.9,0,-1.8,-.1,-2.6,-.3c-.9,-.1,-1.5,-.3,-1.9,-.6Zm3.3,16.3c.3,.2,.8,.3,1.5,.3c.7,0,1.2,-.3,1.6,-1c.3,-.6,.5,-1.8,.5,-3.3c0,-1.4,-.1,-2.5,-.4,-3.1c-.3,-.7,-.8,-1,-1.4,-1c-.9,0,-1.5,.5,-1.8,1.4Z" class="g0"/>
<path d="M477.9,136.1v8.3c0,1,.1,1.8,.3,2.2c.2,.4,.6,.7,1.1,.7c.5,0,1,-.2,1.3,-.6c.4,-.4,.6,-.8,.8,-1.4v-9.2h3.2v9.6c0,.8,.1,1.5,.1,2.2c.1,.7,.2,1.4,.3,2h-2.5L482,148h-.1c-.4,.7,-.8,1.2,-1.4,1.6c-.6,.4,-1.4,.6,-2.2,.6c-.6,0,-1.1,0,-1.6,-.2c-.4,-.1,-.8,-.4,-1.1,-.8c-.3,-.4,-.5,-.9,-.7,-1.6c-.2,-.6,-.2,-1.5,-.2,-2.5v-9Z" class="g0"/>
<path d="M491.6,146.2c0,-.4,-.1,-.7,-.3,-.9c-.3,-.3,-.6,-.6,-1,-.8c-.4,-.2,-.8,-.4,-1.2,-.7c-.4,-.2,-.8,-.5,-1.2,-.9c-.4,-.3,-.7,-.7,-1,-1.2c-.2,-.5,-.3,-1.1,-.3,-1.9c0,-1.3,.3,-2.3,1,-3c.7,-.7,1.7,-1,3.1,-1c.8,0,1.6,.1,2.3,.2c.7,.2,1.3,.4,1.7,.7l-.8,2.5c-.3,-.1,-.8,-.3,-1.3,-.4c-.5,-.1,-.9,-.2,-1.4,-.2c-.9,0,-1.4,.4,-1.4,1.1c0,.4,.2,.7,.4,.9c.3,.2,.6,.4,1,.7c.3,.2,.7,.4,1.2,.6c.4,.3,.8,.6,1.2,.9c.4,.4,.7,.8,.9,1.3c.3,.6,.4,1.2,.4,1.9c0,1.3,-.4,2.3,-1.1,3.1c-.8,.8,-2,1.1,-3.5,1.1c-.7,0,-1.5,0,-2.2,-.2c-.7,-.2,-1.3,-.4,-1.7,-.7l.9,-2.7c.4,.2,.8,.4,1.3,.6c.5,.2,1,.2,1.6,.2c.4,0,.8,-.1,1,-.2c.3,-.2,.4,-.5,.4,-1Z" class="g0"/>
<path fill-rule="evenodd" d="M28.3,1205.9c.3,-1.3,.8,-3.8,1.4,-5.6c1.5,-4.2,5.9,-13.9,1.1,-16.5c-.6,-.3,-1,-.2,-1.4,-.6c.5,-.7,1.6,-1.1,2.6,-.4c1.1,.6,.7,1.3,2,1.7c2.4,.7,2,2.6,2.2,5.3c.4,.5,.3,.2,.8,.6c.4,.4,.1,.3,.7,.7c1.2,-.7,4.6,-7.2,16.8,-5.8c11.2,1.2,13.3,9.5,10.7,10.7c-.3,-.5,0,-.4,-.3,-.9c-.2,-.5,-.3,-.2,-.6,-.7c-.5,-.9,.1,-1.3,-.7,-2c0,0,-.1,.1,-.1,.1l-1.1,1.7c-1.5,-.8,-1.1,-3.1,-2,-4.6c-.7,-1.1,-2.2,-2.5,-4.1,-2.5c.3,.7,1.5,1.4,2.1,2.2c.5,.8,1,2.6,0,3.2l-.3,-1.4c-1.4,-.3,-2,.1,-3.2,-.6c-1.9,-.9,-2.7,-3.6,-8.3,-3c.6,.7,2,.5,3,1.2c.6,.4,1.9,1.3,1.7,2.2c-2.6,1,-2.9,-.4,-4,-.3c.1,.7,.2,.6,-.1,1.2c-1.1,.1,-2.3,-.9,-3.6,-1.1c-1.5,-.2,-3.4,.1,-4.2,.9c.7,.4,1.5,-.1,1.7,1.4c-1.7,-.2,-2.1,-.3,-3.6,.5c-2.5,1.3,-5,5,-5.8,7.8l.9,.5c-.3,1.7,-1.7,1.2,-2.3,3.3c-.4,1.6,-.1,3.7,.4,5.1c.2,-.2,1,-3.4,1.3,-4.2c.4,-.9,1.7,-3.1,1.7,-3.8c.2,-1.6,-.3,-1.8,1.6,-3.8c1.9,-2.1,7.7,-6.7,10.6,-5.3c3.1,1.4,1.5,-1.6,9.3,.4c9.4,2.5,14,10.1,23.5,9.3c1.6,-.1,3.2,-.6,4.2,-1.3c.9,-.8,2.2,-2.4,1.2,-3.9c-.4,.1,-.4,.5,-.6,.9c-2.5,.3,-3,-3.1,-.9,-3.6c2.3,-.6,3.5,1.4,3.5,3.4c.1,3.8,-4.2,6.1,-8,6.1c-4.3,0,-8,-1.3,-11.1,-3c-2.3,-1.3,-7.1,-4,-9.3,-4.8c-7.9,-2.6,-15.1,-2.7,-20.7,3.9c-1.8,2.2,-4.2,6.1,-3.8,10.1c.6,4.7,4,7.6,7.3,6.2c-.6,-.5,-3.9,.3,-4.7,-3.2c-.5,-2.5,1.3,-4.3,3.2,-4.7c5,-1.2,8,4.2,5.9,8.4c-1.6,3.1,-6.8,5.5,-11,2.7c-1.4,-.9,-3.1,-2.5,-3.9,-3.9c-1.3,-2.3,-1.3,-4.4,-1.7,-5.7c-.4,-2.8,.1,-4.3,0,-4.5Z" class="g0"/>
<path fill-rule="evenodd" d="M56.1,1232.1c-2.3,1.3,.9,9,9.4,7.1c2,-.4,4.7,-2,6,-3c1.8,-1.4,3.1,-2.8,4.3,-4.9c3,-5.1,2.1,-9.3,.6,-15.1c-.7,-2.5,-1.7,-4.3,-2.8,-6.3c-.8,-1.4,-2.8,-4.6,-3.2,-6.1c2.6,.3,2.4,1.1,4.2,4.1c.9,1.7,2,3.4,2.9,5.3c1,2.1,2.8,7.2,2.3,9.8c-.2,1.1,-1,1.9,-.4,3.4c.6,1.5,.7,1.7,.1,3.3c-1,3,-5.2,8.6,-7.4,9.2c-1.8,.4,-1.2,-.4,-3.4,.7c-.9,.5,-1.8,1,-2.8,1.4c-.9,.3,-2.8,.6,-3.3,.8c.9,.8,3.3,.8,4.7,.6c2.4,-.5,1.8,-2,3.4,-2.3c.6,.5,.2,.3,.6,.9c2.2,-.5,4.3,-2.1,5.8,-3.3c.7,-.6,1.5,-1.4,2,-2.4c.9,-1.7,.7,-1.9,.6,-3.7c1.2,0,.9,.6,1.3,1.6c.9,-.4,1.1,-2.5,1,-3.9c-.1,-1.5,-1.4,-2.8,-1.1,-3.9l1.3,-.1c-.2,-1.4,-1.3,-.4,-.5,-4c2.5,.1,2.8,4.1,3.3,4.7c.9,-1.7,-.1,-4.9,-1.6,-6.6c-2.8,-3.3,-1.2,-2.7,-1.8,-4.5c-.2,-.6,-.2,-.2,-1.2,-.6l-.3,-.1c2.2,-2,4.5,1.7,5.5,2.1c-.1,-4.6,-5.6,-4.9,-6.1,-5.1l-1,-.8c.6,-1.1,1.5,-.8,1.8,-1.5c-.8,-.5,-1.3,-.1,-2,-.5c-.5,-.3,-.2,-.4,-.6,-.6l-1,-.4c.7,-1.2,3,-1.1,4.3,-.4c1.3,.7,2.4,1.7,3.1,2.7c3.8,4.3,4.3,13.4,2.4,18.4c-.6,1.4,-1.3,2.7,-2.1,3.8c-.4,.6,-.8,1.1,-1.3,1.6c-.5,.5,-1,.7,-1.5,1.4l1.2,1.5c2.5,.2,4.7,-.2,5.3,2.2c.4,1.5,1.1,.9,1.8,2c.5,.8,.4,2.3,-.5,2.6c-.3,-.5,-.6,-2.6,-2.8,-3.3c-3.9,-1.2,-11,1.9,-14.8,3.2c-3.1,1.1,-6.9,1.8,-10.5,1.1c-15.6,-3,-10.2,-20.7,-.3,-16.4c1.4,.6,2.3,1.6,2.7,3.3c.5,2,-.1,3.8,-1.2,4.8c-2.1,1.9,-6.5,1.5,-6.4,-3.8Z" class="g0"/>
<path fill-rule="evenodd" d="M46.2,1206.2c.6,-1.2,2.5,-1.1,3.8,-.5c2,1,1.5,2.4,2.3,2.9c.9,-.8,.4,-4,4,-3.5c-.1,1,-.8,1.1,-1,2.1c-.4,2.1,2.2,4.7,-2.2,6.8c-2.7,1.3,-.7,3.7,.7,2.4c.6,-.5,.5,-1.7,1.1,-2.3c.6,-.7,1.7,-.5,2.8,-.5c-.2,-1.4,-1,-2.1,-.2,-4c.4,-1,1.5,-2.2,3,-2.1c.4,1.9,-.7,3.5,-.4,4.1c1.4,-.2,.1,-2.3,2.2,-4.1c.7,-.6,3.6,-2.5,4.4,-1.5c.8,1.1,-1,3.8,-1.6,4.3c-1.8,2,-3.6,1,-4.1,2.1c.7,.6,4.1,-1.4,4.1,.2c.1,1,-1,2,-1.8,2.4c-1.8,.9,-2.7,.2,-4.3,0c.2,4.3,-1.1,2.4,-2.6,3.7c-1.6,1.4,1,3.6,2.3,.8c2,-4.3,4.7,-1.9,6.7,-2.1c1.2,-.2,1.1,-1.1,2.1,-1c.4,1.4,-.5,2.9,-2.1,3.4c-.8,.2,-1,0,-1.3,.6c.9,1,1.9,.2,2.9,2.4c.6,1.3,.6,3.2,-.6,3.7c-2.2,-1.8,-.6,-3.7,-6.5,-3.3c-1.3,0,-3.1,-.2,-4.3,-.6c-2.3,-.9,-1.5,-1.7,-2.4,-2.9c-.8,-.9,-3.8,-.2,-3.7,-6.6c0,-2.7,.7,-4.3,-2.6,-6.3c-.5,-.3,-.5,-.1,-.7,-.6Z" class="g0"/>
<path fill-rule="evenodd" d="M140,1240.9v3l-27.8,.1c-3.3,0,-4.7,-1.4,-5.4,-4.1h-4.2c-.6,1.7,-1.9,2.9,-3.7,3.3c-5.3,1.2,-7.3,-5.2,-3.7,-6.4c1.1,-.4,2.2,-.1,2.9,.4c.9,.6,.8,1.3,.9,2.5c1.5,-.7,1.2,-3.3,.1,-4.5c-1.9,-2.3,-6.4,-3.4,-9.7,-2.4c-2.9,.8,-3,1.8,-4.2,2.2c.4,-2.4,7.9,-7.6,15,-2.4c2.3,1.6,2,2.9,2.9,4.3l5.5,.1c.8,3.8,.5,3.9,4.8,3.9Z" class="g0"/>
<path fill-rule="evenodd" d="M28.7,1132.8h3V1159c0,4,-.1,4.5,3.9,5l.1,5.5c.6,.5,1.8,.8,2.5,1.2c3.3,1.8,5.5,8.4,2.9,13.2c-.5,1.1,-2.4,3.6,-3.5,3.6c.2,-.9,4,-4.1,2.2,-9.9c-2,-6.5,-6.4,-5.3,-6.9,-3.9c1.4,.2,1.9,-.1,2.6,.9c.5,.7,.7,1.9,.3,2.9c-1.4,3.8,-7.8,1.2,-6.3,-3.9c.6,-2.1,1.6,-2.7,3.3,-3.6l-.1,-4c-.7,-.5,-1.8,-.5,-2.9,-1.7c-.9,-1,-1.1,-1.8,-1.1,-3.5Z" class="g0"/>
<path fill-rule="evenodd" d="M92.3,1215.7c-.3,.6,-3,1.8,-2.1,3.5c1.2,0,.8,-1.1,2.6,-.8c.3,2.4,-.9,2.8,-1.7,3.2l.5,.2c.4,.2,.1,-.1,.6,.2c-.3,1.6,-1.2,1.6,-2.3,2.3c-.7,.5,-1.6,2.1,-.9,3.5c.8,-.4,1.6,-3.9,3.5,-1.1c1.9,-.9,1.3,-1.8,4.7,-1.6c5.2,.3,4.4,-.7,5.2,-1.2c.7,1.3,-.1,1.6,-.8,2.1c.9,1.2,5.3,2.3,7.4,1.7c3.3,-.8,1.7,-3.7,-.1,-3.2c-.7,.3,-.6,.9,-1.3,1.1c-1,-1.7,1.3,-3.8,3.5,-2.5c3,1.8,1.4,7.4,-5.4,5.9c-1.4,-.3,-4.6,-1.8,-5.4,-1.7c-.1,1.5,.7,1.4,-.1,3.5c-1,-.4,-.2,-.6,-1.7,-1.8c-2.4,-2,-5.2,-1.4,-7.7,0c-3.3,2,-6.6,5.7,-7.9,5.9c.4,-.8,2.1,-2.3,3.3,-4c3.3,-5,.6,-12.2,3.5,-14.8c.6,-.6,1.8,-1.1,2.6,-.4Z" class="g0"/>
<path fill-rule="evenodd" d="M41.9,1172.6c1,-1,2.2,-.3,3.5,-.2c-.1,-1.2,-1.4,-3.8,-1.7,-5.4c-1.6,-6.6,3.9,-8.5,5.8,-5.5c1.3,2,-.5,4.5,-2.5,3.5c.2,-.7,2.4,-1.5,.6,-2.9c-2.7,-2.2,-4.3,4.9,-1,9l.2,-.3c.4,-.5,.6,-1,1.9,-.7c-.2,.6,-.4,.3,-.8,.9c-.4,.8,-.4,3.5,-.3,4.4c.2,3.2,-.6,2.8,-1.6,4.7c0,0,2.4,1.5,-.2,2.9c-.6,.3,-.7,.1,-1,.7c1.4,.4,2.8,0,3.5,-.9c.7,-1,.7,-2.1,2.4,-2.3l.1,1c.6,-.4,.8,-2,3.4,-1.6c.5,1.4,-.8,1.5,-.8,2.6c2.5,.7,2.5,-1.8,3.6,-2c1.2,2,-1.4,3.3,-3,3.7c-5.9,1.3,-8.3,-1.3,-14.3,4c-.5,.4,-1.5,1.3,-2,1.6c.1,-2,10.8,-9.7,6,-15.6c-.5,-.6,-1.5,-1.1,-1.8,-1.6Z" class="g0"/>
<path fill-rule="evenodd" d="M39.3,1237.9c-.7,.3,-2.8,2.2,-4.8,.2c-2,-2,.1,-4.1,.2,-4.8c-1.2,-.5,-2.6,-.2,-2.7,-2.3c-.1,-1.8,1.1,-2.3,1.5,-3.4c-1.2,-1,-1.4,-1.4,0,-3.3c4.2,-5.7,2.2,.5,2.2,.7c-1,7,4.6,12.9,11.6,12c1.2,-.1,2.3,-.7,3.5,-.6c-.1,1.1,-1.7,2.2,-2.4,2.7c-.5,.4,-1.1,.9,-1.7,1c-1,.1,-1.2,-.4,-1.6,-.8c0,0,-.1,-.1,-.1,-.1c-1,.5,-1.8,1.6,-3.5,1.4c-2.2,-.2,-1.7,-1.9,-2.2,-2.7Z" class="g0"/>
<path fill-rule="evenodd" d="M87.6,1179.9c.8,.5,.5,.9,1.1,1.4c.9,-.4,.3,-1.3,1.5,-1.9c.7,-.4,2.2,-.5,2.9,-.1c.6,.5,.6,2,.3,2.9c-.4,1.3,-1.3,.9,-2,1.7c.5,.9,.9,.3,1.4,1.2c-.6,1.1,-1.9,1,-3.5,1.3c-1.6,.3,-2.4,.9,-3.3,1.6c-1.5,1.2,-4.6,4.8,-5.4,4.1c-1.3,-1.3,4.8,-4.3,5.6,-8.7c.2,-1.2,.1,-3.1,1.4,-3.5Z" class="g0"/>
<path fill-rule="evenodd" d="M140,1237.3v1.1c-4.5,.1,-9,0,-13.6,0c-3.9,0,-9.6,.7,-12.1,-1.4c-2.9,-2.4,-2.2,-7.7,2.9,-7.1c1.9,.3,3.3,2.1,2.1,4c-.8,1.4,-4,1.3,-3.5,-1.8c.7,-.6,.9,-.1,1.2,-.9c-2.1,-1.3,-4.8,1.9,-2.5,4.5c1.8,1.9,4.3,1.6,7.4,1.6c6,0,12.1,0,18.1,0Z" class="g0"/>
<path fill-rule="evenodd" d="M34.2,1132.8h1.1c.1,6,0,12,0,18c0,3.3,-.3,5.7,1.8,7.4c2.1,1.8,5.3,.5,4.5,-2.5c-1.3,.2,-.1,.5,-1.2,1.1c-2.1,1.1,-3.3,-2.3,-1.7,-3.4c1.9,-1.3,3.8,.1,4,2.2c.6,5.1,-4.7,5.7,-7.1,2.7c-2,-2.4,-1.4,-8.4,-1.4,-12.1c0,-4.5,0,-9,0,-13.4Z" class="g0"/>
<path fill-rule="evenodd" d="M45,1230.4c-5,-1.4,-3,-8.8,2,-7.6c5,1.2,3.1,9,-2,7.6Zm0,-1.2c-3.5,-1.5,-1.2,-6.5,2.1,-5.1c3.3,1.3,1.2,6.6,-2.1,5.1Z" class="g0"/>
<path fill-rule="evenodd" d="M62.5,1237.3c1.4,-.7,4.4,0,6,-3c1,-1.9,.8,-5.6,2.2,-6.6c1.4,.6,.9,1.3,1.7,2.2c1.2,-1.1,.5,-2.2,-.2,-3.2c-.3,-.6,-1.3,-3.5,-.5,-3.9c.5,-.2,3.6,2.6,2.4,6.8c-1.4,5.1,-5.4,7.8,-10.3,8c-.2,0,-.5,0,-.7,-.1c-.5,-.1,.1,.3,-.6,-.2Z" class="g0"/>
<path fill-rule="evenodd" d="M49.9,1201.1c-4.4,.6,-5.3,-2.9,-7.2,-.8c.8,.8,1.9,.3,2.2,1.7c-1.6,1.5,-4.5,1.1,-6.6,2.2c-3.3,1.7,-2.2,4.9,-3.1,6c-1.1,-2.6,1.2,-8.1,4.5,-10.2c6.2,-3.8,10.1,-.3,10.2,1.1Z" class="g0"/>
<path fill-rule="evenodd" d="M74.1,1189.3c.4,-.3,.8,-.3,1,-.7c-2.4,-1.6,-5.9,1.7,-5.3,7.9c.1,1.2,.8,3.2,.7,4c-1.7,-.7,-1.5,-.2,-1.9,-2.4c-2,-11.6,7.2,-13.7,9,-9.8c1.7,3.5,-3.7,4.1,-3.5,1Z" class="g0"/>
<path fill-rule="evenodd" d="M76.2,1198.3l-.7,.7c-1.4,1.7,-3.7,1,-2.4,-1.3c.4,-.7,1,-.6,1.3,-1.2c-4,-.1,-3.1,-3.2,-2.3,-3.8c.4,.2,.2,0,.4,.4c.2,.1,.2,.3,.4,.5c1.1,1.2,3,.2,4.3,.4c.2,.4,.3,.7,.6,1c.4,.4,.4,0,.9,.6c.1,1.1,-.4,1.7,-.2,2.9c.2,1.5,1,1.2,1.5,1.9c-.4,.9,-3.8,1.9,-3.8,-2.1Z" class="g0"/>
<path fill-rule="evenodd" d="M91.3,1191.4c-.7,.9,-.1,1.4,-1.3,1.7c-.6,-.9,-.7,-1.5,-2,-1.9c-1.2,-.4,-2.8,.2,-3.7,-.3c.4,-1.1,2.8,-1.6,3.9,-2c4.4,-1.6,3.6,0,3.8,.9c1.6,.5,3.4,1.5,2.8,3.5c-.9,-.3,-2,-1.6,-3.5,-1.9Z" class="g0"/>
<path fill-rule="evenodd" d="M79.6,1182.5c.3,-1,.7,-.6,1.6,-1c0,-1.6,-1.7,-2.7,-1.8,-3.7c1.2,-.3,2.5,.6,3,1.4c.4,.8,.1,1.3,.8,1.5c.6,.3,2.4,-.8,.2,4.7c-.4,1.2,-.9,2.8,-1.7,3c-.6,-1.7,.9,-3.8,-1.5,-5.4c-.6,-.4,-.2,0,-.6,-.5Z" class="g0"/>
<path fill-rule="evenodd" d="M79.8,1190.3c-.6,-.8,.1,-2.7,-1.9,-4.3c-.9,-.6,-1.3,-.5,-2.3,-.9c-1,-.3,-1.2,-1.3,-.4,-1.7c1.9,-1.1,4,.5,4.5,1.5c.6,1.3,.7,4.1,.1,5.4Z" class="g0"/>
<path fill-rule="evenodd" d="M82.4,1193c.3,-.3,.1,-.2,.6,-.4c.2,0,.5,-.1,.7,-.1c1.5,-.1,3.5,-.1,4.6,.8c1.2,1,2.3,4.9,-.4,4.5c-.7,-1.1,-.6,-2.4,-1.7,-3.4c-1.4,-1.4,-1.9,-.9,-3.8,-1.4Z" class="g0"/>
<path d="M131.9,1242.5H791.1" class="g1"/>
<path fill-rule="evenodd" d="M880.7,1205.9c-.2,-1.3,-.8,-3.8,-1.4,-5.6c-1.5,-4.2,-5.9,-13.9,-1.1,-16.5c.6,-.3,1,-.2,1.4,-.6c-.5,-.7,-1.6,-1.1,-2.6,-.4c-1,.6,-.6,1.3,-1.9,1.7c-2.5,.7,-2.1,2.6,-2.3,5.3c-.4,.5,-.3,.2,-.7,.6c-.5,.4,-.2,.3,-.8,.7c-1.1,-.7,-4.6,-7.2,-16.8,-5.8c-11.2,1.2,-13.3,9.5,-10.7,10.7c.3,-.5,.1,-.4,.3,-.9c.2,-.5,.3,-.2,.6,-.7c.5,-.9,-.1,-1.3,.7,-2c0,0,.1,.1,.1,.1l1.1,1.7c1.5,-.8,1.1,-3.1,2.1,-4.6c.7,-1.1,2.1,-2.5,4,-2.5c-.3,.7,-1.5,1.4,-2,2.2c-.6,.8,-1,2.6,-.1,3.2l.4,-1.4c1.3,-.3,2,.1,3.1,-.6c1.9,-.9,2.7,-3.6,8.3,-3c-.6,.7,-1.9,.5,-3,1.2c-.6,.4,-1.8,1.3,-1.7,2.2c2.7,1,3,-.4,4,-.3c-.1,.7,-.2,.6,.1,1.2c1.2,.1,2.3,-.9,3.6,-1.1c1.5,-.2,3.4,.1,4.2,.9c-.6,.4,-1.5,-.1,-1.7,1.4c1.8,-.2,2.1,-.3,3.6,.5c2.6,1.3,5,5,5.8,7.8l-.9,.5c.3,1.7,1.7,1.2,2.3,3.3c.4,1.6,.1,3.7,-.4,5.1c-.1,-.2,-.9,-3.4,-1.3,-4.2c-.4,-.9,-1.6,-3.1,-1.7,-3.8c-.1,-1.6,.4,-1.8,-1.5,-3.8c-1.9,-2.1,-7.7,-6.7,-10.7,-5.3c-3.1,1.4,-1.5,-1.6,-9.3,.4c-9.3,2.5,-13.9,10.1,-23.5,9.3c-1.6,-.1,-3.2,-.6,-4.2,-1.3c-.9,-.8,-2.1,-2.4,-1.1,-3.9c.3,.1,.3,.5,.6,.9c2.4,.3,2.9,-3.1,.8,-3.6c-2.2,-.6,-3.5,1.4,-3.5,3.4c0,3.8,4.2,6.1,8.1,6.1c4.2,0,7.9,-1.3,11,-3c2.4,-1.3,7.2,-4,9.3,-4.8c8,-2.6,15.2,-2.7,20.7,3.9c1.8,2.2,4.2,6.1,3.8,10.1c-.5,4.7,-4,7.6,-7.3,6.2c.7,-.5,3.9,.3,4.7,-3.2c.5,-2.5,-1.3,-4.3,-3.2,-4.7c-5,-1.2,-8,4.2,-5.8,8.4c1.5,3.1,6.7,5.5,10.9,2.7c1.4,-.9,3.1,-2.5,3.9,-3.9c1.3,-2.3,1.3,-4.4,1.7,-5.7c.4,-2.8,-.1,-4.3,0,-4.5Z" class="g0"/>
<path fill-rule="evenodd" d="M852.9,1232.1c2.3,1.3,-.9,9,-9.4,7.1c-1.9,-.4,-4.7,-2,-6,-3c-1.8,-1.4,-3.1,-2.8,-4.3,-4.9c-2.9,-5.1,-2.1,-9.3,-.6,-15.1c.7,-2.5,1.7,-4.3,2.8,-6.3c.8,-1.4,2.8,-4.6,3.2,-6.1c-2.6,.3,-2.3,1.1,-4.1,4.1c-1,1.7,-2.1,3.4,-3,5.3c-1,2.1,-2.8,7.2,-2.3,9.8c.2,1.1,1,1.9,.4,3.4c-.6,1.5,-.7,1.7,-.1,3.3c1,3,5.2,8.6,7.4,9.2c1.8,.4,1.3,-.4,3.4,.7c1,.5,1.8,1,2.9,1.4c.8,.3,2.7,.6,3.2,.8c-.9,.8,-3.3,.8,-4.6,.6c-2.5,-.5,-1.8,-2,-3.5,-2.3c-.6,.5,-.2,.3,-.5,.9c-2.3,-.5,-4.4,-2.1,-5.8,-3.3c-.7,-.6,-1.6,-1.4,-2.1,-2.4c-.9,-1.7,-.7,-1.9,-.5,-3.7c-1.3,0,-1,.6,-1.4,1.6c-.9,-.4,-1.1,-2.5,-1,-3.9c.2,-1.5,1.4,-2.8,1.1,-3.9l-1.2,-.1c.2,-1.4,1.2,-.4,.5,-4c-2.6,.1,-2.9,4.1,-3.4,4.7c-.9,-1.7,.1,-4.9,1.6,-6.6c2.9,-3.3,1.2,-2.7,1.8,-4.5c.2,-.6,.2,-.2,1.2,-.6l.3,-.1c-2.2,-2,-4.5,1.7,-5.5,2.1c.2,-4.6,5.7,-4.9,6.1,-5.1l1,-.8c-.6,-1.1,-1.4,-.8,-1.8,-1.5c.9,-.5,1.3,-.1,2,-.5c.5,-.3,.3,-.4,.6,-.6l1.1,-.4c-.8,-1.2,-3,-1.1,-4.4,-.4c-1.3,.7,-2.3,1.7,-3.1,2.7c-3.8,4.3,-4.3,13.4,-2.3,18.4c.5,1.4,1.3,2.7,2,3.8c.4,.6,.9,1.1,1.3,1.6c.6,.5,1,.7,1.5,1.4l-1.1,1.5c-2.6,.2,-4.8,-.2,-5.4,2.2c-.4,1.5,-1.1,.9,-1.8,2c-.5,.8,-.4,2.3,.6,2.6c.3,-.5,.5,-2.6,2.7,-3.3c3.9,-1.2,11.1,1.9,14.8,3.2c3.1,1.1,6.9,1.8,10.6,1.1c15.5,-3,10.1,-20.7,.2,-16.4c-1.4,.6,-2.3,1.6,-2.7,3.3c-.5,2,.2,3.8,1.2,4.8c2.1,1.9,6.5,1.5,6.4,-3.8Z" class="g0"/>
<path fill-rule="evenodd" d="M862.9,1206.2c-.7,-1.2,-2.5,-1.1,-3.8,-.5c-2.1,1,-1.5,2.4,-2.4,2.9c-.9,-.8,-.4,-4,-4,-3.5c.1,1,.9,1.1,1,2.1c.4,2.1,-2.2,4.7,2.2,6.8c2.7,1.3,.8,3.7,-.7,2.4c-.6,-.5,-.5,-1.7,-1,-2.3c-.7,-.7,-1.7,-.5,-2.8,-.5c.1,-1.4,.9,-2.1,.1,-4c-.4,-1,-1.5,-2.2,-3,-2.1c-.4,1.9,.7,3.5,.4,4.1c-1.4,-.2,-.1,-2.3,-2.2,-4.1c-.7,-.6,-3.5,-2.5,-4.4,-1.5c-.8,1.1,1.1,3.8,1.6,4.3c1.8,2,3.6,1,4.1,2.1c-.7,.6,-4,-1.4,-4.1,.2c0,1,1.1,2,1.9,2.4c1.7,.9,2.6,.2,4.2,0c-.2,4.3,1.1,2.4,2.7,3.7c1.5,1.4,-1.1,3.6,-2.4,.8c-2,-4.3,-4.7,-1.9,-6.6,-2.1c-1.2,-.2,-1.2,-1.1,-2.2,-1c-.4,1.4,.6,2.9,2.1,3.4c.8,.2,1,0,1.4,.6c-1,1,-2,.2,-3,2.4c-.5,1.3,-.5,3.2,.6,3.7c2.3,-1.8,.6,-3.7,6.5,-3.3c1.4,0,3.1,-.2,4.4,-.6c2.2,-.9,1.4,-1.7,2.3,-2.9c.8,-.9,3.9,-.2,3.8,-6.6c-.1,-2.7,-.8,-4.3,2.5,-6.3c.6,-.3,.5,-.1,.8,-.6Z" class="g0"/>
<path fill-rule="evenodd" d="M769,1240.9v3l27.9,.1c3.2,0,4.6,-1.4,5.4,-4.1h4.1c.6,1.7,1.9,2.9,3.7,3.3c5.4,1.2,7.4,-5.2,3.7,-6.4c-1,-.4,-2.2,-.1,-2.8,.4c-1,.6,-.8,1.3,-.9,2.5c-1.6,-.7,-1.2,-3.3,-.2,-4.5c1.9,-2.3,6.4,-3.4,9.8,-2.4c2.9,.8,2.9,1.8,4.2,2.2c-.4,-2.4,-8,-7.6,-15.1,-2.4c-2.2,1.6,-2,2.9,-2.9,4.3l-5.5,.1c-.8,3.8,-.4,3.9,-4.8,3.9Z" class="g0"/>
<path fill-rule="evenodd" d="M880.3,1132.8h-3V1159c0,4,.2,4.5,-3.9,5l-.1,5.5c-.6,.5,-1.8,.8,-2.5,1.2c-3.2,1.8,-5.4,8.4,-2.9,13.2c.6,1.1,2.4,3.6,3.5,3.6c-.2,-.9,-4,-4.1,-2.2,-9.9c2,-6.5,6.4,-5.3,6.9,-3.9c-1.4,.2,-1.9,-.1,-2.6,.9c-.4,.7,-.7,1.9,-.3,2.9c1.4,3.8,7.8,1.2,6.4,-3.9c-.6,-2.1,-1.7,-2.7,-3.3,-3.6v-4c.7,-.5,1.8,-.5,2.9,-1.7c.9,-1,1.1,-1.8,1.1,-3.5Z" class="g0"/>
<path fill-rule="evenodd" d="M816.8,1215.7c.2,.6,3,1.8,2,3.5c-1.1,0,-.8,-1.1,-2.6,-.8c-.3,2.4,.9,2.8,1.7,3.2l-.5,.2c-.4,.2,-.1,-.1,-.5,.2c.2,1.6,1.2,1.6,2.2,2.3c.7,.5,1.6,2.1,.9,3.5c-.8,-.4,-1.5,-3.9,-3.5,-1.1c-1.9,-.9,-1.3,-1.8,-4.7,-1.6c-5.1,.3,-4.4,-.7,-5.2,-1.2c-.7,1.3,.1,1.6,.9,2.1c-1,1.2,-5.3,2.3,-7.5,1.7c-3.3,-.8,-1.7,-3.7,.1,-3.2c.8,.3,.6,.9,1.3,1.1c1,-1.7,-1.3,-3.8,-3.5,-2.5c-3,1.8,-1.4,7.4,5.4,5.9c1.4,-.3,4.6,-1.8,5.5,-1.7c0,1.5,-.7,1.4,0,3.5c1,-.4,.2,-.6,1.7,-1.8c2.4,-2,5.2,-1.4,7.7,0c3.3,2,6.6,5.7,7.9,5.9c-.4,-.8,-2.1,-2.3,-3.3,-4c-3.3,-5,-.6,-12.2,-3.5,-14.8c-.6,-.6,-1.8,-1.1,-2.5,-.4Z" class="g0"/>
<path fill-rule="evenodd" d="M867.1,1172.6c-1,-1,-2.2,-.3,-3.4,-.2c0,-1.2,1.3,-3.8,1.7,-5.4c1.5,-6.6,-4,-8.5,-5.9,-5.5c-1.2,2,.5,4.5,2.5,3.5c-.1,-.7,-2.3,-1.5,-.6,-2.9c2.7,-2.2,4.3,4.9,1.1,9l-.3,-.3c-.4,-.5,-.6,-1,-1.8,-.7c.1,.6,.3,.3,.7,.9c.5,.8,.4,3.5,.4,4.4c-.3,3.2,.5,2.8,1.6,4.7c-.1,0,-2.5,1.5,.1,2.9c.7,.3,.8,.1,1,.7c-1.4,.4,-2.8,0,-3.4,-.9c-.8,-1,-.8,-2.1,-2.5,-2.3l-.1,1c-.5,-.4,-.8,-2,-3.4,-1.6c-.5,1.4,.8,1.5,.8,2.6c-2.5,.7,-2.5,-1.8,-3.6,-2c-1.1,2,1.4,3.3,3,3.7c5.9,1.3,8.4,-1.3,14.3,4c.5,.4,1.5,1.3,2,1.6c-.1,-2,-10.8,-9.7,-6,-15.6c.6,-.6,1.5,-1.1,1.8,-1.6Z" class="g0"/>
<path fill-rule="evenodd" d="M869.8,1237.9c.6,.3,2.7,2.2,4.7,.2c2,-2,0,-4.1,-.2,-4.8c1.2,-.5,2.6,-.2,2.7,-2.3c.2,-1.8,-1,-2.3,-1.4,-3.4c1.1,-1,1.4,-1.4,-.1,-3.3c-4.2,-5.7,-2.2,.5,-2.1,.7c1,7,-4.7,12.9,-11.7,12c-1.2,-.1,-2.3,-.7,-3.4,-.6c0,1.1,1.6,2.2,2.3,2.7c.5,.4,1.1,.9,1.7,1c1,.1,1.2,-.4,1.6,-.8c.1,0,.1,-.1,.1,-.1c1,.5,1.8,1.6,3.5,1.4c2.2,-.2,1.7,-1.9,2.3,-2.7Z" class="g0"/>
<path fill-rule="evenodd" d="M821.4,1179.9c-.8,.5,-.4,.9,-1,1.4c-.9,-.4,-.4,-1.3,-1.6,-1.9c-.7,-.4,-2.2,-.5,-2.8,-.1c-.7,.5,-.7,2,-.4,2.9c.5,1.3,1.4,.9,2,1.7c-.5,.9,-.9,.3,-1.4,1.2c.6,1.1,1.9,1,3.5,1.3c1.6,.3,2.4,.9,3.3,1.6c1.5,1.2,4.6,4.8,5.4,4.1c1.3,-1.3,-4.8,-4.3,-5.6,-8.7c-.2,-1.2,0,-3.1,-1.4,-3.5Z" class="g0"/>
<path fill-rule="evenodd" d="M769,1237.3v1.1c4.5,.1,9.1,0,13.6,0c3.9,0,9.6,.7,12.2,-1.4c2.8,-2.4,2.1,-7.7,-2.9,-7.1c-2,.3,-3.3,2.1,-2.2,4c.9,1.4,4,1.3,3.5,-1.8c-.7,-.6,-.9,-.1,-1.2,-.9c2.1,-1.3,4.8,1.9,2.5,4.5c-1.8,1.9,-4.2,1.6,-7.4,1.6c-6,0,-12.1,0,-18.1,0Z" class="g0"/>
<path fill-rule="evenodd" d="M874.8,1132.8h-1.1c0,6,0,12,0,18c0,3.3,.3,5.7,-1.7,7.4c-2.1,1.8,-5.3,.5,-4.6,-2.5c1.3,.2,.1,.5,1.2,1.1c2.2,1.1,3.3,-2.3,1.7,-3.4c-1.8,-1.3,-3.8,.1,-4,2.2c-.5,5.1,4.7,5.7,7.1,2.7c2.1,-2.4,1.4,-8.4,1.4,-12.1c0,-4.5,0,-9,0,-13.4Z" class="g0"/>
<path fill-rule="evenodd" d="M864,1230.4c5.1,-1.4,3.1,-8.8,-2,-7.6c-5,1.2,-3.1,9,2,7.6Zm.1,-1.2c3.5,-1.5,1.2,-6.5,-2.2,-5.1c-3.3,1.3,-1.2,6.6,2.2,5.1Z" class="g0"/>
<path fill-rule="evenodd" d="M846.5,1237.3c-1.3,-.7,-4.4,0,-5.9,-3c-1,-1.9,-.9,-5.6,-2.3,-6.6c-1.4,.6,-.9,1.3,-1.6,2.2c-1.2,-1.1,-.6,-2.2,.1,-3.2c.4,-.6,1.3,-3.5,.5,-3.9c-.5,-.2,-3.6,2.6,-2.4,6.8c1.4,5.1,5.4,7.8,10.3,8c.2,0,.6,0,.7,-.1c.5,-.1,-.1,.3,.6,-.2Z" class="g0"/>
<path fill-rule="evenodd" d="M859.2,1201.1c4.3,.6,5.2,-2.9,7.1,-.8c-.8,.8,-1.8,.3,-2.2,1.7c1.6,1.5,4.6,1.1,6.6,2.2c3.3,1.7,2.2,4.9,3.1,6c1.1,-2.6,-1.2,-8.1,-4.5,-10.2c-6.2,-3.8,-10,-.3,-10.1,1.1Z" class="g0"/>
<path fill-rule="evenodd" d="M834.9,1189.3c-.4,-.3,-.7,-.3,-1,-.7c2.4,-1.6,5.9,1.7,5.3,7.9c-.1,1.2,-.8,3.2,-.7,4c1.7,-.7,1.6,-.2,1.9,-2.4c2.1,-11.6,-7.2,-13.7,-9,-9.8c-1.7,3.5,3.7,4.1,3.5,1Z" class="g0"/>
<path fill-rule="evenodd" d="M832.8,1198.3l.7,.7c1.4,1.7,3.8,1,2.4,-1.3c-.4,-.7,-.9,-.6,-1.3,-1.2c4.1,-.1,3.1,-3.2,2.3,-3.8c-.4,.2,-.1,0,-.4,.4c-.2,.1,-.2,.3,-.4,.5c-1,1.2,-2.9,.2,-4.3,.4c-.2,.4,-.2,.7,-.6,1c-.4,.4,-.4,0,-.8,.6c-.2,1.1,.3,1.7,.1,2.9c-.2,1.5,-.9,1.2,-1.4,1.9c.4,.9,3.7,1.9,3.7,-2.1Z" class="g0"/>
<path fill-rule="evenodd" d="M817.7,1191.4c.7,.9,.1,1.4,1.3,1.7c.6,-.9,.7,-1.5,2,-1.9c1.2,-.4,2.8,.2,3.7,-.3c-.4,-1.1,-2.7,-1.6,-3.9,-2c-4.3,-1.6,-3.5,0,-3.7,.9c-1.7,.5,-3.5,1.5,-2.9,3.5c.9,-.3,2,-1.6,3.5,-1.9Z" class="g0"/>
<path fill-rule="evenodd" d="M829.5,1182.5c-.4,-1,-.7,-.6,-1.7,-1c.1,-1.6,1.7,-2.7,1.8,-3.7c-1.2,-.3,-2.5,.6,-2.9,1.4c-.5,.8,-.1,1.3,-.8,1.5c-.7,.3,-2.5,-.8,-.3,4.7c.5,1.2,.9,2.8,1.7,3c.6,-1.7,-.9,-3.8,1.5,-5.4c.6,-.4,.3,0,.7,-.5Z" class="g0"/>
<path fill-rule="evenodd" d="M829.2,1190.3c.7,-.8,0,-2.7,2,-4.3c.8,-.6,1.2,-.5,2.2,-.9c1.1,-.3,1.2,-1.3,.4,-1.7c-1.9,-1.1,-3.9,.5,-4.4,1.5c-.7,1.3,-.8,4.1,-.2,5.4Z" class="g0"/>
<path fill-rule="evenodd" d="M826.6,1193c-.3,-.3,0,-.2,-.5,-.4c-.2,0,-.6,-.1,-.8,-.1c-1.5,-.1,-3.4,-.1,-4.6,.8c-1.2,1,-2.3,4.9,.4,4.5c.7,-1.1,.6,-2.4,1.7,-3.4c1.4,-1.4,2,-.9,3.8,-1.4Z" class="g0"/>
<path d="M137.6,1237.9H769.2" class="g2"/>
<path fill-rule="evenodd" d="M28.3,78.9c.3,1.3,.8,3.9,1.4,5.7c1.5,4.1,5.9,13.9,1.1,16.4c-.6,.4,-1,.2,-1.4,.7c.5,.6,1.6,1,2.6,.4c1.1,-.7,.7,-1.4,2,-1.7c2.4,-.7,2,-2.6,2.2,-5.3c.4,-.5,.3,-.2,.8,-.6c.4,-.4,.1,-.4,.7,-.7c1.2,.7,4.6,7.1,16.8,5.8C65.7,98.3,67.8,90,65.2,88.9c-.3,.5,0,.3,-.3,.8c-.2,.6,-.3,.3,-.6,.8c-.5,.9,.1,1.3,-.7,2c0,-.1,-.1,-.2,-.1,-.1L62.4,90.7c-1.5,.8,-1.1,3.1,-2,4.6c-.7,1.1,-2.2,2.5,-4.1,2.5c.3,-.7,1.5,-1.4,2.1,-2.3c.5,-.8,1,-2.5,0,-3.2l-.3,1.5c-1.4,.2,-2,-.1,-3.2,.5c-1.9,1,-2.7,3.7,-8.3,3c.6,-.6,2,-.4,3,-1.1c.6,-.4,1.9,-1.4,1.7,-2.3c-2.6,-.9,-2.9,.4,-4,.4c.1,-.7,.2,-.6,-.1,-1.3c-1.1,-.1,-2.3,1,-3.6,1.2c-1.5,.2,-3.4,-.1,-4.2,-.9c.7,-.4,1.5,0,1.7,-1.4c-1.7,.2,-2.1,.3,-3.6,-.5c-2.5,-1.3,-5,-5,-5.8,-7.8l.9,-.6c-.3,-1.7,-1.7,-1.1,-2.3,-3.2c-.4,-1.6,-.1,-3.7,.4,-5.1c.2,.2,1,3.4,1.3,4.1c.4,1,1.7,3.1,1.7,3.9c.2,1.5,-.3,1.8,1.6,3.8c1.9,2,7.7,6.6,10.6,5.3c3.1,-1.5,1.5,1.6,9.3,-.5c9.4,-2.5,14,-10,23.5,-9.3c1.6,.2,3.2,.6,4.2,1.4c.9,.7,2.2,2.3,1.2,3.9c-.4,-.1,-.4,-.6,-.6,-.9C81,86,80.5,89.5,82.6,90c2.3,.5,3.5,-1.4,3.5,-3.5c.1,-3.7,-4.2,-6.1,-8,-6.1c-4.3,0,-8,1.4,-11.1,3.1c-2.3,1.2,-7.1,4,-9.3,4.7C49.8,90.9,42.6,91,37,84.4C35.2,82.2,32.8,78.3,33.2,74.3c.6,-4.7,4,-7.7,7.3,-6.3c-.6,.6,-3.9,-.3,-4.7,3.3c-.5,2.4,1.3,4.2,3.2,4.7c5,1.1,8,-4.2,5.9,-8.5c-1.6,-3.1,-6.8,-5.4,-11,-2.7c-1.4,.9,-3.1,2.5,-3.9,4c-1.3,2.3,-1.3,4.4,-1.7,5.7c-.4,2.8,.1,4.3,0,4.4Z" class="g0"/>
<path fill-rule="evenodd" d="M56.1,52.7c-2.3,-1.2,.9,-9,9.4,-7c2,.4,4.7,2,6,3c1.8,1.4,3.1,2.8,4.3,4.9c3,5.1,2.1,9.2,.6,15.1c-.7,2.5,-1.7,4.2,-2.8,6.2c-.8,1.5,-2.8,4.7,-3.2,6.1c2.6,-.3,2.4,-1,4.2,-4.1c.9,-1.7,2,-3.3,2.9,-5.2c1,-2.1,2.8,-7.2,2.3,-9.8c-.2,-1.1,-1,-2,-.4,-3.4c.6,-1.6,.7,-1.7,.1,-3.4C78.5,52.2,74.3,46.5,72.1,46c-1.8,-.5,-1.2,.4,-3.4,-.8c-.9,-.5,-1.8,-.9,-2.8,-1.3C65,43.6,63.1,43.3,62.6,43c.9,-.7,3.3,-.8,4.7,-.5c2.4,.5,1.8,2,3.4,2.3c.6,-.5,.2,-.3,.6,-.9c2.2,.5,4.3,2.1,5.8,3.2c.7,.6,1.5,1.5,2,2.5c.9,1.7,.7,1.9,.6,3.7c1.2,-.1,.9,-.6,1.3,-1.7c.9,.5,1.1,2.6,1,3.9c-.1,1.5,-1.4,2.9,-1.1,4l1.3,.1c-.2,1.4,-1.3,.4,-.5,4c2.5,-.1,2.8,-4.1,3.3,-4.7c.9,1.7,-.1,4.9,-1.6,6.6c-2.8,3.3,-1.2,2.7,-1.8,4.4c-.2,.7,-.2,.3,-1.2,.7l-.3,.1c2.2,2,4.5,-1.7,5.5,-2.2c-.1,4.7,-5.6,5,-6.1,5.2l-1,.8c.6,1.1,1.5,.8,1.8,1.4c-.8,.6,-1.3,.2,-2,.6c-.5,.3,-.2,.3,-.6,.6l-1,.4c.7,1.1,3,1,4.3,.3c1.3,-.6,2.4,-1.7,3.1,-2.6c3.8,-4.3,4.3,-13.4,2.4,-18.5C85.9,55.4,85.2,54.1,84.4,53c-.4,-.6,-.8,-1.1,-1.3,-1.6c-.5,-.6,-1,-.8,-1.5,-1.4l1.2,-1.6c2.5,-.1,4.7,.2,5.3,-2.1c.4,-1.5,1.1,-.9,1.8,-2.1c.5,-.8,.4,-2.2,-.5,-2.6c-.3,.6,-.6,2.6,-2.8,3.3C82.7,46.2,75.6,43,71.8,41.7c-3.1,-1,-6.9,-1.7,-10.5,-1C45.7,43.7,51.1,61.4,61,57.1c1.4,-.6,2.3,-1.6,2.7,-3.3C64.2,51.7,63.6,50,62.5,49C60.4,47.1,56,47.4,56.1,52.7Z" class="g0"/>
<path fill-rule="evenodd" d="M46.2,78.7c.6,1.1,2.5,1.1,3.8,.4c2,-1,1.5,-2.4,2.3,-2.8c.9,.7,.4,3.9,4,3.5c-.1,-1.1,-.8,-1.2,-1,-2.2c-.4,-2,2.2,-4.6,-2.2,-6.7c-2.7,-1.3,-.7,-3.7,.7,-2.4c.6,.5,.5,1.6,1.1,2.2c.6,.8,1.7,.5,2.8,.5c-.2,1.5,-1,2.2,-.2,4c.4,1.1,1.5,2.3,3,2.1c.4,-1.8,-.7,-3.4,-.4,-4c1.4,.2,.1,2.2,2.2,4.1c.7,.5,3.6,2.4,4.4,1.4c.8,-1,-1,-3.7,-1.6,-4.3C63.3,72.6,61.5,73.6,61,72.4c.7,-.5,4.1,1.5,4.1,-.2c.1,-.9,-1,-2,-1.8,-2.4c-1.8,-.9,-2.7,-.1,-4.3,.1c.2,-4.3,-1.1,-2.4,-2.6,-3.8c-1.6,-1.3,1,-3.6,2.3,-.8c2,4.4,4.7,1.9,6.7,2.2c1.2,.2,1.1,1,2.1,1c.4,-1.5,-.5,-3,-2.1,-3.4c-.8,-.3,-1,0,-1.3,-.7c.9,-1,1.9,-.2,2.9,-2.3c.6,-1.4,.6,-3.2,-.6,-3.7c-2.2,1.8,-.6,3.6,-6.5,3.3c-1.3,-.1,-3.1,.1,-4.3,.6c-2.3,.8,-1.5,1.6,-2.4,2.8c-.8,1,-3.8,.3,-3.7,6.6c0,2.8,.7,4.4,-2.6,6.3c-.5,.4,-.5,.2,-.7,.7Z" class="g0"/>
<path fill-rule="evenodd" d="M140,44V40.9H112.2c-3.3,0,-4.7,1.4,-5.4,4l-4.2,.1c-.6,-1.7,-1.9,-2.9,-3.7,-3.3c-5.3,-1.2,-7.3,5.2,-3.7,6.4c1.1,.3,2.2,.1,2.9,-.4c.9,-.7,.8,-1.4,.9,-2.6c1.5,.7,1.2,3.4,.1,4.6c-1.9,2.2,-6.4,3.4,-9.7,2.4c-2.9,-.9,-3,-1.9,-4.2,-2.3c.4,2.5,7.9,7.6,15,2.5c2.3,-1.6,2,-3,2.9,-4.4l5.5,-.1c.8,-3.8,.5,-3.9,4.8,-3.9Z" class="g0"/>
<path fill-rule="evenodd" d="M28.7,152.1h3V125.8c0,-3.9,-.1,-4.4,3.9,-4.9l.1,-5.6c.6,-.4,1.8,-.8,2.5,-1.1c3.3,-1.8,5.5,-8.4,2.9,-13.2c-.5,-1.1,-2.4,-3.6,-3.5,-3.6c.2,.9,4,4,2.2,9.8c-2,6.6,-6.4,5.3,-6.9,4c1.4,-.2,1.9,0,2.6,-.9c.5,-.8,.7,-2,.3,-3c-1.4,-3.7,-7.8,-1.2,-6.3,3.9c.6,2.2,1.6,2.8,3.3,3.7l-.1,4c-.7,.4,-1.8,.5,-2.9,1.7c-.9,1,-1.1,1.8,-1.1,3.5Z" class="g0"/>
<path fill-rule="evenodd" d="M92.3,69.1c-.3,-.5,-3,-1.7,-2.1,-3.5c1.2,.1,.8,1.2,2.6,.9c.3,-2.5,-.9,-2.8,-1.7,-3.3l.5,-.2c.4,-.1,.1,.1,.6,-.1C91.9,61.3,91,61.2,89.9,60.5C89.2,60,88.3,58.4,89,57.1c.8,.4,1.6,3.8,3.5,1.1c1.9,.8,1.3,1.8,4.7,1.6c5.2,-.3,4.4,.7,5.2,1.1c.7,-1.2,-.1,-1.5,-.8,-2c.9,-1.2,5.3,-2.3,7.4,-1.8c3.3,.9,1.7,3.8,-.1,3.2c-.7,-.2,-.6,-.8,-1.3,-1.1c-1,1.7,1.3,3.8,3.5,2.6c3,-1.8,1.4,-7.4,-5.4,-5.9c-1.4,.3,-4.6,1.7,-5.4,1.6c-.1,-1.5,.7,-1.4,-.1,-3.4c-1,.4,-.2,.5,-1.7,1.7c-2.4,2.1,-5.2,1.5,-7.7,0C87.5,53.9,84.2,50.1,82.9,50c.4,.8,2.1,2.2,3.3,4c3.3,5,.6,12.2,3.5,14.8c.6,.5,1.8,1,2.6,.3Z" class="g0"/>
<path fill-rule="evenodd" d="M41.9,112.3c1,1,2.2,.2,3.5,.2c-.1,1.2,-1.4,3.8,-1.7,5.4c-1.6,6.5,3.9,8.4,5.8,5.5c1.3,-2,-.5,-4.6,-2.5,-3.6c.2,.7,2.4,1.5,.6,2.9c-2.7,2.3,-4.3,-4.8,-1,-8.9l.2,.3c.4,.5,.6,1,1.9,.6c-.2,-.6,-.4,-.3,-.8,-.9c-.4,-.8,-.4,-3.4,-.3,-4.3c.2,-3.3,-.6,-2.8,-1.6,-4.7c0,0,2.4,-1.5,-.2,-2.9c-.6,-.3,-.7,-.2,-1,-.7c1.4,-.5,2.8,0,3.5,.8c.7,1.1,.7,2.2,2.4,2.4l.1,-1.1c.6,.5,.8,2.1,3.4,1.7c.5,-1.5,-.8,-1.6,-.8,-2.6c2.5,-.8,2.5,1.8,3.6,2c1.2,-2.1,-1.4,-3.4,-3,-3.7c-5.9,-1.3,-8.3,1.3,-14.3,-4c-.5,-.4,-1.5,-1.4,-2,-1.6c.1,2,10.8,9.7,6,15.5c-.5,.7,-1.5,1.2,-1.8,1.7Z" class="g0"/>
<path fill-rule="evenodd" d="M39.3,47c-.7,-.3,-2.8,-2.3,-4.8,-.2c-2,2,.1,4.1,.2,4.7c-1.2,.6,-2.6,.2,-2.7,2.3c-.1,1.8,1.1,2.3,1.5,3.5c-1.2,1,-1.4,1.4,0,3.3c4.2,5.6,2.2,-.6,2.2,-.8c-1,-6.9,4.6,-12.8,11.6,-12c1.2,.2,2.3,.8,3.5,.6c-.1,-1.1,-1.7,-2.1,-2.4,-2.7c-.5,-.3,-1.1,-.8,-1.7,-.9c-1,-.1,-1.2,.3,-1.6,.8c0,0,-.1,.1,-.1,.1C44,45.1,43.2,44,41.5,44.2c-2.2,.2,-1.7,1.9,-2.2,2.8Z" class="g0"/>
<path fill-rule="evenodd" d="M87.6,105c.8,-.5,.5,-.9,1.1,-1.4c.9,.4,.3,1.3,1.5,1.9c.7,.4,2.2,.5,2.9,0c.6,-.4,.6,-2,.3,-2.8c-.4,-1.3,-1.3,-.9,-2,-1.7c.5,-.9,.9,-.3,1.4,-1.3c-.6,-1.1,-1.9,-1,-3.5,-1.3C87.7,98.2,86.9,97.6,86,96.9C84.5,95.7,81.4,92.1,80.6,92.8c-1.3,1.2,4.8,4.2,5.6,8.7c.2,1.1,.1,3,1.4,3.5Z" class="g0"/>
<path fill-rule="evenodd" d="M140,47.6V46.4c-4.5,0,-9,0,-13.6,0c-3.9,0,-9.6,-.6,-12.1,1.5c-2.9,2.4,-2.2,7.7,2.9,7c1.9,-.2,3.3,-2,2.1,-3.9c-.8,-1.4,-4,-1.4,-3.5,1.8c.7,.6,.9,.1,1.2,.9c-2.1,1.2,-4.8,-2,-2.5,-4.5c1.8,-2,4.3,-1.6,7.4,-1.6c6,0,12.1,0,18.1,0Z" class="g0"/>
<path fill-rule="evenodd" d="M34.2,152.1h1.1c.1,-6,0,-12.1,0,-18.1c0,-3.2,-.3,-5.6,1.8,-7.4c2.1,-1.7,5.3,-.4,4.5,2.6c-1.3,-.3,-.1,-.6,-1.2,-1.1c-2.1,-1.1,-3.3,2.3,-1.7,3.4c1.9,1.2,3.8,-.2,4,-2.2c.6,-5.1,-4.7,-5.7,-7.1,-2.8c-2,2.5,-1.4,8.5,-1.4,12.2c0,4.5,0,8.9,0,13.4Z" class="g0"/>
<path fill-rule="evenodd" d="M45,54.4c-5,1.4,-3,8.9,2,7.7C52,60.9,50.1,53,45,54.4Zm0,1.3c-3.5,1.5,-1.2,6.5,2.1,5.1C50.4,59.4,48.3,54.2,45,55.7Z" class="g0"/>
<path fill-rule="evenodd" d="M62.5,47.5c1.4,.7,4.4,0,6,3c1,2,.8,5.6,2.2,6.7c1.4,-.6,.9,-1.3,1.7,-2.3c1.2,1.1,.5,2.2,-.2,3.3c-.3,.5,-1.3,3.5,-.5,3.8c.5,.3,3.6,-2.6,2.4,-6.7c-1.4,-5.1,-5.4,-7.9,-10.3,-8c-.2,0,-.5,0,-.7,0c-.5,.1,.1,-.2,-.6,.2Z" class="g0"/>
<path fill-rule="evenodd" d="M49.9,83.8c-4.4,-.6,-5.3,2.9,-7.2,.8c.8,-.8,1.9,-.3,2.2,-1.7C43.3,81.4,40.4,81.7,38.3,80.7c-3.3,-1.8,-2.2,-5,-3.1,-6c-1.1,2.6,1.2,8,4.5,10.1c6.2,3.9,10.1,.4,10.2,-1Z" class="g0"/>
<path fill-rule="evenodd" d="M74.1,95.5c.4,.4,.8,.3,1,.8c-2.4,1.6,-5.9,-1.8,-5.3,-7.9c.1,-1.2,.8,-3.3,.7,-4.1c-1.7,.8,-1.5,.3,-1.9,2.5c-2,11.6,7.2,13.7,9,9.7c1.7,-3.5,-3.7,-4.1,-3.5,-1Z" class="g0"/>
<path fill-rule="evenodd" d="M76.2,86.6l-.7,-.7c-1.4,-1.8,-3.7,-1,-2.4,1.2c.4,.7,1,.7,1.3,1.3c-4,.1,-3.1,3.2,-2.3,3.7c.4,-.1,.2,0,.4,-.3c.2,-.2,.2,-.3,.4,-.5c1.1,-1.2,3,-.2,4.3,-.5c.2,-.3,.3,-.6,.6,-.9c.4,-.4,.4,-.1,.9,-.7c.1,-1.1,-.4,-1.7,-.2,-2.9c.2,-1.4,1,-1.1,1.5,-1.9c-.4,-.8,-3.8,-1.9,-3.8,2.2Z" class="g0"/>
<path fill-rule="evenodd" d="M91.3,93.4C90.6,92.6,91.2,92,90,91.8c-.6,.9,-.7,1.5,-2,1.9c-1.2,.4,-2.8,-.3,-3.7,.3c.4,1.1,2.8,1.6,3.9,2c4.4,1.5,3.6,0,3.8,-1c1.6,-.4,3.4,-1.4,2.8,-3.5c-.9,.4,-2,1.7,-3.5,1.9Z" class="g0"/>
<path fill-rule="evenodd" d="M79.6,102.3c.3,1,.7,.6,1.6,1.1c0,1.5,-1.7,2.7,-1.8,3.6c1.2,.3,2.5,-.5,3,-1.4c.4,-.8,.1,-1.2,.8,-1.5c.6,-.2,2.4,.8,.2,-4.7C83,98.3,82.5,96.6,81.7,96.5c-.6,1.6,.9,3.8,-1.5,5.4c-.6,.3,-.2,-.1,-.6,.4Z" class="g0"/>
<path fill-rule="evenodd" d="M79.8,94.6c-.6,.8,.1,2.7,-1.9,4.3c-.9,.6,-1.3,.5,-2.3,.8c-1,.4,-1.2,1.3,-.4,1.8c1.9,1,4,-.5,4.5,-1.5c.6,-1.3,.7,-4.1,.1,-5.4Z" class="g0"/>
<path fill-rule="evenodd" d="M82.4,91.9c.3,.3,.1,.2,.6,.3c.2,.1,.5,.1,.7,.1c1.5,.2,3.5,.1,4.6,-.8c1.2,-.9,2.3,-4.8,-.4,-4.5c-.7,1.1,-.6,2.5,-1.7,3.5c-1.4,1.4,-1.9,.9,-3.8,1.4Z" class="g0"/>
<path d="M131.1,42.4h660" class="g1"/>
<path fill-rule="evenodd" d="M880.7,78.9c-.2,1.3,-.8,3.9,-1.4,5.7c-1.5,4.1,-5.9,13.9,-1.1,16.4c.6,.4,1,.2,1.4,.7c-.5,.6,-1.6,1,-2.6,.4c-1,-.7,-.6,-1.4,-1.9,-1.7c-2.5,-.7,-2.1,-2.6,-2.3,-5.3c-.4,-.5,-.3,-.2,-.7,-.6c-.5,-.4,-.2,-.4,-.8,-.7c-1.1,.7,-4.6,7.1,-16.8,5.8C843.3,98.3,841.2,90,843.8,88.9c.3,.5,.1,.3,.3,.8c.2,.6,.3,.3,.6,.8c.5,.9,-.1,1.3,.7,2c0,-.1,.1,-.2,.1,-.1l1.1,-1.7c1.5,.8,1.1,3.1,2.1,4.6c.7,1.1,2.1,2.5,4,2.5c-.3,-.7,-1.5,-1.4,-2,-2.3c-.6,-.8,-1,-2.5,-.1,-3.2l.4,1.5c1.3,.2,2,-.1,3.1,.5c1.9,1,2.7,3.7,8.3,3c-.6,-.6,-1.9,-.4,-3,-1.1c-.6,-.4,-1.8,-1.4,-1.7,-2.3c2.7,-.9,3,.4,4,.4c-.1,-.7,-.2,-.6,.1,-1.3c1.2,-.1,2.3,1,3.6,1.2c1.5,.2,3.4,-.1,4.2,-.9c-.6,-.4,-1.5,0,-1.7,-1.4c1.8,.2,2.1,.3,3.6,-.5c2.6,-1.3,5,-5,5.8,-7.8l-.9,-.6c.3,-1.7,1.7,-1.1,2.3,-3.2c.4,-1.6,.1,-3.7,-.4,-5.1c-.1,.2,-.9,3.4,-1.3,4.1c-.4,1,-1.6,3.1,-1.7,3.9c-.1,1.5,.4,1.8,-1.5,3.8c-1.9,2,-7.7,6.6,-10.7,5.3c-3.1,-1.5,-1.5,1.6,-9.3,-.5C844.5,88.8,839.9,81.3,830.3,82c-1.6,.2,-3.2,.6,-4.2,1.4c-.9,.7,-2.1,2.3,-1.1,3.9c.3,-.1,.3,-.6,.6,-.9c2.4,-.4,2.9,3.1,.8,3.6c-2.2,.5,-3.5,-1.4,-3.5,-3.5c0,-3.7,4.2,-6.1,8.1,-6.1c4.2,0,7.9,1.4,11,3.1c2.4,1.2,7.2,4,9.3,4.7c8,2.7,15.2,2.8,20.7,-3.8c1.8,-2.2,4.2,-6.1,3.8,-10.1c-.5,-4.7,-4,-7.7,-7.3,-6.3c.7,.6,3.9,-.3,4.7,3.3c.5,2.4,-1.3,4.2,-3.2,4.7c-5,1.1,-8,-4.2,-5.8,-8.5c1.5,-3.1,6.7,-5.4,10.9,-2.7c1.4,.9,3.1,2.5,3.9,4c1.3,2.3,1.3,4.4,1.7,5.7c.4,2.8,-.1,4.3,0,4.4Z" class="g0"/>
<path fill-rule="evenodd" d="M852.9,52.7c2.3,-1.2,-.9,-9,-9.4,-7c-1.9,.4,-4.7,2,-6,3c-1.8,1.4,-3.1,2.8,-4.3,4.9c-2.9,5.1,-2.1,9.2,-.6,15.1c.7,2.5,1.7,4.2,2.8,6.2c.8,1.5,2.8,4.7,3.2,6.1c-2.6,-.3,-2.3,-1,-4.1,-4.1c-1,-1.7,-2.1,-3.3,-3,-5.2c-1,-2.1,-2.8,-7.2,-2.3,-9.8c.2,-1.1,1,-2,.4,-3.4c-.6,-1.6,-.7,-1.7,-.1,-3.4c1,-2.9,5.2,-8.6,7.4,-9.1c1.8,-.5,1.3,.4,3.4,-.8c1,-.5,1.8,-.9,2.9,-1.3c.8,-.3,2.7,-.6,3.2,-.9c-.9,-.7,-3.3,-.8,-4.6,-.5c-2.5,.5,-1.8,2,-3.5,2.3c-.6,-.5,-.2,-.3,-.5,-.9c-2.3,.5,-4.4,2.1,-5.8,3.2c-.7,.6,-1.6,1.5,-2.1,2.5c-.9,1.7,-.7,1.9,-.5,3.7c-1.3,-.1,-1,-.6,-1.4,-1.7c-.9,.5,-1.1,2.6,-1,3.9c.2,1.5,1.4,2.9,1.1,4l-1.2,.1c.2,1.4,1.2,.4,.5,4c-2.6,-.1,-2.9,-4.1,-3.4,-4.7c-.9,1.7,.1,4.9,1.6,6.6c2.9,3.3,1.2,2.7,1.8,4.4c.2,.7,.2,.3,1.2,.7l.3,.1c-2.2,2,-4.5,-1.7,-5.5,-2.2c.2,4.7,5.7,5,6.1,5.2l1,.8c-.6,1.1,-1.4,.8,-1.8,1.4c.9,.6,1.3,.2,2,.6c.5,.3,.3,.3,.6,.6l1.1,.4c-.8,1.1,-3,1,-4.4,.3c-1.3,-.6,-2.3,-1.7,-3.1,-2.6c-3.8,-4.3,-4.3,-13.4,-2.3,-18.5c.5,-1.3,1.3,-2.6,2,-3.7c.4,-.6,.9,-1.1,1.3,-1.6c.6,-.6,1,-.8,1.5,-1.4l-1.1,-1.6c-2.6,-.1,-4.8,.2,-5.4,-2.1c-.4,-1.5,-1.1,-.9,-1.8,-2.1c-.5,-.8,-.4,-2.2,.6,-2.6c.3,.6,.5,2.6,2.7,3.3c3.9,1.3,11.1,-1.9,14.8,-3.2c3.1,-1,6.9,-1.7,10.6,-1c15.5,3,10.1,20.7,.2,16.4c-1.4,-.6,-2.3,-1.6,-2.7,-3.3c-.5,-2.1,.2,-3.8,1.2,-4.8c2.1,-1.9,6.5,-1.6,6.4,3.7Z" class="g0"/>
<path fill-rule="evenodd" d="M862.9,78.7c-.7,1.1,-2.5,1.1,-3.8,.4c-2.1,-1,-1.5,-2.4,-2.4,-2.8c-.9,.7,-.4,3.9,-4,3.5c.1,-1.1,.9,-1.2,1,-2.2c.4,-2,-2.2,-4.6,2.2,-6.7c2.7,-1.3,.8,-3.7,-.7,-2.4c-.6,.5,-.5,1.6,-1,2.2c-.7,.8,-1.7,.5,-2.8,.5c.1,1.5,.9,2.2,.1,4c-.4,1.1,-1.5,2.3,-3,2.1c-.4,-1.8,.7,-3.4,.4,-4c-1.4,.2,-.1,2.2,-2.2,4.1c-.7,.5,-3.5,2.4,-4.4,1.4c-.8,-1,1.1,-3.7,1.6,-4.3c1.8,-1.9,3.6,-.9,4.1,-2.1c-.7,-.5,-4,1.5,-4.1,-.2c0,-.9,1.1,-2,1.9,-2.4c1.7,-.9,2.6,-.1,4.2,.1c-.2,-4.3,1.1,-2.4,2.7,-3.8c1.5,-1.3,-1.1,-3.6,-2.4,-.8c-2,4.4,-4.7,1.9,-6.6,2.2c-1.2,.2,-1.2,1,-2.2,1c-.4,-1.5,.6,-3,2.1,-3.4c.8,-.3,1,0,1.4,-.7c-1,-1,-2,-.2,-3,-2.3c-.5,-1.4,-.5,-3.2,.6,-3.7c2.3,1.8,.6,3.6,6.5,3.3c1.4,-.1,3.1,.1,4.4,.6c2.2,.8,1.4,1.6,2.3,2.8c.8,1,3.9,.3,3.8,6.6c-.1,2.8,-.8,4.4,2.5,6.3c.6,.4,.5,.2,.8,.7Z" class="g0"/>
<path fill-rule="evenodd" d="M769,44V40.9h27.9c3.2,0,4.6,1.4,5.4,4l4.1,.1c.6,-1.7,1.9,-2.9,3.7,-3.3c5.4,-1.2,7.4,5.2,3.7,6.4c-1,.3,-2.2,.1,-2.8,-.4c-1,-.7,-.8,-1.4,-.9,-2.6c-1.6,.7,-1.2,3.4,-.2,4.6c1.9,2.2,6.4,3.4,9.8,2.4c2.9,-.9,2.9,-1.9,4.2,-2.3c-.4,2.5,-8,7.6,-15.1,2.5c-2.2,-1.6,-2,-3,-2.9,-4.4l-5.5,-.1c-.8,-3.8,-.4,-3.9,-4.8,-3.9Z" class="g0"/>
<path fill-rule="evenodd" d="M880.3,152.1h-3V125.8c0,-3.9,.2,-4.4,-3.9,-4.9l-.1,-5.6c-.6,-.4,-1.8,-.8,-2.5,-1.1c-3.2,-1.8,-5.4,-8.4,-2.9,-13.2c.6,-1.1,2.4,-3.6,3.5,-3.6c-.2,.9,-4,4,-2.2,9.8c2,6.6,6.4,5.3,6.9,4c-1.4,-.2,-1.9,0,-2.6,-.9c-.4,-.8,-.7,-2,-.3,-3c1.4,-3.7,7.8,-1.2,6.4,3.9c-.6,2.2,-1.7,2.8,-3.3,3.7v4c.7,.4,1.8,.5,2.9,1.7c.9,1,1.1,1.8,1.1,3.5Z" class="g0"/>
<path fill-rule="evenodd" d="M816.8,69.1c.2,-.5,3,-1.7,2,-3.5c-1.1,.1,-.8,1.2,-2.6,.9c-.3,-2.5,.9,-2.8,1.7,-3.3l-.5,-.2c-.4,-.1,-.1,.1,-.5,-.1c.2,-1.6,1.2,-1.7,2.2,-2.4c.7,-.5,1.6,-2.1,.9,-3.4c-.8,.4,-1.5,3.8,-3.5,1.1c-1.9,.8,-1.3,1.8,-4.7,1.6c-5.1,-.3,-4.4,.7,-5.2,1.1c-.7,-1.2,.1,-1.5,.9,-2c-1,-1.2,-5.3,-2.3,-7.5,-1.8c-3.3,.9,-1.7,3.8,.1,3.2c.8,-.2,.6,-.8,1.3,-1.1c1,1.7,-1.3,3.8,-3.5,2.6c-3,-1.8,-1.4,-7.4,5.4,-5.9c1.4,.3,4.6,1.7,5.5,1.6c0,-1.5,-.7,-1.4,0,-3.4c1,.4,.2,.5,1.7,1.7c2.4,2.1,5.2,1.5,7.7,0c3.3,-1.9,6.6,-5.7,7.9,-5.8c-.4,.8,-2.1,2.2,-3.3,4c-3.3,5,-.6,12.2,-3.5,14.8c-.6,.5,-1.8,1,-2.5,.3Z" class="g0"/>
<path fill-rule="evenodd" d="M867.1,112.3c-1,1,-2.2,.2,-3.4,.2c0,1.2,1.3,3.8,1.7,5.4c1.5,6.5,-4,8.4,-5.9,5.5c-1.2,-2,.5,-4.6,2.5,-3.6c-.1,.7,-2.3,1.5,-.6,2.9c2.7,2.3,4.3,-4.8,1.1,-8.9l-.3,.3c-.4,.5,-.6,1,-1.8,.6c.1,-.6,.3,-.3,.7,-.9c.5,-.8,.4,-3.4,.4,-4.3c-.3,-3.3,.5,-2.8,1.6,-4.7c-.1,0,-2.5,-1.5,.1,-2.9c.7,-.3,.8,-.2,1,-.7c-1.4,-.5,-2.8,0,-3.4,.8c-.8,1.1,-.8,2.2,-2.5,2.4l-.1,-1.1c-.5,.5,-.8,2.1,-3.4,1.7c-.5,-1.5,.8,-1.6,.8,-2.6c-2.5,-.8,-2.5,1.8,-3.6,2c-1.1,-2.1,1.4,-3.4,3,-3.7c5.9,-1.3,8.4,1.3,14.3,-4c.5,-.4,1.5,-1.4,2,-1.6c-.1,2,-10.8,9.7,-6,15.5c.6,.7,1.5,1.2,1.8,1.7Z" class="g0"/>
<path fill-rule="evenodd" d="M869.8,47c.6,-.3,2.7,-2.3,4.7,-.2c2,2,0,4.1,-.2,4.7c1.2,.6,2.6,.2,2.7,2.3c.2,1.8,-1,2.3,-1.4,3.5c1.1,1,1.4,1.4,-.1,3.3c-4.2,5.6,-2.2,-.6,-2.1,-.8c1,-6.9,-4.7,-12.8,-11.7,-12c-1.2,.2,-2.3,.8,-3.4,.6c0,-1.1,1.6,-2.1,2.3,-2.7c.5,-.3,1.1,-.8,1.7,-.9c1,-.1,1.2,.3,1.6,.8c.1,0,.1,.1,.1,.1c1,-.6,1.8,-1.7,3.5,-1.5c2.2,.2,1.7,1.9,2.3,2.8Z" class="g0"/>
<path fill-rule="evenodd" d="M821.4,105c-.8,-.5,-.4,-.9,-1,-1.4c-.9,.4,-.4,1.3,-1.6,1.9c-.7,.4,-2.2,.5,-2.8,0c-.7,-.4,-.7,-2,-.4,-2.8c.5,-1.3,1.4,-.9,2,-1.7c-.5,-.9,-.9,-.3,-1.4,-1.3c.6,-1.1,1.9,-1,3.5,-1.3c1.6,-.2,2.4,-.8,3.3,-1.5c1.5,-1.2,4.6,-4.8,5.4,-4.1c1.3,1.2,-4.8,4.2,-5.6,8.7c-.2,1.1,0,3,-1.4,3.5Z" class="g0"/>
<path fill-rule="evenodd" d="M769,47.6V46.4c4.5,0,9.1,0,13.6,0c3.9,0,9.6,-.6,12.2,1.5c2.8,2.4,2.1,7.7,-2.9,7c-2,-.2,-3.3,-2,-2.2,-3.9c.9,-1.4,4,-1.4,3.5,1.8c-.7,.6,-.9,.1,-1.2,.9c2.1,1.2,4.8,-2,2.5,-4.5c-1.8,-2,-4.2,-1.6,-7.4,-1.6c-6,0,-12.1,0,-18.1,0Z" class="g0"/>
<path fill-rule="evenodd" d="M874.8,152.1h-1.1c0,-6,0,-12.1,0,-18.1c0,-3.2,.3,-5.6,-1.7,-7.4c-2.1,-1.7,-5.3,-.4,-4.6,2.6c1.3,-.3,.1,-.6,1.2,-1.1c2.2,-1.1,3.3,2.3,1.7,3.4c-1.8,1.2,-3.8,-.2,-4,-2.2c-.5,-5.1,4.7,-5.7,7.1,-2.8c2.1,2.5,1.4,8.5,1.4,12.2c0,4.5,0,8.9,0,13.4Z" class="g0"/>
<path fill-rule="evenodd" d="M864,54.4c5.1,1.4,3.1,8.9,-2,7.7c-5,-1.2,-3.1,-9.1,2,-7.7Zm.1,1.3c3.5,1.5,1.2,6.5,-2.2,5.1c-3.3,-1.4,-1.2,-6.6,2.2,-5.1Z" class="g0"/>
<path fill-rule="evenodd" d="M846.5,47.5c-1.3,.7,-4.4,0,-5.9,3c-1,2,-.9,5.6,-2.3,6.7c-1.4,-.6,-.9,-1.3,-1.6,-2.3c-1.2,1.1,-.6,2.2,.1,3.3c.4,.5,1.3,3.5,.5,3.8c-.5,.3,-3.6,-2.6,-2.4,-6.7c1.4,-5.1,5.4,-7.9,10.3,-8c.2,0,.6,0,.7,0c.5,.1,-.1,-.2,.6,.2Z" class="g0"/>
<path fill-rule="evenodd" d="M859.2,83.8c4.3,-.6,5.2,2.9,7.1,.8c-.8,-.8,-1.8,-.3,-2.2,-1.7c1.6,-1.5,4.6,-1.2,6.6,-2.2c3.3,-1.8,2.2,-5,3.1,-6c1.1,2.6,-1.2,8,-4.5,10.1c-6.2,3.9,-10,.4,-10.1,-1Z" class="g0"/>
<path fill-rule="evenodd" d="M834.9,95.5c-.4,.4,-.7,.3,-1,.8c2.4,1.6,5.9,-1.8,5.3,-7.9c-.1,-1.2,-.8,-3.3,-.7,-4.1c1.7,.8,1.6,.3,1.9,2.5c2.1,11.6,-7.2,13.7,-9,9.7c-1.7,-3.5,3.7,-4.1,3.5,-1Z" class="g0"/>
<path fill-rule="evenodd" d="M832.8,86.6l.7,-.7c1.4,-1.8,3.8,-1,2.4,1.2c-.4,.7,-.9,.7,-1.3,1.3c4.1,.1,3.1,3.2,2.3,3.7c-.4,-.1,-.1,0,-.4,-.3c-.2,-.2,-.2,-.3,-.4,-.5c-1,-1.2,-2.9,-.2,-4.3,-.5c-.2,-.3,-.2,-.6,-.6,-.9c-.4,-.4,-.4,-.1,-.8,-.7c-.2,-1.1,.3,-1.7,.1,-2.9c-.2,-1.4,-.9,-1.1,-1.4,-1.9c.4,-.8,3.7,-1.9,3.7,2.2Z" class="g0"/>
<path fill-rule="evenodd" d="M817.7,93.4c.7,-.8,.1,-1.4,1.3,-1.6c.6,.9,.7,1.5,2,1.9c1.2,.4,2.8,-.3,3.7,.3c-.4,1.1,-2.7,1.6,-3.9,2c-4.3,1.5,-3.5,0,-3.7,-1c-1.7,-.4,-3.5,-1.4,-2.9,-3.5c.9,.4,2,1.7,3.5,1.9Z" class="g0"/>
<path fill-rule="evenodd" d="M829.5,102.3c-.4,1,-.7,.6,-1.7,1.1c.1,1.5,1.7,2.7,1.8,3.6c-1.2,.3,-2.5,-.5,-2.9,-1.4c-.5,-.8,-.1,-1.2,-.8,-1.5c-.7,-.2,-2.5,.8,-.3,-4.7c.5,-1.1,.9,-2.8,1.7,-2.9c.6,1.6,-.9,3.8,1.5,5.4c.6,.3,.3,-.1,.7,.4Z" class="g0"/>
<path fill-rule="evenodd" d="M829.2,94.6c.7,.8,0,2.7,2,4.3c.8,.6,1.2,.5,2.2,.8c1.1,.4,1.2,1.3,.4,1.8c-1.9,1,-3.9,-.5,-4.4,-1.5c-.7,-1.3,-.8,-4.1,-.2,-5.4Z" class="g0"/>
<path fill-rule="evenodd" d="M826.6,91.9c-.3,.3,0,.2,-.5,.3c-.2,.1,-.6,.1,-.8,.1c-1.5,.2,-3.4,.1,-4.6,-.8c-1.2,-.9,-2.3,-4.8,.4,-4.5c.7,1.1,.6,2.5,1.7,3.5c1.4,1.4,2,.9,3.8,1.4Z" class="g0"/>
<path d="M137.6,47H769.2" class="g2"/>
<path d="M30.2,150.8v1006" class="g1"/>
<path d="M34.8,150.2V1153.4" class="g2"/>
<path d="M878.8,150.9v1006" class="g1"/>
<path d="M874.2,150.3V1153.5" class="g2"/>
<path d="M862.7,27.2H46.3C31.9,27.2,20.1,39,20.1,53.4V1231.5c0,14.4,11.8,26.2,26.2,26.2H862.7c14.4,0,26.2,-11.8,26.2,-26.2V53.4C888.9,39,877.1,27.2,862.7,27.2Z" class="g3"/>
<path fill-rule="evenodd" d="M765,691.2H144V643.5H765Z" class="g4"/>
<path d="M411.2,643.5V884.3M602.6,643.5V884.3" class="g5"/>
<path d="M144,643.5H765V884.3H144Z" class="g6"/>
<path d="M388.9,967.9c0,-3.3,.5,-5.8,1.7,-7.5c1.1,-1.7,2.8,-2.6,5.1,-2.6c1.2,0,2.2,.3,3.1,.7c.8,.5,1.5,1.2,2.1,2.1c.5,.8,.9,1.9,1.2,3.1c.3,1.3,.4,2.6,.4,4.2c0,3.2,-.6,5.7,-1.7,7.4c-1.2,1.7,-2.9,2.6,-5.1,2.6c-1.2,0,-2.3,-.3,-3.1,-.7c-.9,-.5,-1.6,-1.2,-2.1,-2c-.6,-.9,-1,-2,-1.2,-3.2c-.3,-1.2,-.4,-2.6,-.4,-4.1Zm3.6,0c0,.9,.1,1.8,.2,2.7c.1,.8,.3,1.5,.5,2.1c.3,.6,.6,1.1,1,1.4c.4,.4,.9,.6,1.5,.6c1,0,1.8,-.6,2.4,-1.7c.5,-1,.8,-2.8,.8,-5.1c0,-1,-.1,-1.9,-.2,-2.7c-.1,-.8,-.3,-1.6,-.5,-2.2c-.3,-.6,-.6,-1.1,-1,-1.4c-.4,-.4,-.9,-.6,-1.5,-.6c-2.1,0,-3.2,2.3,-3.2,6.9Z" class="g0"/>
<path d="M408.5,970.9l.3,2.2h.2l.3,-2.2l1.7,-7.2h3.5l-4.6,13.9h-2.2l-4.9,-13.9h3.8Z" class="g0"/>
<path d="M424.4,976.5c-.4,.4,-1,.7,-1.8,.9c-.8,.3,-1.6,.4,-2.5,.4c-1,0,-1.8,-.1,-2.5,-.5c-.7,-.3,-1.2,-.8,-1.7,-1.4c-.4,-.6,-.7,-1.4,-.9,-2.3c-.2,-.8,-.3,-1.9,-.3,-3c0,-2.5,.4,-4.3,1.4,-5.5c1,-1.2,2.4,-1.8,4.1,-1.8c.6,0,1.2,.1,1.7,.3c.6,.2,1.1,.5,1.5,.9c.4,.4,.8,.9,1,1.6c.3,.7,.4,1.6,.4,2.6c0,.4,0,.9,0,1.3c-.1,.5,-.2,1,-.2,1.5h-6.7c0,1.1,.2,2,.7,2.6c.4,.6,1.1,.9,2.1,.9c.6,0,1.1,-.1,1.6,-.2c.5,-.2,.9,-.4,1.1,-.6Zm-4.2,-10.4c-.7,0,-1.3,.3,-1.6,.9c-.4,.5,-.6,1.3,-.6,2.3h3.8c0,-1,-.1,-1.8,-.4,-2.3c-.2,-.6,-.7,-.9,-1.2,-.9Z" class="g0"/>
<path d="M433.4,967c-.4,-.2,-.8,-.3,-1.2,-.3c-.5,0,-.9,.2,-1.3,.4c-.3,.3,-.6,.7,-.7,1.2v9.2h-3.3V963.7h2.5l.4,1.7h.1c.3,-.6,.6,-1.1,1,-1.4c.5,-.4,1,-.5,1.6,-.5c.4,0,.9,0,1.3,.2Z" class="g0"/>
<path d="M435,964.6c.6,-.4,1.2,-.6,2.1,-.8c.8,-.2,1.7,-.3,2.8,-.3c1.5,0,2.6,.4,3.2,1.2c.6,.8,.9,1.9,.9,3.4c0,.9,0,1.7,0,2.5c-.1,.9,-.1,1.7,-.1,2.5c0,.8,0,1.6,0,2.3c.1,.7,.2,1.4,.4,2.1h-2.7l-.5,-1.7H441c-.3,.6,-.7,1,-1.2,1.3c-.6,.4,-1.2,.6,-2,.6c-1.1,0,-2,-.4,-2.6,-1.1c-.6,-.7,-.9,-1.7,-.9,-2.9c0,-1.7,.5,-2.8,1.7,-3.5c1.2,-.7,2.8,-1,4.8,-.9c.1,-1.1,0,-1.9,-.2,-2.3c-.3,-.5,-.7,-.7,-1.5,-.7c-.6,0,-1.1,0,-1.7,.1c-.6,.2,-1.1,.4,-1.6,.6Zm3.9,10.3c.5,0,.9,-.2,1.2,-.4c.4,-.3,.6,-.5,.7,-.8v-2.3c-.4,-.1,-.8,-.1,-1.2,0c-.4,0,-.7,.1,-1,.2c-.3,.1,-.5,.3,-.7,.6c-.2,.2,-.3,.5,-.3,.9c0,.6,.2,1,.4,1.3c.2,.3,.5,.5,.9,.5Z" class="g0"/>
<path d="M449.7,973c0,.7,0,1.1,.2,1.4c.1,.3,.3,.4,.6,.4c.1,0,.3,0,.5,0c.2,-.1,.4,-.1,.6,-.2l.3,2.6c-.2,.1,-.6,.3,-1.1,.4c-.6,.1,-1.1,.2,-1.7,.2c-.9,0,-1.6,-.2,-2,-.7c-.5,-.4,-.7,-1.2,-.7,-2.3V958.2h3.3Z" class="g0"/>
<path d="M456.3,973c0,.7,.1,1.1,.2,1.4c.2,.3,.4,.4,.7,.4c.1,0,.3,0,.5,0c.1,-.1,.3,-.1,.6,-.2l.3,2.6c-.3,.1,-.6,.3,-1.2,.4c-.5,.1,-1,.2,-1.6,.2c-.9,0,-1.6,-.2,-2,-.7c-.5,-.4,-.7,-1.2,-.7,-2.3V958.2h3.2Z" class="g0"/>
<path d="M470.9,967.5h5.9V976c-.6,.7,-1.4,1.2,-2.3,1.4c-1,.3,-1.9,.5,-2.8,.5c-1,0,-2,-.2,-2.9,-.6c-.9,-.4,-1.6,-1,-2.2,-1.8c-.7,-.8,-1.1,-1.9,-1.5,-3.1c-.3,-1.3,-.5,-2.8,-.5,-4.5c0,-1.9,.2,-3.4,.6,-4.7c.4,-1.3,1,-2.3,1.6,-3.1c.7,-.8,1.5,-1.4,2.4,-1.7c.9,-.4,1.8,-.6,2.8,-.6c.9,0,1.7,.1,2.4,.3c.7,.1,1.3,.3,1.8,.5l-.7,3c-.4,-.2,-.8,-.3,-1.3,-.4c-.5,-.1,-1.1,-.2,-1.8,-.2c-.6,0,-1.2,.2,-1.7,.4c-.5,.3,-1,.7,-1.3,1.2c-.4,.6,-.7,1.3,-.9,2.2c-.2,.8,-.2,1.9,-.2,3.1c0,2.3,.3,4,1,5.1c.7,1.1,1.6,1.7,2.8,1.7c.4,0,.7,-.1,1.1,-.2c.3,-.1,.6,-.3,.9,-.5v-4l-3.2,-.4Z" class="g0"/>
<path d="M485.3,967c-.4,-.2,-.8,-.3,-1.2,-.3c-.5,0,-.9,.2,-1.3,.4c-.3,.3,-.6,.7,-.7,1.2v9.2h-3.3V963.7h2.5l.4,1.7h.1c.2,-.6,.6,-1.1,1,-1.4c.5,-.4,1,-.5,1.6,-.5c.4,0,.9,0,1.3,.2Z" class="g0"/>
<path d="M486.9,964.6c.5,-.4,1.2,-.6,2.1,-.8c.8,-.2,1.7,-.3,2.8,-.3c1.5,0,2.6,.4,3.2,1.2c.6,.8,.9,1.9,.9,3.4c0,.9,0,1.7,0,2.5c-.1,.9,-.1,1.7,-.1,2.5c0,.8,0,1.6,0,2.3c.1,.7,.2,1.4,.4,2.1h-2.7l-.5,-1.7h-.1c-.3,.6,-.7,1,-1.2,1.3c-.6,.4,-1.2,.6,-2.1,.6c-1,0,-1.9,-.4,-2.5,-1.1c-.6,-.7,-.9,-1.7,-.9,-2.9c0,-1.7,.5,-2.8,1.7,-3.5c1.2,-.7,2.8,-1,4.8,-.9c.1,-1.1,0,-1.9,-.2,-2.3c-.3,-.5,-.8,-.7,-1.5,-.7c-.6,0,-1.1,0,-1.7,.1c-.6,.2,-1.1,.4,-1.6,.6Zm3.9,10.3c.5,0,.9,-.2,1.2,-.4c.3,-.3,.6,-.5,.7,-.8v-2.3c-.4,-.1,-.8,-.1,-1.2,0c-.4,0,-.7,.1,-1,.2c-.3,.1,-.5,.3,-.7,.6c-.2,.2,-.3,.5,-.3,.9c0,.6,.1,1,.4,1.3c.2,.3,.5,.5,.9,.5Z" class="g0"/>
<path d="M508.1,972.6c0,.8,0,1.6,0,2.3c0,.8,.1,1.7,.2,2.6H506l-.4,-1.6h-.1c-.6,1.3,-1.7,1.9,-3.3,1.9c-1.4,0,-2.5,-.5,-3.3,-1.6c-.8,-1.1,-1.2,-2.9,-1.2,-5.4c0,-2.4,.5,-4.2,1.3,-5.5c.9,-1.2,2.2,-1.9,3.9,-1.9c.4,0,.8,.1,1.1,.1c.3,.1,.6,.2,.8,.3v-5.6h3.3Zm-5.1,2.2c.5,0,.9,-.1,1.2,-.3c.3,-.3,.5,-.6,.6,-1.1v-6.5c-.2,-.2,-.4,-.3,-.6,-.4c-.2,0,-.5,-.1,-.9,-.1c-.7,0,-1.3,.4,-1.6,1c-.4,.7,-.6,1.8,-.6,3.5c0,1.3,.2,2.3,.5,2.9c.3,.7,.7,1,1.4,1Z" class="g0"/>
<path d="M519.8,976.5c-.5,.4,-1.1,.7,-1.9,.9c-.8,.3,-1.6,.4,-2.5,.4c-.9,0,-1.8,-.1,-2.4,-.5c-.7,-.3,-1.3,-.8,-1.7,-1.4c-.5,-.6,-.8,-1.4,-1,-2.3c-.2,-.8,-.3,-1.9,-.3,-3c0,-2.5,.5,-4.3,1.4,-5.5c1,-1.2,2.4,-1.8,4.1,-1.8c.6,0,1.2,.1,1.7,.3c.6,.2,1.1,.5,1.5,.9c.4,.4,.8,.9,1,1.6c.3,.7,.4,1.6,.4,2.6c0,.4,0,.9,0,1.3c-.1,.5,-.1,1,-.2,1.5h-6.7c0,1.1,.3,2,.7,2.6c.4,.6,1.1,.9,2.1,.9c.6,0,1.1,-.1,1.6,-.2c.5,-.2,.9,-.4,1.1,-.6Zm-4.3,-10.4c-.7,0,-1.3,.3,-1.6,.9c-.3,.5,-.5,1.3,-.6,2.3h3.8c0,-1,-.1,-1.8,-.3,-2.3c-.3,-.6,-.7,-.9,-1.3,-.9Z" class="g0"/>
<path d="M495.2,1000.4v175m88.7,-139.6H325m258.9,34.9H325m258.9,36.4H325M583.9,1144H325m0,-144.2H584v175.6H325Z" class="g7"/>
</svg>